<svg xmlns="http://www.w3.org/2000/svg" width="383.000000pt" height="383.000000pt" version="1.0" viewBox="0 0 383.000000 383.000000"><path d="M36 111.9c0 1-27.8 161.6-28.5 164.8L7 279h341l.5-2.3c1-4.3 5.5-30.2 5.5-32 0-1.6-2.4-1.7-37.1-1.7h-37.1l.6-2.8c.8-3.4 4.6-25.5 4.6-26.4 0-.4 8.7-.9 19.3-1l19.2-.3 3.1-17.5 3-17.5-18.8-.3c-14.1-.2-18.8-.6-18.8-1.5 0-2.6 4.7-27.4 5.4-28.6.5-.8 10.3-1.1 37.3-1.1 20.1.1 36.7 0 36.8-.2s1.5-7.3 2.9-15.8c1.5-8.5 2.9-16.3 3.2-17.3.5-1.6-2.6-1.7-54.8-1.7h-55.3l-11.6 65.8-11.5 65.7-39.7.3c-35.4.2-39.7.1-39.7-1.3 0-1.8 3.9-24.1 4.6-26.8.5-1.5 2.3-1.7 19.5-1.7 10.4 0 18.9-.3 18.9-.8 0-.4 1.4-8.1 3-17.2 1.7-9.1 3-16.8 3-17.3 0-.4-8.5-.7-19-.7h-19l.6-2.8c.3-1.5 1.5-8.3 2.7-15.2l2.2-12.5 37.5-.5 37.4-.5 2.7-15.5c1.6-8.5 2.8-16.3 2.8-17.3.1-1.6-3.2-1.7-54.8-1.7h-54.9l-.6 2.7c-.9 4.5-22.6 127.7-22.6 128.5 0 .5-18 .8-40 .8s-40-.4-40-.8 1.1-7.1 2.5-14.8c1.4-7.6 2.5-14 2.5-14.2 0-.1 8.5-.2 19-.2 18.8 0 19 0 19.5-2.3.9-4.1 5.5-31.1 5.5-32.4 0-1-4.1-1.3-18.5-1.3-17.2 0-18.5-.1-18.5-1.8s3.4-22.1 4.5-27l.5-2.2h74.7l.7-4.8c.4-2.6 1.7-10.4 3-17.5l2.3-12.7H91.3c-31 0-55.3.4-55.3.9"/></svg>