<svg width="23" height="23" fill="none" xmlns="http://www.w3.org/2000/svg"><path d="M2.249 5.417a1 1 0 011-1h2.292a2.375 2.375 0 012.375 2.375v.917c0 .496-.155.976-.439 1.375.284.399.439.879.439 1.375v.917A2.375 2.375 0 015.54 13.75H3.249a1 1 0 110-2h2.292a.375.375 0 00.375-.375v-.917a.375.375 0 00-.375-.375H4.166a1 1 0 010-2H5.54a.375.375 0 00.375-.375v-.917a.375.375 0 00-.375-.375H3.249a1 1 0 01-1-1zm6.978-.438c.36-.36.847-.562 1.355-.562h1.834a1.916 1.916 0 011.916 1.917 1 1 0 01-1.996.083h-1.67v1.667h1.75A1.916 1.916 0 0114.332 10v1.833a1.917 1.917 0 01-1.916 1.917h-1.834a1.916 1.916 0 01-1.916-1.917v-5.5c0-.508.202-.996.561-1.355zm1.439 5.105v1.667h1.666v-1.667h-1.666zm5.246-4.837a2.833 2.833 0 014.837 2.004v3.666a2.834 2.834 0 01-5.667 0V7.251c0-.752.299-1.473.83-2.004zm2.004 1.17a.833.833 0 00-.834.834v3.666a.833.833 0 101.667 0V7.251a.834.834 0 00-.833-.834zM4.249 15.49a1 1 0 00-2 .01c0 .818.498 1.438 1.03 1.856.542.428 1.266.77 2.07 1.038 1.62.54 3.794.857 6.15.857 2.355 0 4.53-.317 6.15-.857.804-.268 1.528-.61 2.07-1.038.532-.418 1.03-1.038 1.03-1.855a1 1 0 00-2-.011c-.007.023-.051.125-.267.296-.293.23-.777.481-1.466.71-1.366.456-3.317.755-5.517.755s-4.151-.3-5.517-.755c-.689-.229-1.173-.48-1.466-.71-.216-.17-.26-.273-.267-.296z" fill="#650D97"/></svg>