<svg width="19" height="26" fill="none" xmlns="http://www.w3.org/2000/svg"><path d="M15.072 15.373v2.55l-1.056-.227v-2.898a8.546 8.546 0 00-1.23-.443v3.072l-1.055-.227v-3.056c-.58-.095-1.15-.159-1.626-.19v2.908l-1.055-.227V10.1a1.335 1.335 0 00-1.372-1.283A1.335 1.335 0 006.305 10.1v8.191l-1.055.528v-2.776l-1.23-1.262a1.493 1.493 0 00-2.11 0 1.546 1.546 0 000 2.159l3.166 3.747a5.71 5.71 0 00.733 2.227 4.454 4.454 0 001.167 1.441v1.351h7.62V23.97a6.618 6.618 0 001.584-4.486v-3.167a5.279 5.279 0 00-1.108-.945z" fill="#393940"/><path d="M15.205 5.758a7 7 0 00-12.395.065.952.952 0 01-.149.214 6.983 6.983 0 00-.086 5.74 1 1 0 01-1.836.792 9 9 0 0116.229-7.757 8.99 8.99 0 01.046 8.376 1 1 0 11-1.775-.92 6.986 6.986 0 00.227-5.963 1.016 1.016 0 01-.037-.077 7.112 7.112 0 00-.224-.47z" fill="#393940"/></svg>