<svg width="22" height="24" fill="none" xmlns="http://www.w3.org/2000/svg"><path d="M17.072 13.373v2.55l-1.056-.227v-2.898a8.546 8.546 0 00-1.23-.443v3.072l-1.055-.227v-3.056c-.58-.095-1.15-.159-1.626-.19v2.908l-1.055-.227V8.1a1.336 1.336 0 00-1.372-1.283A1.335 1.335 0 008.305 8.1v8.191l-1.055.528v-2.776l-1.23-1.262a1.493 1.493 0 00-2.11 0 1.546 1.546 0 000 2.159l3.166 3.747a5.71 5.71 0 00.733 2.227 4.454 4.454 0 001.167 1.441v1.351h7.62V21.97a6.618 6.618 0 001.584-4.486v-3.167a5.277 5.277 0 00-1.108-.944z" fill="#393940"/><path fill-rule="evenodd" clip-rule="evenodd" d="M0 4a4 4 0 014-4h14a4 4 0 014 4v12a1 1 0 11-2 0V4a2 2 0 00-2-2H4a2 2 0 00-2 2v12a1 1 0 11-2 0V4z" fill="#393940"/></svg>