<svg width="24" height="24" fill="none" xmlns="http://www.w3.org/2000/svg"><path d="M23.625 11.978c.012 6.405-5.212 11.643-11.617 11.647a11.577 11.577 0 01-7.304-2.574 1.124 1.124 0 01-.086-1.67l.528-.527a1.127 1.127 0 011.495-.093A8.59 8.59 0 0012 20.625 8.62 8.62 0 0020.625 12 8.62 8.62 0 0012 3.375c-2.288 0-4.366.89-5.91 2.34l2.38 2.38a.75.75 0 01-.53 1.28H1.124a.75.75 0 01-.75-.75V1.811a.75.75 0 011.28-.53L3.97 3.594A11.585 11.585 0 0112 .375c6.413 0 11.613 5.193 11.625 11.603zm-8.48 3.693l.46-.592a1.125 1.125 0 00-.197-1.579L13.5 12.016V7.125C13.5 6.504 12.996 6 12.375 6h-.75c-.621 0-1.125.504-1.125 1.125v6.359l3.066 2.384c.49.382 1.197.293 1.579-.197z" fill="#B0B0B3"/></svg>