<svg width="18" height="18" fill="none" xmlns="http://www.w3.org/2000/svg"><path d="M16.773 1.46L16.16.916a3.65 3.65 0 00-5.149.31L9.257 3.205a1.26 1.26 0 00-.318.921c.02.34.171.65.426.876l.164.146c.233.207.534.32.845.32l.076-.001c.34-.02.65-.172.877-.427l1.755-1.98a.91.91 0 011.243-.074l.613.543c.175.156.28.37.294.606a.872.872 0 01-.22.637l-3.837 4.329a.905.905 0 01-1.063.197 1.393 1.393 0 00-1.643.306l-.03.034a1.35 1.35 0 00-.32 1.15c.076.415.334.77.708.966.518.27 1.101.42 1.688.42 1.044 0 2.04-.453 2.731-1.233l3.837-4.33a3.656 3.656 0 00-.31-5.153z" fill="#432fd8"/><path d="M8.469 12.849c-.506-.448-1.348-.398-1.798.108l-1.753 1.98a.908.908 0 01-1.243.075l-.613-.544a.875.875 0 01-.295-.606.872.872 0 01.22-.636l3.837-4.329a.905.905 0 011.047-.206c.56.276 1.271.142 1.704-.348.275-.31.39-.721.317-1.127a1.335 1.335 0 00-.688-.95 3.655 3.655 0 00-4.45.797L.917 11.39a3.651 3.651 0 00.309 5.149l.613.535a3.63 3.63 0 002.418.91c1.044 0 2.04-.44 2.731-1.22l1.754-1.975c.226-.254.34-.58.319-.918a1.278 1.278 0 00-.427-.877l-.165-.145z" fill="#432fd8"/></svg>