<svg width="18" height="18" viewBox="0 0 18 18" fill="none" xmlns="http://www.w3.org/2000/svg">
  <path
    d="M16.7729 1.45916L16.16 0.916863C15.4928 0.325651 14.6341 0 13.7418 0C12.6975 0 11.7023 0.446943 11.0114 1.22634L9.25723 3.20582C9.03134 3.46024 8.91815 3.78756 8.93872 4.1272C8.95933 4.46636 9.11048 4.77754 9.36491 5.00314L9.52912 5.14892C9.76219 5.35591 10.0625 5.46984 10.3743 5.46984L10.4503 5.46766C10.7895 5.44727 11.1009 5.29608 11.3272 5.04129L13.0818 3.06159C13.3904 2.71318 13.976 2.67818 14.325 2.98662L14.9377 3.5301C15.1134 3.68562 15.2178 3.9009 15.2321 4.13634C15.2464 4.37159 15.1684 4.59756 15.0124 4.77306L11.1752 9.10159C10.9169 9.39342 10.4582 9.47767 10.112 9.29925C9.57263 9.02103 8.86949 9.15383 8.46943 9.60473L8.43935 9.639C8.15913 9.95418 8.04243 10.373 8.11839 10.7899C8.19514 11.2042 8.45315 11.5596 8.82709 11.7553C9.34459 12.0258 9.92837 12.1745 10.5151 12.1745H10.5156C11.5594 12.1745 12.555 11.7217 13.2463 10.942L17.083 6.61115C18.4166 5.10645 18.2781 2.79403 16.7729 1.45916Z"
    fill="#432fd8" />
  <path
    d="M8.4687 12.8487C7.96293 12.4008 7.12088 12.4512 6.67138 12.9574L4.91766 14.9365C4.60899 15.2847 4.02373 15.3208 3.67514 15.0121L3.0618 14.468C2.88616 14.3123 2.7817 14.097 2.76745 13.8618C2.75313 13.6269 2.83117 13.401 2.98706 13.2255L6.82383 8.89727C7.07825 8.60995 7.5286 8.52314 7.87087 8.69132C8.43037 8.9669 9.1422 8.83259 9.57479 8.34291C9.84982 8.03306 9.96534 7.62153 9.89249 7.21573C9.82011 6.80756 9.56883 6.4613 9.20359 6.26604C8.67813 5.98468 8.0834 5.83594 7.48427 5.83594C6.43998 5.83594 5.44482 6.28307 4.75389 7.06258L0.916633 11.3901C-0.41772 12.8948 -0.278816 15.2043 1.226 16.5386L1.8389 17.0744C2.5057 17.6657 3.36444 17.984 4.25677 17.984C4.25718 17.984 4.25677 17.984 4.25718 17.984C5.30147 17.984 6.29704 17.5441 6.98834 16.7646L8.74177 14.7894C8.96808 14.5346 9.0813 14.2088 9.06065 13.8711C9.04093 13.5356 8.88541 13.2164 8.63373 12.9939L8.4687 12.8487Z"
    fill="#432fd8" />
</svg>