<svg width="23" height="47" viewBox="0 0 23 47" fill="none" xmlns="http://www.w3.org/2000/svg">
<path d="M5.08547 46.16C4.55214 46.16 4.05547 46.07 3.59547 45.89C3.14214 45.71 2.7488 45.46 2.41547 45.14C2.08214 44.8133 1.82214 44.4333 1.63547 44C1.4488 43.5667 1.35547 43.0933 1.35547 42.58C1.35547 42.0667 1.4488 41.5933 1.63547 41.16C1.82214 40.7267 2.08214 40.35 2.41547 40.03C2.7488 39.7033 3.14214 39.45 3.59547 39.27C4.0488 39.09 4.54547 39 5.08547 39C5.6188 39 6.1088 39.09 6.55547 39.27C7.0088 39.4433 7.40214 39.6933 7.73547 40.02C8.07547 40.34 8.33547 40.7167 8.51547 41.15C8.70214 41.5833 8.79547 42.06 8.79547 42.58C8.79547 43.1 8.70214 43.5767 8.51547 44.01C8.33547 44.4433 8.07547 44.8233 7.73547 45.15C7.40214 45.47 7.0088 45.72 6.55547 45.9C6.1088 46.0733 5.6188 46.16 5.08547 46.16ZM5.08547 45.27C5.47214 45.27 5.8288 45.2033 6.15547 45.07C6.4888 44.9367 6.77547 44.75 7.01547 44.51C7.26214 44.2633 7.45214 43.9767 7.58547 43.65C7.72547 43.3233 7.79547 42.9667 7.79547 42.58C7.79547 42.1933 7.72547 41.8367 7.58547 41.51C7.45214 41.1833 7.26214 40.9 7.01547 40.66C6.77547 40.4133 6.4888 40.2233 6.15547 40.09C5.8288 39.9567 5.47214 39.89 5.08547 39.89C4.69214 39.89 4.3288 39.9567 3.99547 40.09C3.6688 40.2233 3.38214 40.4133 3.13547 40.66C2.8888 40.9 2.69547 41.1833 2.55547 41.51C2.42214 41.8367 2.35547 42.1933 2.35547 42.58C2.35547 42.9667 2.42214 43.3233 2.55547 43.65C2.69547 43.9767 2.8888 44.2633 3.13547 44.51C3.38214 44.75 3.6688 44.9367 3.99547 45.07C4.3288 45.2033 4.69214 45.27 5.08547 45.27Z" fill="#393940"/>
<path d="M13.2239 46.16C12.3039 46.16 11.5806 45.8967 11.0539 45.37C10.5272 44.8433 10.2639 44.0733 10.2639 43.06V39.08H11.2639V43.02C11.2639 43.8 11.4339 44.37 11.7739 44.73C12.1206 45.09 12.6072 45.27 13.2339 45.27C13.8672 45.27 14.3539 45.09 14.6939 44.73C15.0406 44.37 15.2139 43.8 15.2139 43.02V39.08H16.1839V43.06C16.1839 44.0733 15.9206 44.8433 15.3939 45.37C14.8739 45.8967 14.1506 46.16 13.2239 46.16Z" fill="#393940"/>
<path d="M19.4971 46.08V39.95H17.0971V39.08H22.8871V39.95H20.4871V46.08H19.4971Z" fill="#393940"/>
<path d="M1.4834 7.08V0.0799996H2.4834V6.21H6.2734V7.08H1.4834Z" fill="#393940"/>
<path d="M10.4539 7.16C9.92061 7.16 9.42395 7.07 8.96395 6.89C8.51061 6.71 8.11728 6.46 7.78395 6.14C7.45061 5.81333 7.19061 5.43333 7.00395 5C6.81728 4.56667 6.72395 4.09333 6.72395 3.58C6.72395 3.06667 6.81728 2.59333 7.00395 2.16C7.19061 1.72667 7.45061 1.35 7.78395 1.03C8.11728 0.703333 8.51061 0.45 8.96395 0.27C9.41728 0.0899998 9.91395 0 10.4539 0C10.9873 0 11.4773 0.0899998 11.9239 0.27C12.3773 0.443333 12.7706 0.693333 13.1039 1.02C13.4439 1.34 13.7039 1.71667 13.8839 2.15C14.0706 2.58333 14.1639 3.06 14.1639 3.58C14.1639 4.1 14.0706 4.57667 13.8839 5.01C13.7039 5.44333 13.4439 5.82333 13.1039 6.15C12.7706 6.47 12.3773 6.72 11.9239 6.9C11.4773 7.07333 10.9873 7.16 10.4539 7.16ZM10.4539 6.27C10.8406 6.27 11.1973 6.20333 11.5239 6.07C11.8573 5.93667 12.1439 5.75 12.3839 5.51C12.6306 5.26333 12.8206 4.97667 12.9539 4.65C13.0939 4.32333 13.1639 3.96667 13.1639 3.58C13.1639 3.19333 13.0939 2.83667 12.9539 2.51C12.8206 2.18333 12.6306 1.9 12.3839 1.66C12.1439 1.41333 11.8573 1.22333 11.5239 1.09C11.1973 0.956666 10.8406 0.89 10.4539 0.89C10.0606 0.89 9.69728 0.956666 9.36395 1.09C9.03728 1.22333 8.75061 1.41333 8.50395 1.66C8.25728 1.9 8.06395 2.18333 7.92395 2.51C7.79061 2.83667 7.72395 3.19333 7.72395 3.58C7.72395 3.96667 7.79061 4.32333 7.92395 4.65C8.06395 4.97667 8.25728 5.26333 8.50395 5.51C8.75061 5.75 9.03728 5.93667 9.36395 6.07C9.69728 6.20333 10.0606 6.27 10.4539 6.27Z" fill="#393940"/>
<path d="M18.8524 7.16C18.3124 7.16 17.8157 7.07333 17.3624 6.9C16.909 6.72 16.5157 6.47 16.1824 6.15C15.849 5.82333 15.589 5.44333 15.4024 5.01C15.2157 4.57667 15.1224 4.1 15.1224 3.58C15.1224 3.06 15.2157 2.58333 15.4024 2.15C15.589 1.71667 15.849 1.34 16.1824 1.02C16.5224 0.693333 16.9191 0.443333 17.3724 0.27C17.8257 0.0899998 18.3257 0 18.8724 0C19.4257 0 19.9324 0.0899998 20.3924 0.27C20.8524 0.45 21.2424 0.72 21.5624 1.08L20.9424 1.7C20.6557 1.42 20.3424 1.21667 20.0024 1.09C19.669 0.956666 19.3057 0.89 18.9124 0.89C18.5124 0.89 18.139 0.956666 17.7924 1.09C17.4524 1.22333 17.1557 1.41 16.9024 1.65C16.6557 1.89 16.4624 2.17667 16.3224 2.51C16.189 2.83667 16.1224 3.19333 16.1224 3.58C16.1224 3.96 16.189 4.31667 16.3224 4.65C16.4624 4.97667 16.6557 5.26333 16.9024 5.51C17.1557 5.75 17.4524 5.93667 17.7924 6.07C18.1324 6.20333 18.5024 6.27 18.9024 6.27C19.2757 6.27 19.6324 6.21333 19.9724 6.1C20.319 5.98 20.639 5.78333 20.9324 5.51L21.5024 6.27C21.1557 6.56333 20.7491 6.78667 20.2824 6.94C19.8224 7.08667 19.3457 7.16 18.8524 7.16ZM20.5424 6.14V3.54H21.5024V6.27L20.5424 6.14Z" fill="#393940"/>
<path d="M0.6 8.08008C0.239063 8.08008 0 8.31914 0 8.68008V29.0801L1.2 28.4801V9.28008H21.6V21.8801H19.3312L15.9 18.5051V18.5238C15.8953 18.5191 15.8859 18.5285 15.8812 18.5238C14.993 17.6426 13.7953 17.0801 12.5437 17.0801H7.2C6.53672 17.0801 5.89922 17.4504 5.60625 18.0738C5.59922 18.0902 5.57578 18.0949 5.56875 18.1113L3.1875 22.8738C2.74453 23.7598 3.10781 24.8496 3.99375 25.2926C4.01719 25.3066 4.04297 25.3184 4.06875 25.3301C4.24922 25.391 4.48594 25.4801 4.8 25.4801C5.44922 25.4801 6.05391 25.1191 6.39375 24.5238C6.40078 24.5121 6.40781 24.498 6.4125 24.4863L8.2875 20.6801H9.54375L7.3875 25.2738V25.2926C7.24922 25.5738 7.16953 25.8738 7.125 26.1738C7.09219 26.2254 7.06641 26.2816 7.05 26.3426L6.15 29.6801H2.4C1.07344 29.6801 0 30.7535 0 32.0801V32.6801C0 33.0105 0.269531 33.2801 0.6 33.2801H8.04375C8.77266 33.2801 9.37734 32.748 9.675 32.0801L10.0125 31.2551L14.8312 37.1426C14.843 37.1566 14.8547 37.1684 14.8687 37.1801C15.1008 37.4121 15.2953 37.6324 15.5437 37.8176C15.7922 38.0027 16.1344 38.1363 16.5 38.1363H18.2437C18.4594 38.1387 18.6586 38.0238 18.7664 37.8387C18.8766 37.6535 18.8766 37.4238 18.7687 37.2363L12.7125 26.6613L15.375 23.0426L17.2687 24.9363C17.2852 24.9574 17.3039 24.9762 17.325 24.9926C17.7023 25.2926 18.1406 25.4801 18.6 25.4801H21.6V38.0801H22.8V8.68008C22.8 8.31914 22.5609 8.08008 22.2 8.08008H0.6ZM15.9 10.4801C14.0836 10.4801 12.6 11.9637 12.6 13.7801C12.6 15.5965 14.0836 17.0801 15.9 17.0801C17.7164 17.0801 19.2 15.5965 19.2 13.7801C19.2 11.9637 17.7164 10.4801 15.9 10.4801ZM15.9 11.6801C17.0672 11.6801 18 12.6129 18 13.7801C18 14.9473 17.0672 15.8801 15.9 15.8801C14.7328 15.8801 13.8 14.9473 13.8 13.7801C13.8 12.6129 14.7328 11.6801 15.9 11.6801ZM7.2 18.2801H12.5437C13.4461 18.2801 14.3859 18.6973 15.0562 19.3676L18.6562 22.9113C18.7711 23.0238 18.9281 23.0848 19.0875 23.0801H21.6V24.2801H18.6C18.4758 24.2801 18.3164 24.2262 18.1312 24.0926L18.1125 24.0738C18.0961 24.0621 18.0914 24.0691 18.075 24.0551L15.7312 21.6926C15.607 21.566 15.4312 21.5004 15.2555 21.5145C15.0773 21.5285 14.9156 21.6223 14.8125 21.7676L11.5125 26.2676C11.3695 26.4598 11.3555 26.7176 11.475 26.9238L17.2125 36.9363H16.5C16.3852 36.9363 16.3687 36.927 16.2562 36.8426C16.1531 36.7652 15.9891 36.5965 15.7687 36.3738C15.7523 36.3574 15.75 36.3551 15.7312 36.3363L8.68125 27.7488C8.68125 27.7418 8.68125 27.7371 8.68125 27.7301C8.23359 27.1934 8.14453 26.4434 8.45625 25.8176C8.45625 25.8105 8.45625 25.8059 8.45625 25.7988L11.0437 20.3426C11.1352 20.1551 11.1234 19.9348 11.0109 19.759C10.9008 19.5855 10.7086 19.4777 10.5 19.4801H7.9125C7.6875 19.4848 7.48594 19.616 7.3875 19.8176L5.3625 23.9238C5.22422 24.1676 4.99219 24.2801 4.8 24.2801C4.7625 24.2801 4.64062 24.2426 4.51875 24.2051C4.22344 24.0434 4.10391 23.7223 4.25625 23.4176L6.65625 18.6176C6.66328 18.6059 6.67031 18.5918 6.675 18.5801C6.75469 18.3949 6.92109 18.2801 7.2 18.2801ZM7.725 28.4426C7.73906 28.4613 7.74844 28.4801 7.7625 28.4988L9.16875 30.2051L8.56875 31.5926C8.38594 32.0051 8.27344 32.0801 8.04375 32.0801H1.2C1.2 31.3652 1.68516 30.8801 2.4 30.8801H6.6C6.87422 30.8801 7.11328 30.6949 7.18125 30.4301L7.725 28.4426ZM0 34.4801V38.0801H1.2V34.4801H0Z" fill="#393940"/>
</svg>
