<svg width="321" height="560" fill="none" xmlns="http://www.w3.org/2000/svg"><path fill-rule="evenodd" clip-rule="evenodd" d="M72.484 0h64.2l26.922 151.506L190.529 0h57.987v209.51C288.734 210.608 321 243.604 321 284.148v6.222c0 41.238-33.379 74.667-74.555 74.667H213.31v33.185h51.774v47.704H213.31v66.37h66.271V560H165.677V365.037h-8.283V560H43.49v-47.704h66.271v-66.37H57.987v-47.704h51.774v-33.185H74.555C33.379 365.037 0 331.608 0 290.37v-6.222c0-40.544 32.266-73.54 72.484-74.638V0zm0 265.595v8.183h43.49v-8.297h24.852v8.297h43.49v-8.297h20.71v8.297h43.49v-8.183c9.319 1.032 16.568 8.945 16.568 18.553v6.222c0 10.31-8.345 18.667-18.639 18.667H213.31V290.37h-47.633v18.667h-8.283V290.37h-47.633v18.667H74.555c-10.294 0-18.639-8.357-18.639-18.667v-6.222c0-9.608 7.249-17.521 16.568-18.553zm132.542-56.114V163.16l-8.231 46.321h8.231zm-74.608 0l-14.444-81.283v81.283h14.444z" fill="#fff"/></svg>