<svg width="20" height="20" viewBox="0 0 20 20" fill="none" xmlns="http://www.w3.org/2000/svg">
  <path
    d="M13.3576 2.28827C10.3065 -0.762757 5.34075 -0.762757 2.28973 2.28827C-0.760638 5.33996 -0.760638 10.3051 2.28973 13.3568C5.00675 16.0731 9.23837 16.3641 12.2874 14.243C12.3516 14.5466 12.4984 14.8363 12.7345 15.0724L17.1778 19.5157C17.8253 20.1619 18.8716 20.1619 19.5158 19.5157C20.1627 18.8688 20.1627 17.8225 19.5158 17.1777L15.0726 12.7331C14.8378 12.4989 14.5474 12.3514 14.2438 12.2873C16.3663 9.23757 16.0752 5.00661 13.3576 2.28827ZM11.9547 11.9539C9.67688 14.2318 5.96974 14.2318 3.69255 11.9539C1.41602 9.67608 1.41602 5.96961 3.69255 3.69176C5.96974 1.41456 9.67688 1.41456 11.9547 3.69176C14.2326 5.96961 14.2326 9.67608 11.9547 11.9539Z"
    fill="#393940" />
</svg>