<svg width="23" height="23" viewBox="51 -27 23 23" xmlns="http://www.w3.org/2000/svg"
  xmlns:xlink="http://www.w3.org/1999/xlink">
  <path
    d="M60.0014 -21.8124C60.0014 -22.607 60.3171 -23.3691 60.879 -23.931C61.4409 -24.4929 62.2031 -24.8087 62.9977 -24.8087C63.7924 -24.8087 64.5545 -24.4929 65.1164 -23.931C65.6783 -23.3691 65.994 -22.607 65.994 -21.8124C65.994 -21.0177 65.6783 -20.2556 65.1164 -19.6937C64.5545 -19.1318 63.7924 -18.8162 62.9977 -18.8162C62.2031 -18.8162 61.4409 -19.1318 60.879 -19.6937C60.3171 -20.2556 60.0014 -21.0177 60.0014 -21.8124Z"
    fill="#432fd8" />
  <path
    d="M62.9977 -17.6176C61.8852 -17.6176 60.8182 -17.1757 60.0316 -16.389C59.2449 -15.6024 58.8029 -14.5354 58.8029 -13.4229V-11.0258C58.8029 -10.8668 58.8661 -10.7144 58.9785 -10.6021C59.0908 -10.4897 59.2432 -10.4265 59.4022 -10.4265H66.5933C66.7522 -10.4265 66.9046 -10.4897 67.017 -10.6021C67.1294 -10.7144 67.1925 -10.8668 67.1925 -11.0258V-13.4229C67.1925 -14.5354 66.7505 -15.6024 65.9639 -16.389C65.1772 -17.1757 64.1103 -17.6176 62.9977 -17.6176Z"
    fill="#432fd8" />
  <path
    d="M72.4504 -13.4131C73.0555 -12.7915 73.499 -11.9916 73.499 -11.0537C73.499 -10.1025 73.0437 -9.29525 72.4265 -8.66907C71.813 -8.04674 70.9832 -7.54273 70.0526 -7.14331C68.1879 -6.34435 65.6927 -5.87817 62.999 -5.87817C60.3052 -5.87817 57.8102 -6.34429 55.9441 -7.14465C55.0141 -7.54304 54.1848 -8.04823 53.5719 -8.66858C52.9545 -9.29487 52.499 -10.1027 52.499 -11.0551C52.499 -11.9927 52.941 -12.7915 53.548 -13.4136C54.1472 -14.0305 54.959 -14.5335 55.8701 -14.9321L56.3439 -15.1394L57.2896 -12.9735L56.8173 -12.7662C56.0817 -12.4434 55.5611 -12.0934 55.2419 -11.7654C54.9292 -11.4426 54.8635 -11.2041 54.8635 -11.0537C54.8635 -10.9019 54.9308 -10.6591 55.2551 -10.3304C55.584 -9.99596 56.1203 -9.64093 56.8762 -9.31628C58.3832 -8.67108 60.547 -8.24268 62.999 -8.24268C65.451 -8.24268 67.6149 -8.67104 69.1219 -9.31628C69.8776 -9.64092 70.4134 -9.99538 70.7422 -10.3298C71.0667 -10.6587 71.1344 -10.9008 71.1344 -11.0537C71.1344 -11.2047 71.0695 -11.4427 70.7556 -11.7644L70.7543 -11.7656C70.4369 -12.0931 69.9167 -12.4432 69.1806 -12.7662L68.7083 -12.9735L69.6541 -15.1394L70.1278 -14.9321C71.0389 -14.5335 71.8512 -14.03 72.4504 -13.4131Z"
    fill="#432fd8" />
</svg>