<svg width="23" height="23" viewBox="51 -27 23 23" xmlns="http://www.w3.org/2000/svg"><path d="M60.001-21.812a2.996 2.996 0 115.993 0 2.996 2.996 0 01-5.993 0zm2.997 4.194a4.194 4.194 0 00-4.195 4.195v2.397a.599.599 0 00.6.6h7.19a.6.6 0 00.6-.6v-2.397a4.195 4.195 0 00-4.195-4.195z" fill="#432fd8"/><path d="M72.45-13.413c.605.622 1.049 1.421 1.049 2.36 0 .95-.455 1.758-1.072 2.384-.614.622-1.444 1.126-2.374 1.526-1.865.799-4.36 1.265-7.054 1.265s-5.189-.466-7.055-1.267c-.93-.398-1.76-.903-2.372-1.524-.617-.626-1.073-1.434-1.073-2.386 0-.938.442-1.736 1.049-2.359.6-.617 1.411-1.12 2.322-1.518l.474-.207.946 2.165-.473.208c-.735.323-1.256.673-1.575 1-.313.323-.378.562-.378.712 0 .152.067.395.391.724.329.334.865.69 1.621 1.014 1.507.645 3.671 1.073 6.123 1.073 2.452 0 4.616-.428 6.123-1.073.756-.325 1.291-.68 1.62-1.014.325-.329.392-.57.392-.724 0-.15-.064-.389-.378-.71l-.002-.002c-.317-.327-.837-.677-1.573-1l-.473-.207.946-2.166.474.207c.91.399 1.723.902 2.322 1.519z" fill="#432fd8"/></svg>