<svg width="20" height="22" fill="none" xmlns="http://www.w3.org/2000/svg"><path d="M5.523 0H4.051a.645.645 0 00-.645.645v20.71c0 .356.289.645.645.645h1.472a.645.645 0 00.645-.645V.645A.645.645 0 005.523 0zm9.664 0h-1.472a.644.644 0 00-.645.645v20.71c0 .356.289.645.645.645h1.472a.645.645 0 00.645-.645V.645A.645.645 0 0015.187 0zm-7.73 1.336h4.326v2.761H7.457V1.336zM0 2.717c0 .762.618 1.38 1.38 1.38h.737V1.336H1.38A1.38 1.38 0 000 2.716zm0 5.521c0 .763.618 1.38 1.38 1.38h.737v-2.76H1.38A1.38 1.38 0 000 8.237zm7.457-1.381h4.326V9.62H7.457V6.857zm0 5.523h4.326v2.762H7.457v-2.761zm0 5.522h4.326v2.762H7.457v-2.762zM0 13.762c0 .762.618 1.38 1.38 1.38h.737v-2.761H1.38A1.38 1.38 0 000 13.76zm0 5.521c0 .763.618 1.38 1.38 1.38h.737v-2.76H1.38A1.38 1.38 0 000 19.282zm17.857-1.381h-.736v2.762h.736a1.38 1.38 0 000-2.762zm0-5.522h-.736v2.762h.736a1.38 1.38 0 000-2.761zm0-5.523h-.736V9.62h.736a1.38 1.38 0 100-2.762zm1.381-4.14a1.38 1.38 0 00-1.38-1.381h-.737v2.761h.736a1.38 1.38 0 001.38-1.38z" fill="#393940"/></svg>