<svg width="14" height="18" fill="none" xmlns="http://www.w3.org/2000/svg"><path d="M1.555 16.966c.02.48.415.86.894.86h8.35c.479 0 .873-.38.893-.86L12.29 4.34H.959l.596 12.626zm6.958-9.49c0-.201.162-.364.363-.364h.58c.201 0 .364.163.364.364v7.214a.364.364 0 01-.363.364h-.581a.364.364 0 01-.363-.364V7.476zm-2.543 0c0-.201.163-.364.363-.364h.581c.2 0 .364.163.364.364v7.214a.364.364 0 01-.364.364h-.58a.364.364 0 01-.364-.364V7.476zm-2.543 0c0-.201.163-.364.364-.364h.58c.201 0 .364.163.364.364v7.214a.364.364 0 01-.363.364H3.79a.364.364 0 01-.364-.364V7.476zM12.685.918H8.833v-.73A.188.188 0 008.646 0H4.6a.188.188 0 00-.188.188v.73H.561A.562.562 0 000 1.481V3.25h13.246V1.481a.562.562 0 00-.561-.563z" fill="#fff"/></svg>