<svg width="18" height="16" viewBox="0 0 18 16" fill="none" xmlns="http://www.w3.org/2000/svg">
  <path
    d="M17.8416 13.6301L9.94445 0.533391C9.74487 0.202395 9.38652 0 8.99997 0C8.61343 0 8.25508 0.202359 8.0555 0.533391L0.158413 13.6301C-0.0469705 13.9708 -0.0530526 14.3956 0.142557 14.7419C0.338167 15.0883 0.705093 15.3025 1.10285 15.3025H16.8971C17.2949 15.3025 17.6618 15.0883 17.8574 14.7419C18.053 14.3956 18.047 13.9708 17.8416 13.6301ZM9.00588 4.53031C9.45943 4.53031 9.8432 4.78618 9.8432 5.23969C9.8432 6.62355 9.68039 8.6122 9.68039 9.99606C9.68039 10.3566 9.28498 10.5077 9.00588 10.5077C8.63379 10.5077 8.31977 10.3566 8.31977 9.99606C8.31977 8.6122 8.157 6.62355 8.157 5.23969C8.157 4.78618 8.52909 4.53031 9.00588 4.53031ZM9.01752 13.1011C8.50585 13.1011 8.12205 12.6825 8.12205 12.2057C8.12205 11.7172 8.50582 11.3102 9.01752 11.3102C9.49431 11.3102 9.90135 11.7172 9.90135 12.2057C9.90135 12.6825 9.49431 13.1011 9.01752 13.1011Z"
    fill="#432fd8" />
</svg>