<svg width="18" height="16" fill="none" xmlns="http://www.w3.org/2000/svg"><path d="M17.842 13.63L9.944.533a1.103 1.103 0 00-1.889 0L.159 13.63a1.103 1.103 0 00.945 1.672h15.794a1.103 1.103 0 00.945-1.672zm-8.836-9.1c.453 0 .837.256.837.71 0 1.384-.163 3.372-.163 4.756 0 .36-.395.512-.674.512-.372 0-.686-.151-.686-.512 0-1.384-.163-3.372-.163-4.756 0-.454.372-.71.849-.71zm.012 8.571a.896.896 0 01-.896-.895c0-.489.384-.896.896-.896.476 0 .883.407.883.896 0 .476-.407.895-.883.895z" fill="#432fd8"/></svg>