<svg width="18" height="18" viewBox="-66 3 18 18" xmlns="http://www.w3.org/2000/svg"><path d="M-60.754 3.981a8.5 8.5 0 116.506 15.705A8.5 8.5 0 01-60.754 3.98zm3.253 1.353a6.5 6.5 0 100 13.001 6.5 6.5 0 000-13.001z" fill="#432fd8"/><path d="M-60.772 6.125c.659-1.483 1.753-2.791 3.271-2.791 1.517 0 2.612 1.308 3.27 2.79.697 1.566 1.063 3.62 1.063 5.71s-.366 4.143-1.062 5.71c-.66 1.482-1.754 2.79-3.271 2.79-1.518 0-2.612-1.308-3.27-2.79-.697-1.567-1.063-3.62-1.063-5.71s.366-4.144 1.062-5.71zm3.271-.791c-.25 0-.852.272-1.443 1.603-.554 1.247-.89 3.008-.89 4.897 0 1.888.336 3.65.89 4.897.591 1.33 1.192 1.603 1.443 1.603.25 0 .852-.272 1.443-1.603.554-1.247.89-3.009.89-4.897 0-1.889-.336-3.65-.89-4.897-.591-1.33-1.192-1.603-1.443-1.603z" fill="#432fd8"/><path d="M-63.21 8.563c1.512-.672 3.532-1.062 5.709-1.062 2.177 0 4.197.39 5.71 1.062.754.335 1.427.76 1.925 1.284.503.528.865 1.201.865 1.987s-.362 1.459-.865 1.987c-.498.523-1.17.949-1.926 1.284-1.512.672-3.532 1.062-5.709 1.062-2.177 0-4.197-.39-5.71-1.062-.754-.335-1.427-.76-1.925-1.284-.503-.528-.865-1.201-.865-1.987s.362-1.46.865-1.987c.498-.523 1.17-.949 1.926-1.284zm-.477 2.662c-.257.27-.314.474-.314.609s.057.339.314.608c.261.275.687.568 1.289.835 1.202.535 2.933.89 4.897.89 1.964 0 3.695-.355 4.897-.89.602-.267 1.028-.56 1.29-.835.256-.27.313-.473.313-.608s-.057-.34-.314-.608c-.261-.275-.687-.568-1.289-.836-1.202-.534-2.933-.89-4.897-.89-1.965 0-3.695.356-4.897.89-.602.268-1.028.56-1.29.835z" fill="#432fd8"/></svg>