<svg xmlns="http://www.w3.org/2000/svg" width="22" height="24" fill="none" viewBox="0 0 22 24"><path fill="#393940" d="M17.072 13.374v2.549l-1.056-.227v-2.898a8.6 8.6 0 0 0-1.23-.443v3.072l-1.055-.227v-3.056c-.58-.095-1.15-.159-1.626-.19v2.908l-1.055-.227V8.1a1.336 1.336 0 0 0-1.372-1.283A1.335 1.335 0 0 0 8.305 8.1v8.191l-1.055.528v-2.776l-1.23-1.262a1.493 1.493 0 0 0-2.11 0 1.546 1.546 0 0 0 0 2.159l3.166 3.747a5.7 5.7 0 0 0 .733 2.227 4.45 4.45 0 0 0 1.167 1.441v1.351h7.62V21.97a6.62 6.62 0 0 0 1.584-4.486v-3.167a5.3 5.3 0 0 0-1.108-.944"/><path fill="#393940" fill-rule="evenodd" d="M0 4a4 4 0 0 1 4-4h14a4 4 0 0 1 4 4v12a1 1 0 1 1-2 0V4a2 2 0 0 0-2-2H4a2 2 0 0 0-2 2v12a1 1 0 1 1-2 0z" clip-rule="evenodd"/></svg>