<svg xmlns="http://www.w3.org/2000/svg" width="18" height="13" viewBox="0 0 18 13"><path fill="#393940" d="M1.615 8.664c-1.28 0-1.28.774-1.28 1.176 0 2.714 2.835 2.963 6.33 2.963h4.668c3.496 0 6.33-.473 6.33-2.963 0-.402-.123-1.176-1.268-1.176zm14.768-4.525c1.28 0 1.28-.775 1.28-1.177C17.662.25 14.827 0 11.332 0H6.665C3.169 0 .335.473.335 2.962c0 .402.123 1.177 1.268 1.177zM18 6.584a.81.81 0 0 1-.808.808H.808A.81.81 0 0 1 0 6.584v-.606a.81.81 0 0 1 .808-.808h16.384a.81.81 0 0 1 .808.808z"/></svg>