<svg width="23" height="23" viewBox="0 0 23 23" fill="none" xmlns="http://www.w3.org/2000/svg"
  xmlns:xlink="http://www.w3.org/1999/xlink">
  <path
    d="M2.24896 5.41724C2.24896 4.86499 2.69666 4.41724 3.24896 4.41724H5.54065C6.17053 4.41724 6.77466 4.66736 7.22003 5.11279C7.66541 5.55823 7.91565 6.16235 7.91565 6.79224V7.70886C7.91565 8.20483 7.7605 8.68481 7.47711 9.08386C7.7605 9.48291 7.91565 9.96289 7.91565 10.4589V11.3756C7.91565 12.0055 7.66541 12.6095 7.22003 13.0549C6.77466 13.5004 6.17053 13.7506 5.54065 13.7506H3.24896C2.69666 13.7506 2.24896 13.3029 2.24896 12.7506C2.24896 12.1984 2.69666 11.7506 3.24896 11.7506H5.54065C5.64008 11.7506 5.73547 11.7111 5.80579 11.6407C5.8761 11.5704 5.91565 11.4751 5.91565 11.3756V10.4589C5.91565 10.3594 5.8761 10.264 5.80579 10.1937C5.73547 10.1234 5.64008 10.0839 5.54065 10.0839H4.16565C3.61334 10.0839 3.16565 9.63611 3.16565 9.08386C3.16565 8.53162 3.61334 8.08386 4.16565 8.08386H5.54065C5.64008 8.08386 5.73547 8.04443 5.80579 7.97412C5.8761 7.90381 5.91565 7.80835 5.91565 7.70886V6.79224C5.91565 6.69275 5.8761 6.59741 5.80579 6.5271C5.73547 6.45679 5.64008 6.41724 5.54065 6.41724H3.24896C2.69666 6.41724 2.24896 5.96948 2.24896 5.41724ZM9.22699 4.97864C9.58643 4.61914 10.0739 4.41724 10.5823 4.41724H12.4156C12.924 4.41724 13.4115 4.61914 13.7709 4.97864C14.1304 5.33813 14.3323 5.82556 14.3323 6.33386C14.3323 6.88611 13.8846 7.33386 13.3323 7.33386C12.808 7.33386 12.3781 6.93054 12.3357 6.41724H10.6656V8.08386H12.4156C12.924 8.08386 13.4115 8.28577 13.7709 8.64526C14.1304 9.00476 14.3323 9.49231 14.3323 10.0006V11.8339C14.3323 12.3422 14.1304 12.8297 13.7709 13.1892C13.4115 13.5487 12.924 13.7506 12.4156 13.7506H10.5823C10.0739 13.7506 9.58643 13.5487 9.22699 13.1892C8.86755 12.8297 8.66565 12.3422 8.66565 11.8339V6.33386C8.66565 5.82556 8.86755 5.33813 9.22699 4.97864ZM10.6656 10.0839V11.7506H12.3323V10.0839H10.6656ZM15.9122 5.24707C16.4435 4.7157 17.1642 4.41724 17.9156 4.41724C18.6671 4.41724 19.3877 4.7157 19.9191 5.24707C20.4504 5.77844 20.749 6.49915 20.749 7.25061V10.9172C20.749 11.6687 20.4504 12.3893 19.9191 12.9207C19.3877 13.452 18.6671 13.7506 17.9156 13.7506C17.1642 13.7506 16.4435 13.452 15.9122 12.9207C15.3808 12.3893 15.0823 11.6687 15.0823 10.9172V7.25061C15.0823 6.49915 15.3808 5.77844 15.9122 5.24707ZM17.9156 6.41724C17.6946 6.41724 17.4827 6.505 17.3264 6.66125C17.17 6.8175 17.0823 7.02954 17.0823 7.25061V10.9172C17.0823 11.1383 17.17 11.3502 17.3264 11.5065C17.4827 11.6627 17.6946 11.7506 17.9156 11.7506C18.1367 11.7506 18.3486 11.6627 18.5049 11.5065C18.6611 11.3502 18.749 11.1383 18.749 10.9172V7.25061C18.749 7.02954 18.6611 6.8175 18.5049 6.66125C18.3486 6.505 18.1367 6.41724 17.9156 6.41724ZM4.2489 15.49C4.24323 14.9426 3.79773 14.5006 3.24896 14.5006C2.69666 14.5006 2.24896 14.9484 2.24896 15.5006C2.24896 16.3181 2.74695 16.9376 3.27844 17.3564C3.82123 17.7842 4.54456 18.1256 5.3493 18.3938C6.96924 18.9337 9.14349 19.2506 11.499 19.2506C13.8544 19.2506 16.0287 18.9337 17.6486 18.3938C18.4534 18.1256 19.1767 17.7842 19.7195 17.3564C20.251 16.9376 20.749 16.3181 20.749 15.5006C20.749 14.9484 20.3013 14.5006 19.749 14.5006C19.2002 14.5006 18.7547 14.9426 18.749 15.49C18.7418 15.5133 18.698 15.6151 18.4816 15.7856C18.1894 16.016 17.7045 16.2671 17.0162 16.4965C15.6501 16.9518 13.6993 17.2506 11.499 17.2506C9.29865 17.2506 7.34784 16.9518 5.98175 16.4965C5.29346 16.2671 4.80853 16.016 4.5163 15.7856C4.29993 15.6151 4.25616 15.5133 4.2489 15.49Z"
    fill="#650D97" />
</svg>