<svg width="19" height="26" viewBox="0 0 19 26" fill="none" xmlns="http://www.w3.org/2000/svg">
  <path
    d="M15.0719 15.3735V17.9227L14.0163 17.6957V14.7982C13.6183 14.6193 13.2072 14.471 12.7866 14.3549V17.4265L11.731 17.1996V14.1438C11.1505 14.0488 10.5805 13.9854 10.1055 13.9538V16.8618L9.04991 16.6349V10.101C9.03615 9.7496 8.88432 9.41782 8.6274 9.17769C8.37048 8.93757 8.02921 8.80849 7.67768 8.81849C7.32616 8.80849 6.98489 8.93757 6.72796 9.17769C6.47104 9.41782 6.31922 9.7496 6.30546 10.101V18.2921L5.24991 18.8199V16.0438L4.02018 14.7824C3.74012 14.5026 3.36047 14.3455 2.96463 14.3455C2.56878 14.3455 2.18913 14.5026 1.90907 14.7824C1.62763 15.0712 1.47012 15.4584 1.47012 15.8617C1.47012 16.2649 1.62763 16.6522 1.90907 16.941L5.07574 20.6882C5.16357 21.4734 5.41338 22.2318 5.80935 22.9154C6.09254 23.4724 6.48998 23.9633 6.97574 24.3563V25.7074H14.5969V23.971C15.6624 22.7236 16.2267 21.1248 16.1802 19.4849V16.3182C15.8562 15.9536 15.4832 15.6357 15.0719 15.3735Z"
    fill="#393940" />
  <path
    d="M15.2054 5.75794C14.5622 4.54596 13.5569 3.5102 12.2467 2.83083C8.81465 1.05126 4.58979 2.39087 2.81022 5.82293C2.76911 5.90222 2.71887 5.97368 2.66145 6.03671C1.84403 7.78613 1.74999 9.86388 2.57537 11.7762C2.79422 12.2833 2.56058 12.8718 2.05351 13.0906C1.54644 13.3095 0.957959 13.0758 0.739103 12.5688C-1.2306 8.00512 0.872202 2.7088 5.43584 0.739103C9.7861 -1.1385 14.8021 0.684469 16.9678 4.81201C18.3104 7.33668 18.4301 10.4575 17.0143 13.1879C16.7601 13.6782 16.1566 13.8696 15.6663 13.6154C15.176 13.3612 14.9846 12.7576 15.2388 12.2673C16.2389 10.3386 16.2539 8.15946 15.466 6.30467C15.4528 6.27998 15.4405 6.25455 15.4292 6.22838C15.3598 6.0676 15.2851 5.91075 15.2054 5.75794Z"
    fill="#393940" />
</svg>