<svg width="22" height="24" viewBox="0 0 22 24" fill="none" xmlns="http://www.w3.org/2000/svg">
  <path
    d="M17.0718 13.3735V15.9227L16.0163 15.6957V12.7982C15.6183 12.6193 15.2072 12.471 14.7866 12.3549V15.4265L13.731 15.1996V12.1438C13.1505 12.0488 12.5805 11.9854 12.1055 11.9538V14.8618L11.0499 14.6349V8.10099C11.0361 7.7496 10.8843 7.41782 10.6274 7.17769C10.3705 6.93757 10.0292 6.80849 9.67768 6.81849C9.32616 6.80849 8.98489 6.93757 8.72796 7.17769C8.47104 7.41782 8.31922 7.7496 8.30546 8.10099V16.2921L7.24991 16.8199V14.0438L6.02018 12.7824C5.74012 12.5026 5.36047 12.3455 4.96463 12.3455C4.56878 12.3455 4.18913 12.5026 3.90907 12.7824C3.62763 13.0712 3.47012 13.4584 3.47012 13.8617C3.47012 14.2649 3.62763 14.6522 3.90907 14.941L7.07574 18.6882C7.16357 19.4734 7.41338 20.2318 7.80935 20.9154C8.09254 21.4724 8.48998 21.9633 8.97574 22.3563V23.7074H16.5969V21.971C17.6624 20.7236 18.2267 19.1248 18.1802 17.4849V14.3182C17.8562 13.9536 17.4832 13.6357 17.0718 13.3735Z"
    fill="#393940" />
  <path fill-rule="evenodd" clip-rule="evenodd"
    d="M0 4C0 1.79086 1.79086 0 4 0H18C20.2091 0 22 1.79086 22 4V16C22 16.5523 21.5523 17 21 17C20.4477 17 20 16.5523 20 16V4C20 2.89543 19.1046 2 18 2H4C2.89543 2 2 2.89543 2 4V16C2 16.5523 1.55228 17 1 17C0.447715 17 0 16.5523 0 16V4Z"
    fill="#393940" />
</svg>