<svg width="29" height="30" viewBox="0 0 29 30" fill="none" xmlns="http://www.w3.org/2000/svg">
<path d="M10.2514 6.38343e-05C10.1668 -0.00113236 10.0828 0.014494 10.0043 0.0460346C9.92585 0.0775752 9.85441 0.124401 9.79418 0.183791C9.73394 0.243181 9.68611 0.313951 9.65346 0.391987C9.62082 0.470023 9.604 0.55377 9.604 0.63836C9.604 0.722951 9.62082 0.806697 9.65346 0.884734C9.68611 0.96277 9.73394 1.03354 9.79418 1.09293C9.85441 1.15232 9.92585 1.19915 10.0043 1.23069C10.0828 1.26223 10.1668 1.27785 10.2514 1.27666C10.2514 1.27666 10.4373 1.28546 10.6042 1.36891C10.7133 1.42345 10.7979 1.46827 10.8461 1.60453C8.20865 2.49049 6.22898 3.7834 5.16247 4.59156C4.46864 5.11688 4.51594 6.17724 5.23977 6.65979C5.78296 7.0217 6.42161 7.02133 6.42161 7.02133H6.71957C6.65723 7.78241 6.70553 8.66801 6.93275 9.69544C6.67105 10.0337 6.4276 10.5768 6.49143 11.3236C6.67653 12.6959 7.20073 13.2641 7.62839 13.5003C7.82626 14.6173 8.36867 15.849 8.91122 16.4362V18.7089C8.52186 19.5834 7.25125 20.0939 5.78955 20.6811C3.31934 21.6641 0.255668 22.8953 0.0386469 26.7761L0 27.4468H14.4701C14.2659 27.0128 14.1446 26.5787 14.0999 26.1702H1.39129C1.85724 23.6234 4.09183 22.7298 6.26204 21.8617C7.54666 21.3479 8.77745 20.8548 9.54328 20.0266C9.74638 20.2151 9.98881 20.3742 10.2464 20.5066C10.9348 20.8603 11.8198 21.0638 12.8046 21.0638C13.797 21.0638 14.685 20.8401 15.369 20.4792C15.609 20.3525 15.8344 20.2058 16.0285 20.0366C16.3156 20.3382 16.6631 20.5972 17.0557 20.8282C17.2791 20.5346 17.4009 19.9984 17.3562 19.5005C17.0306 19.2707 16.7748 19.009 16.6344 18.7027V16.4362C17.1769 15.849 17.7131 14.6296 17.9109 13.519C18.3641 13.2956 18.9263 12.7275 19.0604 11.2849C19.1178 10.5701 18.9197 10.04 18.6452 9.70167C18.8767 8.97043 19.0828 8.01614 19.1688 7.02133H19.1875C19.1875 7.02133 20.2292 3.99899 19.8258 3.19155C19.1875 1.91495 17.0122 0.63836 16.6344 0.63836C14.9727 0.63836 13.4355 0.878431 12.0466 1.24549C11.8668 0.749705 11.5104 0.394585 11.1752 0.226958C10.7038 -0.00873721 10.2514 6.38343e-05 10.2514 6.38343e-05ZM16.4685 1.9162C16.9856 2.13897 18.24 2.99839 18.6427 3.68648C18.6664 4.01648 18.5003 4.86325 18.25 5.74473H6.44156C6.36688 5.74218 6.11675 5.7097 5.93292 5.60885C7.38313 4.5097 11.2926 1.96982 16.4685 1.9162ZM8.00738 7.02133H17.886C17.7894 8.01052 17.5634 8.97811 17.3113 9.67674L17.1068 10.2066L17.6105 10.4559C17.6679 10.5006 17.8221 10.7169 17.7838 11.1765C17.7008 12.1212 17.4001 12.3705 17.3362 12.3833H16.7553L16.6979 12.9642C16.583 14.1706 15.9067 15.4211 15.6769 15.5934L15.3578 15.7792V18.8298C15.3578 18.8227 15.2381 19.1055 14.7731 19.3509C14.3081 19.5963 13.5994 19.7873 12.8046 19.7873C12.0021 19.7873 11.2904 19.6075 10.8298 19.3709C10.3693 19.1342 10.2514 18.8846 10.2514 18.8298C10.2524 18.7314 10.2306 18.6342 10.1878 18.5456V16.1495L10.2003 15.7854L9.88113 15.5997C9.63858 15.421 8.96253 14.1706 8.84764 12.9642L8.83392 12.3895H8.25297C8.16361 12.3512 7.87668 12.0508 7.76179 11.1827C7.7554 11.1444 7.75555 11.1063 7.75555 11.068C7.75555 10.6148 7.99242 10.4235 7.99242 10.4235L8.36143 10.1742L8.25297 9.73409C7.997 8.73528 7.92225 7.82786 8.00738 7.02133ZM21.2832 15.9575C19.7436 15.9849 18.3141 16.9752 18.6128 19.2686C18.7443 20.2759 18.4405 21.4565 17.6541 22.0163C16.7637 22.6501 15.3418 23.519 15.3578 25.8149C15.3578 27.1802 17.0488 30 21.6535 30C24.6726 30 28.1224 28.2601 28.1224 23.3478C28.1224 19.781 25.4434 15.9575 21.3443 15.9575H21.2832ZM21.2832 17.2341H21.3443C24.636 17.2341 26.8459 20.395 26.8459 23.3478C26.8459 28.3354 22.8713 28.7234 21.6535 28.7234C17.8703 28.7234 16.6344 26.56 16.6344 25.8062C16.6241 24.3024 17.409 23.751 18.2401 23.167L18.3947 23.0573C19.7459 22.096 20.0378 20.3271 19.8782 19.1041C19.8208 18.6643 19.8219 18.0608 20.1487 17.6816C20.4736 17.3044 21.0132 17.2392 21.2832 17.2341ZM22.379 18.5107C22.0405 18.5107 21.7157 18.6452 21.4763 18.8846C21.2369 19.124 21.1024 19.4487 21.1024 19.7873C21.1024 20.1258 21.2369 20.4505 21.4763 20.6899C21.7157 20.9294 22.0405 21.0638 22.379 21.0638C22.7176 21.0638 23.0423 20.9294 23.2817 20.6899C23.5211 20.4505 23.6556 20.1258 23.6556 19.7873C23.6556 19.4487 23.5211 19.124 23.2817 18.8846C23.0423 18.6452 22.7176 18.5107 22.379 18.5107ZM24.6131 22.3404C24.0846 22.3404 23.6556 22.7694 23.6556 23.2979C23.6556 23.8264 24.0846 24.2553 24.6131 24.2553C25.1416 24.2553 25.5705 23.8264 25.5705 23.2979C25.5705 22.7694 25.1416 22.3404 24.6131 22.3404ZM18.8684 24.8936C18.3399 24.8936 17.9109 25.3226 17.9109 25.8511C17.9109 26.3796 18.3399 26.8085 18.8684 26.8085C19.3969 26.8085 19.8258 26.3796 19.8258 25.8511C19.8258 25.3226 19.3969 24.8936 18.8684 24.8936ZM23.9748 24.8936C23.4463 24.8936 23.0173 25.3226 23.0173 25.8511C23.0173 26.3796 23.4463 26.8085 23.9748 26.8085C24.5033 26.8085 24.9322 26.3796 24.9322 25.8511C24.9322 25.3226 24.5033 24.8936 23.9748 24.8936ZM21.4216 26.1702C20.8931 26.1702 20.4641 26.5992 20.4641 27.1277C20.4641 27.6562 20.8931 28.0851 21.4216 28.0851C21.9501 28.0851 22.379 27.6562 22.379 27.1277C22.379 26.5992 21.9501 26.1702 21.4216 26.1702Z" fill="#432FD8"/>
</svg>
