<svg width="20" height="16" viewBox="0 0 20 16" fill="none" xmlns="http://www.w3.org/2000/svg">
<path d="M0.920846 9.07982e-05C0.800537 -0.00161068 0.681089 0.0206163 0.569444 0.0654798C0.457799 0.110343 0.356184 0.176949 0.270505 0.261425C0.184825 0.345902 0.116789 0.446565 0.0703516 0.557564C0.0239138 0.668563 0 0.787685 0 0.908006C0 1.02833 0.0239138 1.14745 0.0703516 1.25845C0.116789 1.36945 0.184825 1.47011 0.270505 1.55459C0.356184 1.63906 0.457799 1.70567 0.569444 1.75053C0.681089 1.7954 0.800537 1.81762 0.920846 1.81592H19.0792C19.1995 1.81762 19.3189 1.7954 19.4306 1.75053C19.5422 1.70567 19.6438 1.63906 19.7295 1.55459C19.8152 1.47011 19.8832 1.36945 19.9296 1.25845C19.9761 1.14745 20 1.02833 20 0.908006C20 0.787685 19.9761 0.668563 19.9296 0.557564C19.8832 0.446565 19.8152 0.345902 19.7295 0.261425C19.6438 0.176949 19.5422 0.110343 19.4306 0.0654798C19.3189 0.0206163 19.1995 -0.00161068 19.0792 9.07982e-05H0.920846ZM0.920846 6.80946C0.800537 6.80775 0.681089 6.82998 0.569444 6.87485C0.457799 6.91971 0.356184 6.98631 0.270505 7.07079C0.184825 7.15527 0.116789 7.25593 0.0703516 7.36693C0.0239138 7.47793 0 7.59705 0 7.71737C0 7.83769 0.0239138 7.95682 0.0703516 8.06781C0.116789 8.17881 0.184825 8.27948 0.270505 8.36395C0.356184 8.44843 0.457799 8.51504 0.569444 8.5599C0.681089 8.60476 0.800537 8.62699 0.920846 8.62529H19.0792C19.1995 8.62699 19.3189 8.60476 19.4306 8.5599C19.5422 8.51504 19.6438 8.44843 19.7295 8.36395C19.8152 8.27948 19.8832 8.17881 19.9296 8.06781C19.9761 7.95682 20 7.83769 20 7.71737C20 7.59705 19.9761 7.47793 19.9296 7.36693C19.8832 7.25593 19.8152 7.15527 19.7295 7.07079C19.6438 6.98631 19.5422 6.91971 19.4306 6.87485C19.3189 6.82998 19.1995 6.80775 19.0792 6.80946H0.920846ZM0.920846 13.6188C0.800537 13.6171 0.681089 13.6393 0.569444 13.6842C0.457799 13.7291 0.356184 13.7957 0.270505 13.8802C0.184825 13.9646 0.116789 14.0653 0.0703516 14.1763C0.0239138 14.2873 0 14.4064 0 14.5267C0 14.6471 0.0239138 14.7662 0.0703516 14.8772C0.116789 14.9882 0.184825 15.0888 0.270505 15.1733C0.356184 15.2578 0.457799 15.3244 0.569444 15.3693C0.681089 15.4141 0.800537 15.4364 0.920846 15.4347H19.0792C19.1995 15.4364 19.3189 15.4141 19.4306 15.3693C19.5422 15.3244 19.6438 15.2578 19.7295 15.1733C19.8152 15.0888 19.8832 14.9882 19.9296 14.8772C19.9761 14.7662 20 14.6471 20 14.5267C20 14.4064 19.9761 14.2873 19.9296 14.1763C19.8832 14.0653 19.8152 13.9646 19.7295 13.8802C19.6438 13.7957 19.5422 13.7291 19.4306 13.6842C19.3189 13.6393 19.1995 13.6171 19.0792 13.6188H0.920846Z" fill="#393940"/>
</svg>
