<svg width="18" height="13" viewBox="0 0 18 13" fill="none" xmlns="http://www.w3.org/2000/svg">
  <path
    d="M1.6153 8.66406C0.335938 8.66406 0.335938 9.43842 0.335938 9.84041C0.335938 12.5541 3.16972 12.8032 6.66541 12.8032H11.333C14.8287 12.8032 17.6625 12.3296 17.6625 9.84041C17.6625 9.43842 17.54 8.66406 16.3953 8.66406H1.6153Z"
    fill="#393940" />
  <path
    d="M16.3827 4.13867C17.6621 4.13867 17.6621 3.36431 17.6621 2.96233C17.6621 0.248653 14.8283 -0.000466118 11.3326 -0.000466423L6.665 -0.000466831C3.16931 -0.000467137 0.335532 0.473085 0.335531 2.96232C0.335531 3.36431 0.458073 4.13867 1.60279 4.13867L16.3827 4.13867Z"
    fill="#393940" />
  <path
    d="M18 6.58381C18 7.02822 17.6364 7.39181 17.192 7.39181H0.808007C0.363591 7.39181 0 7.02822 0 6.58381V5.97793C0 5.53351 0.363591 5.16992 0.808007 5.16992H17.192C17.6364 5.16992 18 5.53351 18 5.97793V6.58381Z"
    fill="#393940" />
</svg>