<svg width="20" height="14" viewBox="0 0 20 14" fill="none" xmlns="http://www.w3.org/2000/svg">
<path d="M0.440702 4.34553e-05C0.383124 -0.000770844 0.325958 0.00986641 0.272527 0.0313374C0.219095 0.0528083 0.170464 0.0846847 0.129459 0.125114C0.0884542 0.165543 0.0558935 0.213718 0.0336691 0.266841C0.0114447 0.319963 0 0.376973 0 0.434557C0 0.492141 0.0114447 0.549151 0.0336691 0.602273C0.0558935 0.655396 0.0884542 0.703571 0.129459 0.744C0.170464 0.784429 0.219095 0.816306 0.272527 0.837777C0.325958 0.859248 0.383124 0.869885 0.440702 0.86907H19.5593C19.6169 0.869885 19.674 0.859248 19.7275 0.837777C19.7809 0.816306 19.8295 0.784429 19.8705 0.744C19.9115 0.703571 19.9441 0.655396 19.9663 0.602273C19.9886 0.549151 20 0.492141 20 0.434557C20 0.376973 19.9886 0.319963 19.9663 0.266841C19.9441 0.213718 19.9115 0.165543 19.8705 0.125114C19.8295 0.0846847 19.7809 0.0528083 19.7275 0.0313374C19.674 0.00986641 19.6169 -0.000770844 19.5593 4.34553e-05H0.440702ZM0.440702 6.51775C0.383124 6.51693 0.325958 6.52757 0.272527 6.54904C0.219095 6.57051 0.170464 6.60239 0.129459 6.64282C0.0884542 6.68325 0.0558935 6.73142 0.0336691 6.78454C0.0114447 6.83767 0 6.89468 0 6.95226C0 7.00984 0.0114447 7.06685 0.0336691 7.11998C0.0558935 7.1731 0.0884542 7.22127 0.129459 7.2617C0.170464 7.30213 0.219095 7.33401 0.272527 7.35548C0.325958 7.37695 0.383124 7.38759 0.440702 7.38677H19.5593C19.6169 7.38759 19.674 7.37695 19.7275 7.35548C19.7809 7.33401 19.8295 7.30213 19.8705 7.2617C19.9115 7.22127 19.9441 7.1731 19.9663 7.11998C19.9886 7.06685 20 7.00984 20 6.95226C20 6.89468 19.9886 6.83767 19.9663 6.78454C19.9441 6.73142 19.9115 6.68325 19.8705 6.64282C19.8295 6.60239 19.7809 6.57051 19.7275 6.54904C19.674 6.52757 19.6169 6.51693 19.5593 6.51775H0.440702ZM0.440702 13.0354C0.383124 13.0346 0.325958 13.0453 0.272527 13.0667C0.219095 13.0882 0.170464 13.1201 0.129459 13.1605C0.0884542 13.2009 0.0558935 13.2491 0.0336691 13.3022C0.0114447 13.3554 0 13.4124 0 13.47C0 13.5275 0.0114447 13.5846 0.0336691 13.6377C0.0558935 13.6908 0.0884542 13.739 0.129459 13.7794C0.170464 13.8198 0.219095 13.8517 0.272527 13.8732C0.325958 13.8947 0.383124 13.9053 0.440702 13.9045H19.5593C19.6169 13.9053 19.674 13.8947 19.7275 13.8732C19.7809 13.8517 19.8295 13.8198 19.8705 13.7794C19.9115 13.739 19.9441 13.6908 19.9663 13.6377C19.9886 13.5846 20 13.5275 20 13.47C20 13.4124 19.9886 13.3554 19.9663 13.3022C19.9441 13.2491 19.9115 13.2009 19.8705 13.1605C19.8295 13.1201 19.7809 13.0882 19.7275 13.0667C19.674 13.0453 19.6169 13.0346 19.5593 13.0354H0.440702Z" fill="#393940"/>
</svg>
