<svg width="30" height="30" viewBox="0 0 30 30" fill="none" xmlns="http://www.w3.org/2000/svg">
<path d="M5.46344 0C2.44941 0 0.00889863 2.51526 0.00889863 5.57972C0.00889863 5.6066 0.0111868 5.90854 0.011562 6.00719C-0.00428968 6.09217 -0.0038378 6.17939 0.0128937 6.2642C0.014438 6.61441 0.0146086 6.86035 0.0182204 7.39213C0.0211249 7.81938 0.0244931 8.2468 0.0288738 8.58132C0.0310624 8.74858 0.0328935 8.89221 0.0355322 9.00346C0.0381708 9.11472 0.0333846 9.14107 0.0488489 9.27113C0.20973 10.6311 0.819171 12.1565 1.73741 13.4073C2.65593 14.6585 3.9283 15.6818 5.46344 15.6818C6.98637 15.6818 8.24771 14.6692 9.16284 13.4326C10.078 12.1961 10.6915 10.6889 10.8687 9.3497C10.8859 9.21841 10.8814 9.18363 10.8847 9.06871C10.888 8.9538 10.8899 8.80635 10.8927 8.63592C10.8981 8.29506 10.9037 7.86268 10.9073 7.42942C10.9098 7.14308 10.9098 7.07622 10.9113 6.81818H13.6453C13.7356 6.81946 13.8253 6.80277 13.9092 6.76908C13.993 6.73539 14.0693 6.68537 14.1337 6.62193C14.198 6.55849 14.2491 6.48289 14.284 6.39954C14.3188 6.31618 14.3368 6.22672 14.3368 6.13636C14.3368 6.04601 14.3188 5.95655 14.284 5.87319C14.2491 5.78983 14.198 5.71424 14.1337 5.6508C14.0693 5.58736 13.993 5.53734 13.9092 5.50365C13.8253 5.46996 13.7356 5.45327 13.6453 5.45455H10.9113C10.8453 2.44766 8.4359 0 5.46344 0ZM23.1907 0C20.8382 0 18.8072 1.40406 18.0518 3.40909H17.7362C17.5553 3.40911 17.3819 3.48095 17.2541 3.60881C17.1262 3.73667 17.0544 3.91009 17.0544 4.09091V6.81818C17.0544 6.99901 17.1262 7.17242 17.2541 7.30028C17.3819 7.42814 17.5553 7.49998 17.7362 7.5H17.7415C17.743 7.69826 17.743 7.7794 17.7455 8.01403C17.7484 8.28695 17.7517 8.5601 17.7561 8.77974C17.7606 8.99938 17.7552 9.095 17.7761 9.27113C17.937 10.6311 18.5464 12.1565 19.4647 13.4073C20.3832 14.6585 21.6556 15.6818 23.1907 15.6818C24.7136 15.6818 25.975 14.6692 26.8901 13.4326C27.8052 12.1961 28.4188 10.6889 28.596 9.3497C28.6185 9.17797 28.6144 9.07024 28.62 8.85565C28.6256 8.64105 28.6309 8.37732 28.6346 8.1139C28.6385 7.8376 28.6382 7.71586 28.6399 7.5H28.6453C28.8261 7.49998 28.9995 7.42814 29.1274 7.30028C29.2552 7.17242 29.3271 6.99901 29.3271 6.81818V4.09091C29.3271 3.91009 29.2552 3.73667 29.1274 3.60881C28.9995 3.48095 28.8261 3.40911 28.6453 3.40909H28.3323C27.5775 1.40295 25.5442 0 23.1907 0ZM5.46344 1.36364C7.68053 1.36364 9.48325 3.16772 9.54769 5.45455H1.37919C1.44364 3.16772 3.24635 1.36364 5.46344 1.36364ZM23.1907 1.36364C24.7943 1.36364 26.1458 2.21152 26.8182 3.40909H19.5619C20.2348 2.21122 21.5871 1.36364 23.1907 1.36364ZM18.418 4.77273H27.9634V6.13636H18.418V4.77273ZM5.46344 7.5C6.54427 8.69969 8.4934 9.21636 9.53438 8.2231C9.53265 8.34982 9.53081 8.50525 9.52905 8.61461C9.52639 8.78182 9.52407 8.92403 9.52106 9.02876C9.51806 9.1335 9.50702 9.248 9.51707 9.17125C9.37793 10.2225 8.83328 11.586 8.06687 12.6216C7.3005 13.6572 6.35619 14.3182 5.46344 14.3182C4.55905 14.3182 3.60503 13.6478 2.83605 12.6003C2.06706 11.5528 1.52886 10.1743 1.40316 9.11C1.41283 9.19131 1.4016 9.07409 1.39917 8.9715C1.39673 8.86891 1.39467 8.72725 1.39251 8.56268C1.39126 8.46683 1.39096 8.32886 1.38985 8.21911C2.42997 9.21673 4.38145 8.70098 5.46344 7.5ZM23.1907 8.18182C24.269 9.37866 26.2108 9.89531 27.2537 8.91158C27.2473 9.05111 27.2382 9.21769 27.2443 9.17125C27.1052 10.2225 26.5605 11.586 25.7941 12.6216C25.0277 13.6572 24.0835 14.3182 23.1907 14.3182C22.2863 14.3182 21.3323 13.6478 20.5633 12.6003C19.7943 11.5528 19.2561 10.1743 19.1304 9.11C19.1357 9.15413 19.1292 9.00007 19.1251 8.90891C20.1673 9.89611 22.1115 9.3797 23.1907 8.18182ZM5.4488 10.4603C4.84171 10.463 4.23878 10.6574 3.70563 11.0343C3.63251 11.086 3.57029 11.1517 3.52255 11.2275C3.4748 11.3033 3.44245 11.3877 3.42735 11.476C3.41225 11.5643 3.41469 11.6548 3.43454 11.7421C3.45439 11.8295 3.49125 11.9121 3.54302 11.9852C3.5948 12.0583 3.66046 12.1205 3.73628 12.1682C3.81209 12.216 3.89656 12.2483 3.98487 12.2634C4.07318 12.2784 4.16359 12.276 4.25095 12.2561C4.3383 12.2362 4.42089 12.1993 4.49398 12.1475C5.21405 11.6386 5.68697 11.6237 6.43557 12.1489C6.50869 12.2033 6.59198 12.2424 6.6805 12.2641C6.76902 12.2857 6.86098 12.2894 6.95095 12.2749C7.04092 12.2604 7.12707 12.228 7.20431 12.1797C7.28155 12.1313 7.34832 12.068 7.40066 11.9934C7.45301 11.9188 7.48986 11.8344 7.50906 11.7454C7.52826 11.6563 7.52941 11.5642 7.51243 11.4747C7.49546 11.3852 7.46071 11.3 7.41024 11.2241C7.35977 11.1482 7.29461 11.0832 7.21859 11.0329C6.66766 10.6464 6.05588 10.4576 5.4488 10.4603ZM23.1761 10.4603C22.569 10.463 21.9661 10.6574 21.4329 11.0343C21.3598 11.086 21.2976 11.1517 21.2498 11.2275C21.2021 11.3033 21.1697 11.3877 21.1546 11.476C21.1395 11.5643 21.142 11.6548 21.1618 11.7421C21.1817 11.8295 21.2185 11.9121 21.2703 11.9852C21.3221 12.0583 21.3877 12.1205 21.4635 12.1682C21.5394 12.216 21.6238 12.2483 21.7121 12.2634C21.8005 12.2784 21.8909 12.276 21.9782 12.2561C22.0656 12.2362 22.1482 12.1993 22.2213 12.1475C22.9413 11.6386 23.4142 11.6237 24.1628 12.1489C24.236 12.2033 24.3192 12.2424 24.4078 12.2641C24.4963 12.2857 24.5883 12.2894 24.6782 12.2749C24.7682 12.2604 24.8543 12.228 24.9316 12.1797C25.0088 12.1313 25.0756 12.068 25.1279 11.9934C25.1803 11.9188 25.2171 11.8344 25.2363 11.7454C25.2555 11.6563 25.2567 11.5642 25.2397 11.4747C25.2227 11.3852 25.188 11.3 25.1375 11.2241C25.087 11.1482 25.0219 11.0832 24.9459 11.0329C24.3949 10.6464 23.7831 10.4576 23.1761 10.4603ZM12.6292 13.6483C11.7232 13.6422 10.7596 14.2831 10.2681 15.5766C9.51398 17.563 9.35581 17.9752 8.75801 19.5477C8.2001 19.3722 7.64351 19.1722 7.08809 18.9418C7.00438 18.9056 6.91427 18.8866 6.82309 18.8858C6.66457 18.8853 6.51084 18.9401 6.3883 19.0406C6.26577 19.1412 6.18211 19.2813 6.15169 19.4369C6.12127 19.5924 6.146 19.7537 6.22162 19.893C6.29725 20.0323 6.41904 20.141 6.56607 20.2002C7.33074 20.5175 8.10032 20.7799 8.87387 20.9992C8.87462 21.2258 8.8768 21.7588 8.88186 22.4361C8.88479 22.8227 8.88813 23.2089 8.89251 23.5121C8.89469 23.6636 8.89651 23.7941 8.89917 23.8956C8.90183 23.9971 8.89433 24.0118 8.91249 24.1499C9.07692 25.4098 9.69563 26.802 10.621 27.9426C11.5464 29.0831 12.822 30 14.3271 30C15.8201 30 17.0846 29.0909 18.0065 27.9639C18.9284 26.8368 19.5497 25.4637 19.731 24.2245V24.2232C19.7513 24.0838 19.745 24.0605 19.7483 23.9555C19.7517 23.8506 19.7536 23.7172 19.7563 23.5627C19.7618 23.2537 19.7673 22.8616 19.771 22.4694C19.7776 21.7636 19.7797 21.182 19.7803 20.9632C20.5433 20.7519 21.3077 20.503 22.0734 20.2069C22.2421 20.1415 22.3779 20.0119 22.4509 19.8464C22.524 19.681 22.5283 19.4933 22.463 19.3246C22.3976 19.156 22.268 19.0202 22.1025 18.9471C21.9371 18.8741 21.7494 18.8698 21.5807 18.9351C21.0121 19.155 20.4462 19.3466 19.8828 19.517C19.2978 17.9767 19.133 17.5455 18.3847 15.5766V15.5753C17.8934 14.2825 16.9294 13.6422 16.0236 13.6483C15.3366 13.653 14.7899 13.9382 14.3271 14.2556C13.8642 13.938 13.3166 13.653 12.6292 13.6483ZM12.6199 15.012C13.0025 15.0146 13.5499 15.2988 13.8823 15.5846C14.0059 15.6907 14.1635 15.7491 14.3264 15.7491C14.4893 15.7491 14.6469 15.6907 14.7705 15.5846C15.1028 15.2989 15.6502 15.0146 16.033 15.012C16.4157 15.0094 16.7464 15.1016 17.1103 16.06C17.8288 17.9506 18.0224 18.4599 18.5472 19.842C18.2169 19.9333 17.887 20.0122 17.5564 20.0817C16.0504 20.3566 14.5609 20.4495 13.0846 20.3573C12.0969 20.2756 11.1053 20.1061 10.107 19.838C10.6307 18.4599 10.8253 17.9492 11.5425 16.06C11.9068 15.1015 12.2373 15.0094 12.6199 15.012ZM14.3271 22.5C15.4079 23.6997 17.357 24.2164 18.398 23.2231C18.3966 23.324 18.3956 23.4506 18.394 23.5387C18.3914 23.6896 18.3877 23.8192 18.3847 23.9129C18.3817 24.0066 18.3689 24.1175 18.382 24.0274C18.2467 24.9501 17.7099 26.1725 16.9505 27.1009C16.1908 28.0297 15.2498 28.6364 14.3271 28.6364C13.3926 28.6364 12.4418 28.0229 11.6797 27.0836C10.9176 26.1443 10.3874 24.907 10.2655 23.9728C10.2778 24.0668 10.2652 23.9516 10.2628 23.8596C10.2604 23.7677 10.2583 23.6407 10.2561 23.4921C10.2551 23.4164 10.2545 23.306 10.2535 23.2204C11.2938 24.2172 13.2453 23.7007 14.3271 22.5ZM14.3124 24.7785C13.7053 24.7812 13.1024 24.9756 12.5693 25.3525C12.4961 25.4042 12.4339 25.4699 12.3862 25.5457C12.3384 25.6215 12.3061 25.7059 12.291 25.7942C12.2759 25.8825 12.2783 25.9729 12.2982 26.0603C12.318 26.1477 12.3549 26.2303 12.4067 26.3034C12.4584 26.3765 12.5241 26.4387 12.5999 26.4864C12.6757 26.5341 12.7602 26.5665 12.8485 26.5815C12.9368 26.5966 13.0272 26.5941 13.1146 26.5743C13.2019 26.5544 13.2845 26.5175 13.3576 26.4657C14.0777 25.9567 14.5506 25.9419 15.2992 26.4671C15.3723 26.5214 15.4556 26.5606 15.5441 26.5823C15.6327 26.6039 15.7246 26.6076 15.8146 26.5931C15.9046 26.5786 15.9907 26.5462 16.0679 26.4979C16.1452 26.4495 16.212 26.3862 16.2643 26.3116C16.3166 26.237 16.3535 26.1526 16.3727 26.0635C16.3919 25.9745 16.393 25.8824 16.3761 25.7929C16.3591 25.7034 16.3243 25.6181 16.2739 25.5423C16.2234 25.4664 16.1582 25.4014 16.0822 25.3511C15.5313 24.9646 14.9195 24.7757 14.3124 24.7785Z" fill="#432FD8"/>
</svg>
