<svg width="26" height="27" viewBox="0 0 26 27" fill="none" xmlns="http://www.w3.org/2000/svg">
<path d="M10.1801 0.160156C7.62434 0.160156 5.54007 2.24442 5.54007 4.80016C5.54007 6.51021 6.47746 7.998 7.86007 8.80125V17.7584L4.86152 14.7587C3.96025 13.8574 2.48103 13.8574 1.57976 14.7587C0.678492 15.66 0.678492 17.1392 1.57976 18.0405L8.17046 24.6312C9.58404 26.0447 11.5013 26.8384 13.5003 26.839L17.7201 26.8402C20.5959 26.8402 22.9401 24.4972 22.9401 21.6213V14.0802C22.9401 12.8057 21.8945 11.7602 20.6201 11.7602C20.1396 11.7602 19.6924 11.9088 19.3207 12.1623C19.0032 11.2581 18.1481 10.6002 17.1401 10.6002C16.5586 10.6002 16.0398 10.8372 15.6312 11.1949C15.2271 10.5068 14.5102 10.0202 13.6601 10.0202C13.2293 10.0202 12.847 10.1719 12.5001 10.3793V8.80125C13.7238 8.09044 14.5929 6.84424 14.777 5.38016H23.289L21.3689 7.31953C21.3135 7.37321 21.2693 7.43741 21.239 7.50836C21.2087 7.57931 21.1929 7.65559 21.1925 7.73274C21.192 7.80988 21.207 7.88634 21.2364 7.95764C21.2659 8.02894 21.3093 8.09364 21.364 8.14797C21.4188 8.20229 21.4839 8.24514 21.5554 8.27402C21.627 8.30289 21.7035 8.3172 21.7807 8.31611C21.8578 8.31502 21.934 8.29856 22.0047 8.26768C22.0754 8.2368 22.1392 8.19214 22.1924 8.13629L25.0426 5.25894C25.0831 5.22761 25.1193 5.19104 25.1502 5.1502L25.4968 4.80016L25.1479 4.44785C25.1173 4.40748 25.0815 4.3713 25.0414 4.34023L22.2547 1.52633C22.201 1.47049 22.1366 1.42599 22.0654 1.39544C21.9942 1.3649 21.9176 1.34893 21.8401 1.34848C21.7247 1.34784 21.6118 1.38163 21.5157 1.44553C21.4196 1.50944 21.3448 1.60054 21.3007 1.70721C21.2567 1.81387 21.2455 1.93124 21.2685 2.04431C21.2916 2.15738 21.3478 2.26101 21.43 2.34195L23.289 4.22016H14.7804C14.4931 1.93692 12.5391 0.160156 10.1801 0.160156ZM10.1801 1.32016C12.0859 1.32016 13.6203 2.83537 13.6567 4.73219C13.6512 4.77618 13.6509 4.82065 13.6555 4.86473V4.86699C13.6364 5.87136 13.1952 6.76528 12.5001 7.38637V4.80016C12.5001 3.5257 11.4545 2.48016 10.1801 2.48016C8.90562 2.48016 7.86007 3.5257 7.86007 4.80016V7.3875C7.14929 6.7526 6.70007 5.83257 6.70007 4.80016C6.70007 2.87133 8.25125 1.32016 10.1801 1.32016ZM10.1801 3.64016C10.8277 3.64016 11.3401 4.15249 11.3401 4.80016V8.44895V12.3402V13.5002C11.3387 13.5972 11.3617 13.693 11.4069 13.7788C11.4159 13.7959 11.4257 13.8126 11.4364 13.8287C11.4472 13.8451 11.459 13.861 11.4715 13.8762C11.4836 13.8908 11.4965 13.9048 11.51 13.9182C11.5237 13.9321 11.538 13.9453 11.553 13.9578C11.5829 13.9821 11.6152 14.0034 11.6493 14.0212C11.7009 14.0487 11.7562 14.0681 11.8136 14.079C11.8517 14.0859 11.8904 14.0889 11.9291 14.0881C11.9484 14.0879 11.9677 14.0868 11.9869 14.0847C12.0444 14.078 12.1005 14.0627 12.1534 14.0394C12.1712 14.0316 12.1886 14.0229 12.2055 14.0133C12.2223 14.0036 12.2386 13.993 12.2543 13.9816C12.2703 13.9707 12.2858 13.959 12.3007 13.9465C12.3153 13.9336 12.3293 13.92 12.3426 13.9057C12.3558 13.8916 12.3683 13.8769 12.38 13.8615C12.3917 13.8462 12.4027 13.8303 12.4128 13.8139C12.4231 13.7978 12.4326 13.7812 12.4412 13.7641C12.4667 13.7119 12.4843 13.6561 12.4933 13.5987C12.4961 13.5796 12.498 13.5603 12.4989 13.5409C12.4998 13.5274 12.5002 13.5138 12.5001 13.5002V12.3402C12.5001 11.6925 13.0124 11.1802 13.6601 11.1802C14.3077 11.1802 14.8201 11.6925 14.8201 12.3402V12.9202V13.5002C14.8199 13.5194 14.8206 13.5387 14.8223 13.5579C14.824 13.5773 14.8267 13.5966 14.8303 13.6157C14.8482 13.7113 14.8899 13.8009 14.9515 13.8762C15.0005 13.9359 15.061 13.9852 15.1293 14.0212C15.1636 14.0395 15.1997 14.0543 15.2369 14.0654C15.2556 14.0709 15.2745 14.0754 15.2936 14.079C15.3127 14.0823 15.332 14.0845 15.3514 14.0858C15.3898 14.0893 15.4285 14.0889 15.4669 14.0847C15.5438 14.0757 15.6182 14.0515 15.6855 14.0133C15.7023 14.0036 15.7186 13.993 15.7343 13.9816C15.7503 13.9707 15.7658 13.959 15.7807 13.9465C15.7953 13.9336 15.8093 13.92 15.8226 13.9057C15.849 13.8775 15.8725 13.8468 15.8928 13.8139C15.9132 13.7814 15.9303 13.7468 15.9438 13.7109C15.9574 13.6746 15.9672 13.637 15.9733 13.5987C15.9761 13.5796 15.978 13.5603 15.9789 13.5409C15.9798 13.5274 15.9802 13.5138 15.9801 13.5002V12.9202C15.9801 12.2725 16.4924 11.7602 17.1401 11.7602C17.7877 11.7602 18.3001 12.2725 18.3001 12.9202V14.0802V14.6602C18.299 14.737 18.3132 14.8133 18.3418 14.8846C18.3705 14.956 18.4131 15.0209 18.467 15.0756C18.521 15.1303 18.5853 15.1738 18.6562 15.2035C18.7271 15.2331 18.8032 15.2484 18.8801 15.2484C18.9569 15.2484 19.033 15.2331 19.1039 15.2035C19.1749 15.1738 19.2392 15.1303 19.2931 15.0756C19.3471 15.0209 19.3896 14.956 19.4183 14.8846C19.447 14.8133 19.4612 14.737 19.4601 14.6602V14.0802C19.4601 13.4325 19.9724 12.9202 20.6201 12.9202C21.2677 12.9202 21.7801 13.4325 21.7801 14.0802V21.6213C21.7801 23.8702 19.9691 25.6802 17.7201 25.6802L13.5003 25.679C11.8083 25.6785 10.187 25.0074 8.99062 23.811L2.39992 17.2203C1.94166 16.7621 1.94166 16.0383 2.39992 15.58C2.85817 15.1217 3.58198 15.1217 4.04023 15.58L7.98242 19.5222C8.05705 19.618 8.15987 19.688 8.2764 19.7223C8.39293 19.7565 8.51727 19.7534 8.63189 19.7132C8.74652 19.673 8.84564 19.5979 8.91529 19.4984C8.98493 19.3989 9.02158 19.28 9.02007 19.1586V8.47273V4.80016C9.02007 4.15249 9.53241 3.64016 10.1801 3.64016Z" fill="#432FD8"/>
</svg>
