<svg width="26" height="30" viewBox="0 0 26 30" fill="none" xmlns="http://www.w3.org/2000/svg">
<path d="M11.5342 0C10.4163 0 9.69198 0.43459 9.27582 0.860405L7.66956 2.50181C7.5018 2.60953 7.3503 2.72799 7.22179 2.85847L2.12054 8.04173C2.0748 8.08665 2.03578 8.13795 2.00469 8.19402L1.13647 9.05052C1.13341 9.05353 1.13037 9.05657 1.12736 9.05963C-0.219288 10.4411 0.0157333 12.2723 0.0157333 13.579C0.015634 13.6108 0.017809 13.6426 0.0222417 13.6741V29.3241C0.0209927 29.4124 0.0373084 29.5 0.0702405 29.582C0.103173 29.6639 0.152064 29.7385 0.214074 29.8014C0.276084 29.8643 0.349976 29.9143 0.431455 29.9484C0.512934 29.9824 0.600375 30 0.688697 30C0.77702 30 0.864461 29.9824 0.94594 29.9484C1.02742 29.9143 1.10131 29.8643 1.16332 29.8014C1.22533 29.7385 1.27422 29.6639 1.30715 29.582C1.34009 29.5 1.3564 29.4124 1.35515 29.3241V13.3291C1.35542 13.2907 1.35237 13.2524 1.34604 13.2146C1.33175 11.9392 1.28548 10.8069 2.08149 9.99033L5.04018 7.07198C5.08186 7.04427 5.12029 7.01196 5.15473 6.97566L5.64416 6.47451L6.33014 5.79895C6.33145 5.79808 6.33275 5.79721 6.33405 5.79634C6.61372 5.51611 6.8189 5.33165 7.68128 5.33165H13.6755C14.4188 5.33165 15.0071 5.92008 15.0071 6.66456C15.0071 7.40903 14.4188 7.99747 13.6755 7.99747H12.1135C12.076 7.99121 12.0382 7.98817 12.0002 7.98836C11.9679 7.98906 11.9357 7.9921 11.9039 7.99747H8.17591C8.00595 7.99774 7.84252 8.06293 7.71902 8.1797L4.8931 10.8455C4.77889 10.9536 4.70658 11.0986 4.68896 11.2549C4.67133 11.4111 4.70952 11.5686 4.79677 11.6994C7.3822 15.5805 7.99927 19.1053 7.35586 23.2231C7.34235 23.3096 7.34602 23.3979 7.36664 23.483C7.38727 23.5681 7.42445 23.6483 7.47606 23.719C7.52767 23.7897 7.5927 23.8495 7.66745 23.8951C7.74219 23.9407 7.82518 23.9711 7.91167 23.9846C7.99817 23.9981 8.08647 23.9944 8.17155 23.9738C8.25663 23.9532 8.33681 23.916 8.40752 23.8644C8.47823 23.8128 8.53808 23.7477 8.58366 23.673C8.62924 23.5983 8.65965 23.5153 8.67315 23.4288C9.32805 19.2374 8.65319 15.4008 6.18175 11.4625L8.44145 9.33038H11.3442V12.3841C11.3442 12.5265 11.3898 12.6652 11.4743 12.7798L14.0061 16.211L14.0074 16.2136C14.5274 17.3471 14.6114 18.9354 14.6114 18.9354C14.6179 19.1122 14.6944 19.2791 14.8241 19.3994C14.8882 19.459 14.9635 19.5054 15.0456 19.5359C15.1277 19.5664 15.215 19.5804 15.3026 19.5771C15.3901 19.5739 15.4761 19.5534 15.5557 19.5169C15.6353 19.4804 15.707 19.4286 15.7666 19.3644C15.8262 19.3003 15.8725 19.225 15.903 19.1429C15.9335 19.0608 15.9475 18.9735 15.9443 18.8859C15.9443 18.8859 15.9098 17.6586 15.4952 16.3828L18.2508 15.2803C18.3559 15.2387 18.4486 15.1711 18.5203 15.0838L20.7396 12.362L20.7409 12.3607C21.3209 11.6462 21.9661 11.4973 22.7286 11.5888C23.286 11.6556 23.8235 11.9827 24.3414 12.2787L20.8164 17.57L16.2007 22.1883C14.9925 23.3977 13.9034 23.9737 12.025 24.612C11.1441 24.8568 10.2352 24.9674 10.2352 24.9674C10.1481 24.9764 10.0636 25.0025 9.98657 25.0442C9.90956 25.0859 9.84152 25.1424 9.78633 25.2104C9.73114 25.2783 9.68988 25.3565 9.66492 25.4405C9.63995 25.5244 9.63176 25.6125 9.64083 25.6996C9.64989 25.7867 9.67602 25.8711 9.71772 25.9481C9.75943 26.0251 9.8159 26.0932 9.8839 26.1483C9.9519 26.2035 10.0301 26.2448 10.1141 26.2697C10.198 26.2947 10.286 26.3028 10.3731 26.2938C10.3731 26.2938 10.7807 26.2511 11.3442 26.1454V29.3241C11.3429 29.4124 11.3592 29.5 11.3922 29.582C11.4251 29.6639 11.474 29.7385 11.536 29.8014C11.598 29.8643 11.6719 29.9143 11.7534 29.9484C11.8349 29.9824 11.9223 30 12.0106 30C12.099 30 12.1864 29.9824 12.2679 29.9484C12.3494 29.9143 12.4232 29.8643 12.4853 29.8014C12.5473 29.7385 12.5962 29.6639 12.6291 29.582C12.662 29.5 12.6783 29.4124 12.6771 29.3241V25.803C12.833 25.7533 12.9895 25.7141 13.1418 25.6546C13.2389 25.6184 13.3263 25.56 13.3969 25.4841C14.8658 24.9045 16.0364 24.2386 17.1431 23.1307L21.8057 18.4655C21.8368 18.4345 21.8647 18.4005 21.889 18.364L25.8839 12.3659C25.9787 12.2232 26.015 12.0495 25.9852 11.8808C25.9554 11.7122 25.8617 11.5614 25.7237 11.4599C24.9704 10.906 23.9771 10.3956 22.8874 10.265C21.7982 10.1344 20.5703 10.458 19.7074 11.5198L17.5961 14.1075L14.9043 15.1853L12.6771 12.1654V9.33038H13.6755C14.9083 9.33038 15.9441 8.47442 16.2437 7.33101H16.7032C17.9479 7.33101 18.9875 6.4423 19.2609 5.27047C20.4452 5.01024 21.3345 3.93252 21.3345 2.66582C21.3345 1.2089 20.1592 0 18.7103 0H11.5342ZM11.5342 1.33291H18.7103C19.4235 1.33291 20.0016 1.91411 20.0016 2.66582C20.0016 3.23067 19.675 3.69915 19.2102 3.8972C18.881 2.80841 17.8886 1.99937 16.7032 1.99937H10.0256L10.2286 1.7924C10.5016 1.51311 10.6954 1.33291 11.5342 1.33291ZM9.4893 3.33228H16.7032C17.4234 3.33228 18.0035 3.91535 18.0035 4.66519C18.0035 5.41503 17.4234 5.9981 16.7032 5.9981H16.2437C15.9441 4.8547 14.9083 3.99873 13.6755 3.99873H8.06917L8.48311 3.57569C8.7262 3.4429 9.05894 3.33228 9.4893 3.33228Z" fill="#422FD8"/>
</svg>
