<svg width="23" height="30" viewBox="0 0 23 30" fill="none" xmlns="http://www.w3.org/2000/svg">
<path d="M11.7355 0C11.6547 0.00138331 11.5748 0.0177919 11.4999 0.0483886C10.6566 0.128938 9.92611 0.603849 9.5058 1.28739C9.04956 0.89716 8.46639 0.651972 7.82367 0.651972C7.74282 0.653355 7.66294 0.669764 7.58809 0.700361C6.56387 0.798192 5.70715 1.47812 5.3724 2.40797C4.95462 2.12303 4.45197 1.95592 3.91183 1.95592C3.83099 1.9573 3.7511 1.97371 3.67626 2.0043C2.35816 2.13021 1.30394 3.21457 1.30394 4.5638V6.34781C1.0286 6.79602 0 8.61899 0 11.0835V18.2552C0 19.9499 0.826538 21.3418 1.95592 22.381C2.0008 24.2497 1.95592 28.0532 1.95592 29.3387C1.95469 29.4251 1.97066 29.5109 2.00287 29.5911C2.03509 29.6713 2.08292 29.7442 2.14358 29.8057C2.20424 29.8673 2.27653 29.9161 2.35624 29.9495C2.43594 29.9828 2.52149 30 2.60789 30C2.69429 30 2.77983 29.9828 2.85954 29.9495C2.93925 29.9161 3.01153 29.8673 3.0722 29.8057C3.13286 29.7442 3.18069 29.6713 3.21291 29.5911C3.24512 29.5109 3.26108 29.4251 3.25986 29.3387C3.25986 28.0524 3.3138 24.0307 3.25986 22.1479C3.25698 22.055 3.23424 21.9637 3.19317 21.8802C3.1521 21.7968 3.09365 21.7231 3.02174 21.6641C1.97677 20.8043 1.30394 19.6625 1.30394 18.2552V11.0835C1.30394 10.6446 1.3526 10.2343 1.41855 9.84198C1.71501 10.8428 2.6038 11.5869 3.6788 11.6884C3.75294 11.7182 3.83193 11.7342 3.91183 11.7355C3.99268 11.7341 4.07256 11.7177 4.14741 11.6871C4.59438 11.6444 5.00548 11.4839 5.36094 11.2478C5.68648 12.197 6.55219 12.8943 7.59064 12.9923C7.66477 13.0222 7.74376 13.0381 7.82367 13.0394C7.90451 13.0381 7.9844 13.0216 8.05924 12.9911C8.74102 12.9259 9.34837 12.6008 9.77958 12.1188C10.1669 12.5521 10.6988 12.8496 11.2975 12.9541C9.55454 14.5294 8.44253 16.6806 8.44253 18.9072C8.44131 18.9936 8.45727 19.0794 8.48949 19.1595C8.5217 19.2397 8.56953 19.3127 8.63019 19.3742C8.69086 19.4357 8.76314 19.4846 8.84285 19.5179C8.92256 19.5513 9.0081 19.5684 9.0945 19.5684C9.1809 19.5684 9.26645 19.5513 9.34615 19.5179C9.42586 19.4846 9.49815 19.4357 9.55881 19.3742C9.61947 19.3127 9.6673 19.2397 9.69952 19.1595C9.73173 19.0794 9.7477 18.9936 9.74647 18.9072C9.74647 15.4312 13.3891 11.7355 17.5931 11.7355C17.766 11.7355 17.9318 11.6668 18.0541 11.5445C18.1763 11.4223 18.245 11.2564 18.245 11.0835V8.57878C18.2465 8.54385 18.2552 8.51094 18.2552 8.47564V5.44371C18.3062 4.41787 18.7782 3.89512 19.4038 3.55529C19.8773 3.29809 20.4104 3.2331 20.858 3.23312C20.8577 3.97992 20.8578 9.33912 20.7893 12.3353C20.7892 12.3399 20.7892 12.3446 20.7893 12.3493C20.7893 13.3719 20.4993 14.7368 20.2506 15.4118L17.7204 20.5231C17.255 21.3172 16.2561 21.7836 15.3545 22.2371C15.2466 22.2913 15.1559 22.3745 15.0925 22.4772C15.0291 22.58 14.9955 22.6983 14.9954 22.819V29.3387C14.9941 29.4251 15.0101 29.5109 15.0423 29.5911C15.0745 29.6713 15.1224 29.7442 15.183 29.8057C15.2437 29.8673 15.316 29.9161 15.3957 29.9495C15.4754 29.9828 15.5609 30 15.6473 30C15.7337 30 15.8193 29.9828 15.899 29.9495C15.9787 29.9161 16.051 29.8673 16.1116 29.8057C16.1723 29.7442 16.2201 29.6713 16.2523 29.5911C16.2846 29.5109 16.3005 29.4251 16.2993 29.3387V23.21C17.1288 22.8067 18.1984 22.2933 18.8499 21.1751C18.8575 21.1626 18.8648 21.1499 18.8715 21.1369L21.445 15.9364C21.4555 15.9161 21.4648 15.8953 21.4731 15.874C21.7976 14.9978 22.0932 13.599 22.0932 12.3493C22.167 9.10199 22.1671 2.60789 22.1671 2.60789C22.167 2.46115 22.1174 2.31873 22.0264 2.20365C21.9353 2.08858 21.8081 2.00757 21.6653 1.97374C21.2589 1.87719 20.7856 1.85192 20.2901 1.91771C19.7946 1.98351 19.2768 2.14 18.7811 2.40924C18.5269 2.54733 18.2827 2.72241 18.0591 2.9326C17.6691 1.98095 16.7339 1.30394 15.6473 1.30394C15.5665 1.30533 15.4866 1.32174 15.4118 1.35233C14.965 1.395 14.5536 1.55451 14.1982 1.79038C13.8513 0.756367 12.8813 0 11.7355 0ZM11.7355 1.30394C12.4635 1.30394 13.0394 1.87985 13.0394 2.60789V3.91183V8.47564V10.4316C13.0394 11.1596 12.4635 11.7355 11.7355 11.7355C11.0075 11.7355 10.4316 11.1596 10.4316 10.4316V3.25986V2.60789C10.4316 1.87985 11.0075 1.30394 11.7355 1.30394ZM7.82367 1.95592C8.5517 1.95592 9.12761 2.53183 9.12761 3.25986V10.4316C9.12761 11.1596 8.5517 11.7355 7.82367 11.7355C7.09563 11.7355 6.51972 11.1596 6.51972 10.4316V3.25986C6.51972 2.53183 7.09563 1.95592 7.82367 1.95592ZM15.6473 2.60789C16.3754 2.60789 16.9513 3.1838 16.9513 3.91183V5.47173C16.9494 5.52321 16.9411 5.5707 16.9411 5.62326V8.57623C16.8899 9.25503 16.3408 9.77958 15.6473 9.77958C14.9193 9.77958 14.3434 9.20367 14.3434 8.47564V3.91183C14.3434 3.1838 14.9193 2.60789 15.6473 2.60789ZM3.91183 3.25986C4.63987 3.25986 5.21578 3.83577 5.21578 4.5638V9.12761C5.21578 9.85564 4.63987 10.4316 3.91183 10.4316C3.1838 10.4316 2.60789 9.85564 2.60789 9.12761V6.60631C2.61726 6.54299 2.61726 6.47863 2.60789 6.4153V4.5638C2.60789 3.83577 3.1838 3.25986 3.91183 3.25986ZM14.3192 10.6722C14.4855 10.7703 14.6607 10.8525 14.8476 10.9129C14.6403 10.9787 14.4351 11.0487 14.2339 11.1281C14.2763 10.981 14.3042 10.8293 14.3192 10.6722Z" fill="#422FD8"/>
</svg>
