<svg width="20" height="30" viewBox="0 0 20 30" fill="none" xmlns="http://www.w3.org/2000/svg">
<path d="M10.8 0C10.7256 0.00127303 10.6521 0.0163736 10.5832 0.0445313C9.37018 0.160397 8.4 1.15832 8.4 2.4V2.76562C8.10326 2.59493 7.77186 2.47711 7.41445 2.44336C7.34623 2.41589 7.27354 2.40119 7.2 2.4C5.8816 2.4 4.8 3.4816 4.8 4.8V5.73633C4.44502 5.52819 4.03841 5.4 3.6 5.4C3.5256 5.40127 3.45208 5.41637 3.3832 5.44453C2.17018 5.5604 1.2 6.55832 1.2 7.8V13.507C1.03575 13.663 0.844695 13.9008 0.666797 14.25C0.308774 14.9528 0 16.097 0 18V24.6C0 27.576 2.43146 30 5.41289 30H12.9457C14.798 30 16.8499 29.0766 17.4082 27.1523L18.9387 21.8766V21.8742C19.0993 21.3372 19.3268 20.2229 19.1227 19.0617C18.8416 17.4598 17.9617 16.5145 17.1598 16.0359C17.0529 15.9722 16.953 15.9333 16.8492 15.8836V4.2C16.8492 2.95832 15.879 1.9604 14.666 1.84453C14.5971 1.81637 14.5236 1.80127 14.4492 1.8C13.9815 1.8 13.5469 1.94048 13.1766 2.175C13.0603 0.962361 12.0414 0 10.8 0ZM10.8 1.2C11.47 1.2 12 1.73 12 2.4V12.0105C11.1823 12.0129 10.3304 12.0133 9.6 12.0246V4.8V2.4C9.6 1.73 10.13 1.2 10.8 1.2ZM14.4492 3C15.1192 3 15.6492 3.53 15.6492 4.2V15.5051C15.6449 15.5046 15.6371 15.503 15.634 15.5027L7.85391 14.4059C7.72961 14.3883 7.60294 14.4102 7.49173 14.4684C7.38052 14.5267 7.29038 14.6183 7.23398 14.7305C6.86123 15.4737 6.70197 16.4626 6.87891 17.4328C7.05584 18.403 7.65447 19.394 8.78437 19.7695L11.2758 20.6824C10.033 21.3542 8.27935 22.7022 7.86211 25.0969C7.84855 25.1745 7.85041 25.2541 7.8676 25.331C7.88479 25.4079 7.91696 25.4807 7.96228 25.5452C8.00761 25.6097 8.06519 25.6646 8.13174 25.7069C8.1983 25.7491 8.27252 25.7778 8.35017 25.7914C8.42782 25.8049 8.50738 25.803 8.5843 25.7858C8.66122 25.7686 8.734 25.7364 8.79848 25.6911C8.86296 25.6457 8.91788 25.5881 8.9601 25.5216C9.00231 25.455 9.031 25.3808 9.04453 25.3031C9.57024 22.2859 12.9012 21.2754 12.9012 21.2754C12.9158 21.2713 12.9303 21.2666 12.9445 21.2613C13.0879 21.2653 13.2279 21.2178 13.3393 21.1275C13.4507 21.0371 13.526 20.9099 13.5517 20.7688C13.5773 20.6277 13.5515 20.4821 13.4791 20.3583C13.4066 20.2346 13.2922 20.1408 13.1566 20.0941L9.18047 18.6363C9.17464 18.6343 9.16878 18.6323 9.16289 18.6305C8.4874 18.406 8.18295 17.897 8.05898 17.2172C7.96262 16.6888 8.05159 16.1248 8.19258 15.6656L15.4664 16.691C15.4793 16.6926 15.4922 16.6938 15.5051 16.6945C15.5051 16.6945 15.9818 16.7302 16.5445 17.066C17.1073 17.4018 17.7173 17.9916 17.9414 19.2691C18.0923 20.1276 17.8972 21.172 17.7891 21.5332C17.7887 21.5348 17.7883 21.5363 17.7879 21.5379L16.2562 26.8184C15.8978 28.0537 14.3934 28.8 12.9457 28.8H5.41289C3.07832 28.8 1.2 26.9256 1.2 24.6V18C1.2 16.228 1.49294 15.2723 1.73672 14.7938C1.77301 14.7225 1.80455 14.6803 1.8375 14.6285C1.9178 14.5933 1.9894 14.5409 2.04727 14.475C2.48502 13.9867 3.71998 13.5742 5.71992 13.391C7.45255 13.2323 9.82138 13.2114 12.5836 13.207C12.5988 13.2076 12.6141 13.2076 12.6293 13.207C12.648 13.2079 12.6668 13.2079 12.6855 13.207C13.0778 13.2065 13.3883 13.2 13.8 13.2C13.8795 13.2011 13.9584 13.1864 14.0322 13.1568C14.106 13.1271 14.1732 13.0831 14.2298 13.0273C14.2864 12.9715 14.3314 12.9049 14.3621 12.8316C14.3927 12.7582 14.4085 12.6795 14.4085 12.6C14.4085 12.5205 14.3927 12.4418 14.3621 12.3684C14.3314 12.2951 14.2864 12.2285 14.2298 12.1727C14.1732 12.1169 14.106 12.0729 14.0322 12.0432C13.9584 12.0136 13.8795 11.9989 13.8 12C13.5973 12 13.4473 12.0034 13.2492 12.0035V4.2C13.2492 3.53 13.7792 3 14.4492 3ZM7.2 3.6C7.87 3.6 8.4 4.13 8.4 4.8V12.0527C7.53136 12.0773 6.72584 12.1139 6 12.1711V7.8V4.8C6 4.13 6.53 3.6 7.2 3.6ZM3.6 6.6C4.27 6.6 4.8 7.13 4.8 7.8V12.2953C3.86698 12.4107 3.04734 12.5646 2.4 12.832V7.8C2.4 7.13 2.93 6.6 3.6 6.6Z" fill="#422FD8"/>
</svg>
