<svg width="25" height="30" viewBox="0 0 25 30" fill="none" xmlns="http://www.w3.org/2000/svg">
<path d="M12.5 0C9.98779 0 8.04688 1.06201 7.05078 2.79297C6.10352 4.43848 6.03027 6.62109 6.75781 8.92578C6.48193 9.26758 6.25 9.73145 6.30859 10.4297V10.4688C6.41357 11.2305 6.64307 11.7676 6.93359 12.1484C7.0752 12.334 7.28516 12.3389 7.46094 12.4414C7.56592 13.1177 7.76611 13.7842 8.04688 14.3359C8.20557 14.6484 8.36426 14.9243 8.53516 15.1562C8.61328 15.2637 8.72559 15.3223 8.80859 15.4102C8.81836 16.0693 8.84521 16.2671 8.75 17.0508C8.56201 17.5244 8.09326 17.9028 7.34375 18.2812C6.56006 18.6768 5.53467 19.0405 4.49219 19.4922C3.44971 19.9438 2.39258 20.4858 1.54297 21.3477C0.693359 22.2095 0.0854494 23.4033 0 24.9609V30H1.25V25C1.32812 23.7378 1.76514 22.8955 2.42188 22.2266C3.08594 21.5503 4.01856 21.0693 5 20.6445C5.8374 20.2832 6.70166 19.9756 7.5 19.6094V21.875H8.75V18.9062C9.29199 18.5181 9.73877 18.0347 9.96094 17.3828L10 17.2656C10.1294 16.2378 10.0586 16.106 10.0586 15.1953V14.8242L9.74609 14.6484C9.79248 14.6753 9.67041 14.5752 9.55078 14.4141C9.43115 14.2529 9.28955 14.0283 9.16016 13.7695C8.89893 13.2544 8.66455 12.6123 8.61328 12.0703L8.57422 11.5039H8.04688C8.0249 11.4941 7.96631 11.4624 7.91016 11.3867C7.80029 11.2427 7.64404 10.9058 7.55859 10.332C7.55859 10.3198 7.55859 10.3247 7.55859 10.3125C7.55615 10.3027 7.56104 10.3027 7.55859 10.293C7.54883 9.81934 7.8418 9.55566 7.79297 9.58984L8.18359 9.31641L8.02734 8.84766C7.2583 6.6626 7.37549 4.75098 8.14453 3.41797C8.91357 2.08496 10.3247 1.25 12.5 1.25C13.6865 1.25 14.48 1.82861 14.707 2.24609L14.8633 2.51953L15.1758 2.55859C16.0107 2.65381 16.4819 2.9541 16.8164 3.37891C17.1509 3.80371 17.356 4.40186 17.4219 5.07812C17.5562 6.43066 17.1777 8.04688 16.9141 8.86719L16.7383 9.375L17.207 9.62891C17.2021 9.646 17.4072 9.85352 17.3828 10.3125C17.3828 10.3223 17.3828 10.3223 17.3828 10.332C17.3242 10.9204 17.1729 11.2524 17.0703 11.3867C16.9653 11.5234 16.9116 11.5039 16.9336 11.5039H16.3867L16.3281 12.0312C16.2476 12.5952 16.0181 13.2495 15.7617 13.7695C15.6348 14.0283 15.4858 14.2749 15.3711 14.4336C15.2563 14.5923 15.144 14.6777 15.1953 14.6484L14.8828 14.8242V15.1953C14.8828 16.1328 14.8779 16.2256 14.9414 17.2266V17.3242L14.9805 17.4023C15.2271 18.0469 15.6982 18.5205 16.25 18.9062V21.875H17.5V19.6094C18.3057 19.9756 19.1821 20.2832 20.0195 20.6445C21.001 21.0693 21.9165 21.5503 22.5781 22.2266C23.2324 22.8955 23.6719 23.7378 23.75 25V30H25V24.9609C24.9146 23.4033 24.3213 22.2119 23.4766 21.3477C22.6318 20.4834 21.5698 19.9438 20.5273 19.4922C19.4849 19.0405 18.4521 18.6792 17.6562 18.2812C16.8848 17.8955 16.4014 17.5024 16.1914 17.0117C16.1475 16.2891 16.1328 16.0327 16.1328 15.3906C16.2061 15.3076 16.3159 15.2539 16.3867 15.1562C16.5527 14.9243 16.7212 14.646 16.875 14.3359C17.146 13.7891 17.3535 13.1177 17.4805 12.4609C17.6807 12.3584 17.9102 12.3511 18.0664 12.1484C18.3667 11.7554 18.5425 11.1963 18.6133 10.4297C18.6694 9.76318 18.4668 9.28711 18.1641 8.92578C18.4521 7.95898 18.8013 6.45752 18.6523 4.94141C18.5693 4.10889 18.3496 3.27637 17.8125 2.59766C17.3096 1.96289 16.5039 1.52588 15.5078 1.36719C14.9097 0.581055 13.8818 0 12.5 0ZM10.9375 21.3086C10.4785 21.3086 10.0244 21.6333 9.82422 22.0312L9.80469 22.0508L9.78516 22.0898L9.62891 22.5H8.75C7.72217 22.5 6.875 23.3472 6.875 24.375V28.125C6.875 29.1528 7.72217 30 8.75 30H16.25C17.2778 30 18.125 29.1528 18.125 28.125V24.375C18.125 23.3472 17.2778 22.5 16.25 22.5H15.3906L15.2148 22.1094L15.1953 22.0508H15.1758C15.0806 21.8237 14.939 21.6626 14.7656 21.543C14.5728 21.4111 14.3433 21.3086 14.0625 21.3086H10.9375ZM10.957 22.5586H14.043C14.0454 22.5635 14.0576 22.5732 14.0625 22.5781L14.4336 23.3789L14.6094 23.75H16.25C16.5967 23.75 16.875 24.0283 16.875 24.375V28.125C16.875 28.4717 16.5967 28.75 16.25 28.75H8.75C8.40332 28.75 8.125 28.4717 8.125 28.125V24.375C8.125 24.0283 8.40332 23.75 8.75 23.75H10.4883L10.6445 23.3398L10.9375 22.5977C10.9497 22.5732 10.957 22.5659 10.957 22.5586ZM12.5 24.375C11.4648 24.375 10.625 25.2148 10.625 26.25C10.625 27.2852 11.4648 28.125 12.5 28.125C13.5352 28.125 14.375 27.2852 14.375 26.25C14.375 25.2148 13.5352 24.375 12.5 24.375Z" fill="#432FD8"/>
</svg>
