<svg width="321" height="560" viewBox="0 0 321 560" fill="none" xmlns="http://www.w3.org/2000/svg">
  <path fill-rule="evenodd" clip-rule="evenodd"
    d="M72.4839 0H136.684L163.606 151.506L190.529 0H248.516V209.51C288.734 210.608 321 243.604 321 284.148V290.37C321 331.608 287.621 365.037 246.445 365.037H213.31V398.222H265.084V445.926H213.31V512.296H279.581V560H165.677V365.037H157.394V560H43.4903V512.296H109.761V445.926H57.9871V398.222H109.761V365.037H74.5548C33.3793 365.037 0 331.608 0 290.37V284.148C0 243.604 32.2659 210.608 72.4839 209.51V0ZM72.4839 265.595V273.778H115.974V265.481H140.826V273.778H184.316V265.481H205.026V273.778H248.516V265.595C257.835 266.627 265.084 274.54 265.084 284.148V290.37C265.084 300.68 256.739 309.037 246.445 309.037H213.31V290.37H165.677V309.037H157.394V290.37H109.761V309.037H74.5548C64.261 309.037 55.9161 300.68 55.9161 290.37V284.148C55.9161 274.54 63.1646 266.627 72.4839 265.595ZM205.026 209.481V163.16L196.795 209.481H205.026ZM130.418 209.481L115.974 128.198V209.481H130.418Z"
    fill="white" />
</svg>