<svg width="27" height="27" viewBox="0 0 27 27" fill="none" xmlns="http://www.w3.org/2000/svg">
  <path
    d="M18.9126 6.1744V1.62221C18.9126 0.896499 18.3191 0.302734 17.5932 0.302734H1.31949C0.593769 0.302734 0 0.896499 0 1.62221V2.47987V19.677V20.271C0 20.7546 0.285889 21.2164 0.703726 21.4363L10.7318 26.6265C11.1717 26.8464 11.6994 26.5388 11.6994 26.0327V20.9747H17.5932C18.3191 20.9747 18.9126 20.3812 18.9126 19.6553V12.4421H16.2737V17.6761C16.2737 18.0499 15.9878 18.3358 15.6139 18.3358H11.7214V11.5625V7.27419V7.14224C11.7214 6.65843 11.4356 6.19661 11.0177 5.9767L5.10202 2.94191H15.6139C15.9878 2.94191 16.2737 3.22779 16.2737 3.60164V6.19661H18.9126V6.1744Z"
    fill="#650D97" />
  <path
    d="M22.2996 4.01814L26.588 8.30644C27.1378 8.85622 27.1378 9.6699 26.588 10.2197L22.2996 14.508C21.7499 15.0578 20.914 15.08 20.3642 14.5302C19.8366 14.0026 19.9024 13.1227 20.4084 12.595L22.3434 10.6817H14.8445C14.4709 10.6817 14.0968 10.5278 13.8549 10.2419C13.2392 9.58215 13.3931 8.41661 14.1848 7.97679C14.3827 7.86683 14.6246 7.80086 14.8445 7.80086H22.3436C22.3436 7.80086 20.4306 5.88762 20.4086 5.88762C19.9026 5.38182 19.8366 4.48018 20.3644 3.97438C20.8922 3.44659 21.7499 3.46836 22.2996 4.01814Z"
    fill="#650D97" />
</svg>