<svg width="44" height="60" viewBox="0 0 44 60" fill="none" xmlns="http://www.w3.org/2000/svg">
  <path
    d="M42 22.2078C42 24.7834 40.8102 28.3266 38.7743 32.3915C36.7714 36.3904 34.0801 40.6441 31.3576 44.562C28.6401 48.4727 25.9185 52.0103 23.8742 54.5723C23.1546 55.4742 22.5199 56.2539 22 56.8851C21.4801 56.2539 20.8454 55.4742 20.1258 54.5723C18.0815 52.0103 15.3599 48.4727 12.6424 44.562C9.91991 40.6441 7.22865 36.3904 5.22574 32.3915C3.18981 28.3266 2 24.7834 2 22.2078C2 11.0296 10.972 2 22 2C33.028 2 42 11.0296 42 22.2078Z"
    fill="#650D97" stroke="white" stroke-width="4" />
</svg>