<svg width="11" height="20" viewBox="0 0 11 20" fill="none" xmlns="http://www.w3.org/2000/svg">
<path d="M5.92221 0C5.84119 7.85452e-06 5.76178 0.022655 5.69293 0.0653872L0.205503 3.47232C0.142658 3.51133 0.0908032 3.56572 0.0548433 3.63036C0.0188835 3.695 7.21883e-06 3.76774 0 3.84171V7.58237C1.72472e-05 7.65986 0.0207409 7.73594 0.0600267 7.80273C0.0993126 7.86952 0.155733 7.9246 0.22345 7.96227C0.291166 7.99993 0.367719 8.01882 0.445185 8.01698C0.522651 8.01513 0.598217 7.99262 0.664062 7.95177L5.65217 4.85988V19.5652C5.65219 19.6805 5.698 19.7911 5.77953 19.8726C5.86107 19.9542 5.97165 20 6.08696 20H10C10.1153 20 10.2259 19.9542 10.3074 19.8726C10.389 19.7911 10.4348 19.6805 10.4348 19.5652V0.434783C10.4348 0.319475 10.389 0.208893 10.3074 0.127358C10.2259 0.0458225 10.1153 1.15291e-05 10 0H5.92221ZM6.0462 0.869565H9.56522V19.1304H6.52174V4.34783C6.52173 4.23252 6.47592 4.12194 6.39438 4.0404C6.31285 3.95887 6.20226 3.91305 6.08696 3.91304H5.65217C5.57115 3.91305 5.49174 3.9357 5.42289 3.97843L0.869565 6.80112V4.08373L6.0462 0.869565Z" fill="white"/>
</svg>
