<svg width="18" height="30" viewBox="0 0 18 30" fill="none" xmlns="http://www.w3.org/2000/svg">
<path d="M14.4053 0C14.0748 0 13.8053 0.269531 13.8053 0.6C13.8053 0.930469 14.0748 1.2 14.4053 1.2C14.7357 1.2 15.0053 0.930469 15.0053 0.6C15.0053 0.269531 14.7357 0 14.4053 0ZM16.8053 0C16.4748 0 16.2053 0.269531 16.2053 0.6C16.2053 0.930469 16.4748 1.2 16.8053 1.2C17.1357 1.2 17.4053 0.930469 17.4053 0.6C17.4053 0.269531 17.1357 0 16.8053 0ZM5.29277 0.6C5.00684 0.653906 4.80059 0.907031 4.80527 1.2V3.6C4.80527 3.93047 5.07481 4.2 5.40527 4.2H6.60527V4.8H6.00527C5.98652 4.8 5.96777 4.8 5.94902 4.8C5.89746 4.80703 5.84824 4.81875 5.79902 4.8375C5.79902 4.8375 4.40684 5.35781 3.00527 6.16875C2.30449 6.57422 1.60137 7.05938 1.03652 7.6125C0.513867 8.12344 0.087305 8.72109 0.0240235 9.43125C0.0240235 9.43828 0.00527355 9.44297 0.00527355 9.45C-0.00175785 9.49922 -0.00175785 9.55078 0.00527355 9.6C0.00527355 9.61875 0.00527355 9.6375 0.00527355 9.65625V28.2C0.00527355 29.1867 0.818555 30 1.80527 30H12.6053C13.592 30 14.4053 29.1867 14.4053 28.2V9.69375C14.4076 9.66328 14.4076 9.63047 14.4053 9.6C14.4053 9.57422 14.4053 9.55078 14.4053 9.525C14.4029 9.49219 14.3889 9.46406 14.3865 9.43125C14.3232 8.73516 13.8943 8.15391 13.374 7.65C12.8115 7.10625 12.1037 6.6375 11.4053 6.225C10.0061 5.40234 8.63027 4.8375 8.63027 4.8375C8.55762 4.81172 8.48262 4.79766 8.40527 4.8H7.80527V4.2H9.00527C9.33574 4.2 9.60527 3.93047 9.60527 3.6V1.2C9.60527 0.869531 9.33574 0.6 9.00527 0.6H5.40527C5.38652 0.6 5.36777 0.6 5.34902 0.6C5.33027 0.6 5.31152 0.6 5.29277 0.6ZM6.00527 1.8H8.40527V3H7.33652C7.27559 2.98359 7.21231 2.97656 7.14902 2.98125C7.13027 2.98594 7.11152 2.99297 7.09277 3H6.00527V1.8ZM10.8053 1.8C10.4748 1.8 10.2053 2.06953 10.2053 2.4C10.2053 2.73047 10.4748 3 10.8053 3C11.1357 3 11.4053 2.73047 11.4053 2.4C11.4053 2.06953 11.1357 1.8 10.8053 1.8ZM13.2053 1.8C12.8748 1.8 12.6053 2.06953 12.6053 2.4C12.6053 2.73047 12.8748 3 13.2053 3C13.5357 3 13.8053 2.73047 13.8053 2.4C13.8053 2.06953 13.5357 1.8 13.2053 1.8ZM15.6053 1.8C15.2748 1.8 15.0053 2.06953 15.0053 2.4C15.0053 2.73047 15.2748 3 15.6053 3C15.9357 3 16.2053 2.73047 16.2053 2.4C16.2053 2.06953 15.9357 1.8 15.6053 1.8ZM14.4053 3.6C14.0748 3.6 13.8053 3.86953 13.8053 4.2C13.8053 4.53047 14.0748 4.8 14.4053 4.8C14.7357 4.8 15.0053 4.53047 15.0053 4.2C15.0053 3.86953 14.7357 3.6 14.4053 3.6ZM16.8053 3.6C16.4748 3.6 16.2053 3.86953 16.2053 4.2C16.2053 4.53047 16.4748 4.8 16.8053 4.8C17.1357 4.8 17.4053 4.53047 17.4053 4.2C17.4053 3.86953 17.1357 3.6 16.8053 3.6ZM6.13652 6H8.25527C8.32793 6.02813 9.54199 6.51094 10.8053 7.25625C11.4568 7.64063 12.099 8.07656 12.549 8.5125C12.7529 8.70938 12.7412 8.82891 12.849 9H1.54277C1.65293 8.8125 1.64824 8.66484 1.86152 8.45625C2.30918 8.01797 2.95605 7.59375 3.60527 7.21875C4.86621 6.48984 6.06387 6.02813 6.13652 6ZM1.20527 10.2H13.2053V28.2C13.2053 28.5328 12.9381 28.8 12.6053 28.8H1.80527C1.47246 28.8 1.20527 28.5328 1.20527 28.2V10.2ZM7.20527 15.6C5.2248 15.6 3.60527 17.2195 3.60527 19.2C3.60527 21.1805 5.2248 22.8 7.20527 22.8C9.18574 22.8 10.8053 21.1805 10.8053 19.2C10.8053 17.2195 9.18574 15.6 7.20527 15.6ZM7.20527 16.8C8.53887 16.8 9.60527 17.8664 9.60527 19.2C9.60527 20.5336 8.53887 21.6 7.20527 21.6C5.87168 21.6 4.80527 20.5336 4.80527 19.2C4.80527 17.8664 5.87168 16.8 7.20527 16.8Z" fill="#422FD8"/>
</svg>
