<svg width="29" height="30" viewBox="0 0 29 30" fill="none" xmlns="http://www.w3.org/2000/svg">
<path d="M1.25 0C0.566406 0 0 0.566406 0 1.25V8.75C0 9.43359 0.566406 10 1.25 10H25.625C26.3086 10 26.875 9.43359 26.875 8.75V5.625H27.5V11.3672L13.6133 14.3945C13.3301 14.458 13.1274 14.7095 13.125 15V17.5H11.875C11.1914 17.5 10.625 18.0664 10.625 18.75V28.75C10.625 29.4336 11.1914 30 11.875 30H15.625C16.3086 30 16.875 29.4336 16.875 28.75V18.75C16.875 18.0664 16.3086 17.5 15.625 17.5H14.375V15.5078L28.2617 12.4805C28.5449 12.417 28.7476 12.1655 28.75 11.875V5C28.75 4.65576 28.4692 4.375 28.125 4.375H26.875V1.25C26.875 0.566406 26.3086 0 25.625 0H1.25ZM1.25 1.25H25.625V4.80469C25.5884 4.92676 25.5884 5.05371 25.625 5.17578V8.75H1.25V1.25ZM11.875 18.75H15.625V28.75H11.875V18.75Z" fill="#422FD8"/>
</svg>
