<svg width="23" height="30" viewBox="0 0 23 30" fill="none" xmlns="http://www.w3.org/2000/svg">
<path d="M6 0C5.71406 0.0539063 5.50781 0.307031 5.5125 0.6V3C5.5125 3.33047 5.78203 3.6 6.1125 3.6H6.7125V12.3563C6.71719 12.5813 6.84844 12.7828 7.05 12.8813L11.5125 15.1125V15.8438L3.35625 14.0438C3.05625 13.9758 2.75859 14.1633 2.6625 14.4563L2.2875 15.5813L1.66875 15.4125L1.8375 14.7938L0.675 14.475L0 16.8375L1.1625 17.175L1.33125 16.5563L1.9125 16.725L1.5 17.9625C1.44844 18.1148 1.46484 18.2883 1.5375 18.4313C1.61016 18.5742 1.73906 18.6844 1.89375 18.7313C2.53359 18.9281 2.97188 19.2609 3.1125 19.6875C3.26484 20.1516 3.03047 20.6086 2.8125 20.9062C-0.757032 25.7766 1.13672 29.3438 1.21875 29.4938C1.29844 29.6391 1.43203 29.7539 1.59375 29.7938C1.79531 29.843 2.48438 30 3.1875 30C3.68438 30 4.18594 29.9109 4.5375 29.6625C4.82812 29.4563 5.01094 29.1703 5.04375 28.8188C5.22188 26.9719 5.62969 26.7258 6.0375 26.4938C6.31172 26.3367 6.64922 26.1492 6.88125 25.6875C7.10859 25.2352 7.06641 24.7125 7.0125 24.1688C6.90938 23.1164 6.83203 22.2914 8.3625 21.75L9.76875 22.05C9.31172 23.2266 9.03984 23.9297 8.7375 24.7313C8.3625 25.725 8.49375 26.5664 8.75625 27.1125C9.01875 27.6586 9.43125 27.9563 9.43125 27.9563C9.60469 28.1016 9.84375 28.1367 10.05 28.0477C10.2586 27.9586 10.3992 27.7617 10.4133 27.5367C10.4297 27.3117 10.3172 27.0984 10.125 26.9813C10.125 26.9813 9.96328 26.8781 9.825 26.5875C9.68672 26.2969 9.59063 25.8656 9.8625 25.1438C10.4531 23.5781 11.5594 20.7398 11.9062 19.8563C12.3656 19.7438 12.7125 19.3406 12.7125 18.8438C12.7125 18.2602 12.2461 17.775 11.6625 17.775C11.0789 17.775 10.6125 18.2602 10.6125 18.8438C10.6125 19.0617 10.6875 19.2586 10.8 19.425C10.7039 19.6688 10.432 20.3578 10.2188 20.9062L8.4375 20.5312C8.33438 20.5078 8.23594 20.5172 8.1375 20.55C5.53125 21.3844 5.70469 23.2125 5.8125 24.3C5.84531 24.6352 5.88281 25.0008 5.8125 25.1438C5.74922 25.2703 5.68359 25.3336 5.45625 25.4625C4.73672 25.875 4.06641 26.4305 3.8625 28.6875C3.70547 28.8398 2.92266 28.8328 2.175 28.6875C1.87266 27.9023 1.15781 25.2047 3.7875 21.6188C4.33125 20.8781 4.48359 20.0531 4.2375 19.3125C4.02422 18.668 3.52734 18.1383 2.8125 17.7938L3.6375 15.3375L17.5312 18.3938L16.7812 22.3313L12.3188 21.375L11.9438 22.5188L16.575 23.5125L16.5563 23.5688C16.5234 23.7258 16.5539 23.8898 16.643 24.0234C16.7297 24.157 16.868 24.2508 17.025 24.2813L18.8063 24.6188C18.8438 24.6281 18.8813 24.6352 18.9188 24.6375C19.2117 24.6422 19.4648 24.4359 19.5188 24.15L19.5563 23.9438C20.0813 23.8898 20.5641 23.6297 20.9625 23.2688C21.5109 22.7719 21.907 22.057 22.0688 21.225C22.2305 20.393 22.1297 19.5867 21.8063 18.9188C21.5695 18.4313 21.2063 18.0211 20.7375 17.775L20.775 17.6063C20.8078 17.4469 20.775 17.2805 20.6836 17.1469C20.5898 17.0133 20.4469 16.9219 20.2875 16.8938L18.5063 16.5563C18.4266 16.5398 18.3422 16.5398 18.2625 16.5563C18.0281 16.6125 17.85 16.8047 17.8125 17.0438L17.775 17.2125L15.1125 16.6313V15.1125L19.575 12.8813C19.7766 12.7828 19.9078 12.5813 19.9125 12.3563V3.6H20.5125C20.843 3.6 21.1125 3.33047 21.1125 3V0.6C21.1125 0.269531 20.843 0 20.5125 0H6.1125C6.09375 0 6.075 0 6.05625 0C6.0375 0 6.01875 0 6 0ZM6.7125 1.2H19.9125V2.4H18.7125V1.8H17.5125V2.4H16.3125V1.8H15.1125V2.4H13.9125V1.8H12.7125V2.4H11.5125V1.8H10.3125V2.4H9.1125V1.8H7.9125V2.4H6.7125V1.2ZM7.9125 3.6H18.7125V11.9813L14.25 14.2125C14.0414 14.3133 13.9102 14.5242 13.9125 14.7563V16.3688L12.7125 16.1063V14.7563C12.7148 14.5242 12.5836 14.3133 12.375 14.2125L7.9125 11.9813V3.6ZM18.8625 17.85L19.4813 17.9625L18.45 23.325L17.8313 23.2125L17.85 23.1562L18.825 18.0375L18.8625 17.85ZM20.4938 19.0875C20.5852 19.1883 20.6672 19.2984 20.7375 19.4438C20.932 19.8469 21.0211 20.4047 20.9062 21C20.7914 21.5953 20.4891 22.0852 20.1562 22.3875C20.0414 22.4906 19.9336 22.5703 19.8188 22.6313L20.4938 19.0875Z" fill="#422FD8"/>
</svg>
