<svg width="22" height="30" viewBox="0 0 22 30" fill="none" xmlns="http://www.w3.org/2000/svg">
<path d="M10.8018 0C4.94941 0 0.168164 4.43438 0.0205077 9.9375C0.0158205 9.96797 0.0228513 10.0008 0.0205077 10.0312C0.0205077 10.0383 0.0205077 10.043 0.0205077 10.05C0.0111327 10.0875 0.0041013 10.125 0.0017577 10.1625C0.0017577 10.1742 0.0017577 10.1859 0.0017577 10.2C-0.0005859 10.2258 -0.0005859 10.2492 0.0017577 10.275V24.6C0.0017577 26.2664 1.38691 27.6164 3.33926 28.5375C5.2916 29.4586 7.90488 30 10.8018 30C13.6986 30 16.3119 29.4586 18.2643 28.5375C20.2166 27.6164 21.6018 26.2664 21.6018 24.6V10.3313C21.6018 10.3195 21.6018 10.3055 21.6018 10.2938C21.6041 10.2633 21.6041 10.2305 21.6018 10.2C21.6018 10.1813 21.6018 10.1625 21.6018 10.1438C21.6018 10.1367 21.6018 10.132 21.6018 10.125C21.5994 10.0922 21.5854 10.0641 21.583 10.0312C21.5807 10.0008 21.5877 9.96797 21.583 9.9375C21.4354 4.43438 16.6541 0 10.8018 0ZM10.8018 1.2C15.3088 1.2 19.0494 4.10859 20.1018 7.9875C19.5744 7.64297 18.9346 7.34297 18.208 7.0875C16.2721 6.40313 13.6752 6 10.8018 6C7.92832 6 5.33145 6.40313 3.39551 7.0875C2.66895 7.34297 2.0291 7.64297 1.50176 7.9875C2.5541 4.10859 6.29473 1.2 10.8018 1.2ZM10.8018 7.2C13.5604 7.2 16.0588 7.59375 17.8143 8.2125C18.6932 8.52188 19.3869 8.90156 19.8205 9.2625C20.2354 9.60938 20.39 9.90234 20.4018 10.1625C20.4018 10.1742 20.4018 10.1883 20.4018 10.2C20.4018 10.2188 20.4018 10.2375 20.4018 10.2563C20.383 10.5117 20.226 10.8 19.8205 11.1375C19.3869 11.4984 18.6932 11.8781 17.8143 12.1875C16.0588 12.8063 13.5604 13.2 10.8018 13.2C8.04316 13.2 5.54473 12.8063 3.78926 12.1875C2.91035 11.8781 2.2166 11.4984 1.78301 11.1375C1.36816 10.7906 1.21348 10.4977 1.20176 10.2375C1.20176 10.2258 1.20176 10.2117 1.20176 10.2C1.20176 10.1813 1.20176 10.1625 1.20176 10.1438C1.22051 9.88828 1.37754 9.6 1.78301 9.2625C2.2166 8.90156 2.91035 8.52188 3.78926 8.2125C5.54473 7.59375 8.04316 7.2 10.8018 7.2ZM1.20176 12.1875C1.34473 12.2953 1.49004 12.4078 1.65176 12.5063C1.65879 12.5133 1.66348 12.518 1.67051 12.525C2.07363 13.1063 2.2166 14.1891 2.43926 15.2063C2.54941 15.7148 2.66895 16.2164 2.98301 16.65C3.29707 17.0836 3.86191 17.4 4.50176 17.4C5.48379 17.4 6.11426 16.9711 6.47051 16.6313C6.64863 16.4625 6.77988 16.3359 6.86426 16.275C6.94863 16.2141 6.97441 16.2 7.08926 16.2C7.24863 16.2 7.24863 16.2211 7.33301 16.3313C7.41738 16.4414 7.52988 16.6805 7.59551 17.025C7.72676 17.7141 7.73379 18.757 7.76426 19.8188C7.79473 20.8805 7.84395 21.9727 8.17676 22.8938C8.34316 23.3531 8.57988 23.775 8.96426 24.0938C9.34863 24.4125 9.87363 24.6 10.4455 24.6C11.0174 24.6 11.533 24.4195 11.8893 24.075C12.2455 23.7305 12.4119 23.2664 12.508 22.8C12.7002 21.8695 12.6135 20.8078 12.5455 19.7625C12.4775 18.7172 12.4424 17.7094 12.6205 17.0813C12.7096 16.7672 12.8338 16.5563 12.9955 16.425C13.1572 16.2938 13.3846 16.2 13.8018 16.2C13.8557 16.2 13.8205 16.2 13.8205 16.2C13.8205 16.2 13.8557 16.2352 13.8955 16.35C13.9729 16.5797 14.0314 17.0297 14.1205 17.5125C14.2096 17.9953 14.3314 18.5414 14.7018 19.0125C15.0721 19.4836 15.7049 19.8 16.5018 19.8C17.3549 19.8 18.0205 19.2633 18.3205 18.6188C18.6205 17.9742 18.6979 17.2477 18.7705 16.4813C18.9158 14.9508 19.0564 13.3875 19.8393 12.6938C19.9213 12.6305 19.9869 12.5461 20.0268 12.45C20.1604 12.3656 20.2822 12.2789 20.4018 12.1875V24.6C20.4018 25.575 19.4971 26.6297 17.758 27.45C16.0189 28.2703 13.5463 28.8 10.8018 28.8C8.05723 28.8 5.58457 28.2703 3.84551 27.45C2.10645 26.6297 1.20176 25.575 1.20176 24.6V12.1875ZM3.28301 13.275C3.32051 13.2891 3.35801 13.2984 3.39551 13.3125C5.33145 13.9969 7.92832 14.4 10.8018 14.4C13.5955 14.4 16.1221 14.018 18.0393 13.3688C17.6994 14.3484 17.6572 15.4406 17.5705 16.3688C17.5002 17.1117 17.4041 17.7445 17.233 18.1125C17.0619 18.4805 16.9682 18.6 16.5018 18.6C15.9791 18.6 15.7986 18.4664 15.6393 18.2625C15.4799 18.0586 15.3604 17.7047 15.283 17.2875C15.2057 16.8703 15.1705 16.4203 15.0205 15.975C14.9455 15.7523 14.8377 15.5156 14.6268 15.3188C14.4158 15.1219 14.1064 15 13.8018 15C13.183 15 12.6463 15.1594 12.2455 15.4875C11.8447 15.8156 11.6104 16.2703 11.4768 16.7438C11.2096 17.6906 11.2775 18.7828 11.3455 19.8375C11.4135 20.8922 11.4791 21.9305 11.3455 22.575C11.2799 22.8961 11.165 23.0977 11.0455 23.2125C10.926 23.3273 10.7877 23.4 10.4455 23.4C10.1033 23.4 9.90176 23.3156 9.73301 23.175C9.56426 23.0344 9.41895 22.8094 9.30176 22.4813C9.06504 21.8273 8.99473 20.8195 8.96426 19.7812C8.93379 18.743 8.94551 17.6859 8.77676 16.8C8.69238 16.357 8.55645 15.9492 8.28926 15.6C8.02207 15.2508 7.57441 15 7.08926 15C6.72363 15 6.3791 15.1359 6.15176 15.3C5.92441 15.4641 5.78145 15.6375 5.64551 15.7688C5.37129 16.0289 5.19785 16.2 4.50176 16.2C4.18066 16.2 4.09395 16.125 3.95801 15.9375C3.82207 15.75 3.7002 15.3961 3.60176 14.9438C3.49395 14.4516 3.43301 13.868 3.28301 13.275Z" fill="#422FD8"/>
</svg>
