<svg width="20" height="25" viewBox="0 0 20 25" fill="none" xmlns="http://www.w3.org/2000/svg">
<path d="M10 0C8.34961 0 7 1.34961 7 3C7 4.65039 8.34961 6 10 6C11.6504 6 13 4.65039 13 3C13 1.34961 11.6504 0 10 0ZM10 1C11.1113 1 12 1.88867 12 3C12 4.11133 11.1113 5 10 5C8.88867 5 8 4.11133 8 3C8 1.88867 8.88867 1 10 1ZM10.0156 6.5C7.81445 6.5 6.52734 7.08203 5.8125 7.8125C5.09766 8.54297 5 9.35938 5 9.70312V14.5938C5 15.3613 5.63867 16 6.40625 16H7V21.6719C7 22.4023 7.59766 23 8.32812 23H11.6719C12.4023 23 13 22.4023 13 21.6719V16H13.5938C14.3613 16 15 15.3613 15 14.5938V9.70312C15 9.36914 14.9121 8.54492 14.2031 7.8125C13.4941 7.08008 12.2168 6.5 10.0156 6.5ZM10.0156 7.5C12.043 7.5 13.0059 8.02148 13.4844 8.51562C13.9629 9.00977 14 9.54297 14 9.70312V14.5938C14 14.8164 13.8164 15 13.5938 15H13V11C13.0039 10.8457 12.9355 10.6992 12.8164 10.6016C12.6992 10.5039 12.541 10.4668 12.3906 10.5C12.1582 10.5527 11.9941 10.7617 12 11V15.4219C12 15.4375 12 15.4531 12 15.4688V15.5C12 15.5156 12 15.5312 12 15.5469V21.6719C12 21.8594 11.8574 22 11.6719 22H8.32812C8.14062 22 8 21.8594 8 21.6719V15.5781C8.00195 15.5527 8.00195 15.5254 8 15.5C8 15.4844 8 15.4688 8 15.4531V11C8.00391 10.8457 7.93555 10.6992 7.81641 10.6016C7.69922 10.5039 7.54102 10.4668 7.39062 10.5C7.1582 10.5527 6.99414 10.7617 7 11V15H6.40625C6.18359 15 6 14.8164 6 14.5938V9.70312C6 9.55078 6.04688 9.01172 6.53125 8.51562C7.01562 8.01953 7.98828 7.5 10.0156 7.5ZM5.92188 18.2812C4.26367 18.5254 2.85352 18.918 1.8125 19.4219C1.29102 19.6738 0.869141 19.9434 0.546875 20.2812C0.224609 20.6191 0 21.043 0 21.5C0 22.1289 0.402344 22.6523 0.953125 23.0625C1.50391 23.4727 2.23047 23.8105 3.125 24.0938C4.91406 24.6582 7.33398 25 10 25C12.666 25 15.0859 24.6582 16.875 24.0938C17.7695 23.8105 18.4961 23.4727 19.0469 23.0625C19.5977 22.6523 20 22.1289 20 21.5C20 21.043 19.7754 20.6191 19.4531 20.2812C19.1309 19.9434 18.709 19.6738 18.1875 19.4219C17.1465 18.918 15.7363 18.5254 14.0781 18.2812C13.8027 18.2383 13.543 18.4277 13.5 18.7031C13.457 18.9785 13.6465 19.2383 13.9219 19.2812C15.5098 19.5156 16.8535 19.8789 17.75 20.3125C18.1992 20.5293 18.5332 20.7734 18.7344 20.9844C18.9355 21.1953 19 21.3555 19 21.5C19 21.6992 18.8633 21.959 18.4531 22.2656C18.043 22.5723 17.3867 22.8809 16.5625 23.1406C14.9141 23.6621 12.582 24 10 24C7.41797 24 5.08594 23.6621 3.4375 23.1406C2.61328 22.8809 1.95703 22.5723 1.54688 22.2656C1.13672 21.959 1 21.6992 1 21.5C1 21.3555 1.06445 21.1953 1.26562 20.9844C1.4668 20.7734 1.80078 20.5293 2.25 20.3125C3.14648 19.8789 4.49023 19.5156 6.07812 19.2812C6.35352 19.2383 6.54297 18.9785 6.5 18.7031C6.45703 18.4277 6.19727 18.2383 5.92188 18.2812Z" fill="#393940"/>
</svg>
