<svg width="19" height="29" viewBox="0 0 19 29" fill="none" xmlns="http://www.w3.org/2000/svg">
<path d="M9.50021 0.580078C4.37311 0.580078 0.220215 4.73297 0.220215 9.86008C0.220215 14.0991 2.45865 18.6552 4.66084 22.1851C6.86303 25.7149 9.06521 28.2207 9.06521 28.2207C9.17623 28.3453 9.33482 28.4178 9.50021 28.4178C9.6656 28.4178 9.8242 28.3453 9.93521 28.2207C9.93521 28.2207 12.1397 25.6628 14.3396 22.1126C16.5395 18.5623 18.7802 14.0175 18.7802 9.86008C18.7802 4.73297 14.6273 0.580078 9.50021 0.580078ZM9.50021 1.74008C14.002 1.74008 17.6202 5.35828 17.6202 9.86008C17.6202 13.5916 15.5109 18.0277 13.3608 21.4963C11.5597 24.4031 10.0349 26.2745 9.50021 26.9157C8.961 26.2791 7.43623 24.4484 5.63959 21.5688C3.49178 18.1251 1.38021 13.6822 1.38021 9.86008C1.38021 5.35828 4.99842 1.74008 9.50021 1.74008ZM9.50021 6.38008C7.26404 6.38008 5.44021 8.20391 5.44021 10.4401C5.44021 12.6762 7.26404 14.5001 9.50021 14.5001C11.7364 14.5001 13.5602 12.6762 13.5602 10.4401C13.5602 8.20391 11.7364 6.38008 9.50021 6.38008ZM9.50021 7.54008C11.1088 7.54008 12.4002 8.83148 12.4002 10.4401C12.4002 12.0487 11.1088 13.3401 9.50021 13.3401C7.89162 13.3401 6.60021 12.0487 6.60021 10.4401C6.60021 8.83148 7.89162 7.54008 9.50021 7.54008Z" fill="#432FD8"/>
</svg>
