<svg width="29" height="25" viewBox="0 0 29 25" fill="none" xmlns="http://www.w3.org/2000/svg">
<path d="M21.533 0.000238588C21.3288 0.00689705 21.1446 0.122308 21.0492 0.302082L20.481 1.37629C20.3634 1.59602 20.4033 1.86457 20.5786 2.04212L21.8881 3.36935L19.8751 8.11451C18.8342 7.62623 17.8265 7.38653 17.0453 7.38653C16.2263 7.38653 15.6493 7.93251 15.1233 8.36974C14.8591 8.58725 14.6172 8.79809 14.4286 8.93348C14.2976 9.03114 14.1844 9.06887 14.1689 9.08218C14.1622 9.07552 13.947 9.03779 13.6717 8.94236C13.3743 8.84248 13.0081 8.70266 12.6308 8.5584C11.8718 8.27431 11.1416 7.95471 10.4602 7.95471C9.85875 7.95471 9.28835 8.20772 8.72018 8.54508C8.66691 8.52954 8.61142 8.52288 8.55594 8.52288H3.97723C3.77749 8.52288 3.59327 8.6272 3.48896 8.79809L0.0932167 14.4621C0.0887776 14.4665 0.0865583 14.471 0.084339 14.4754L0.0798998 14.4799C0.0798998 14.4843 0.0776805 14.4887 0.0754612 14.491C0.071022 14.5021 0.0643636 14.5109 0.059925 14.522C0.055486 14.5287 0.0510471 14.5376 0.0466083 14.5487C0.0421694 14.5598 0.0377305 14.5709 0.0332916 14.5842C0.0266333 14.6019 0.0221944 14.6197 0.0177555 14.6374C0.0177555 14.6374 0.0155361 14.6397 0.0155361 14.6419C0.0110972 14.6596 0.00887776 14.6752 0.00443888 14.6929C0.00443888 14.6951 0.00443888 14.6951 0.00443888 14.6974C0.00221944 14.7151 0.00221944 14.7329 0 14.7506C0 14.7573 0 14.7662 0 14.7728V17.6137C0 17.9266 0.255236 18.1819 0.568176 18.1819H1.13635V24.4318C1.13635 24.7448 1.39159 25 1.70453 25H26.7043C27.0172 25 27.2725 24.7448 27.2725 24.4318V18.1819H27.8406C28.1536 18.1819 28.4088 17.9266 28.4088 17.6137V14.7728C28.4088 14.7662 28.4088 14.7617 28.4088 14.7551C28.4066 14.7373 28.4066 14.7196 28.4022 14.7018C28.4044 14.6996 28.4044 14.6996 28.4022 14.6996C28.4044 14.6996 28.4044 14.6974 28.4022 14.6974C28.3999 14.6796 28.3977 14.6619 28.3933 14.6419C28.3888 14.6263 28.3844 14.6108 28.38 14.5953C28.3777 14.5931 28.3777 14.5908 28.3777 14.5886C28.3777 14.5864 28.3755 14.5842 28.3733 14.582C28.3689 14.5664 28.3622 14.5509 28.3556 14.5353C28.3511 14.5242 28.3445 14.5132 28.3378 14.4998C28.3356 14.4954 28.3334 14.491 28.3289 14.4865C28.3289 14.4843 28.3289 14.4821 28.3289 14.4799C28.3223 14.471 28.3156 14.4621 28.3112 14.4532L24.9199 8.79809C24.8155 8.6272 24.6313 8.52288 24.4316 8.52288H20.936L22.9379 3.80436L24.9798 3.87982C25.2084 3.88648 25.417 3.75775 25.5147 3.55134L26.0828 2.34619C26.1494 2.20414 26.1539 2.0399 26.0939 1.8912C26.0362 1.74472 25.9186 1.62931 25.7721 1.57382L21.7572 0.0379689C21.6839 0.0113356 21.6085 -0.00198071 21.533 0.000238588ZM21.8193 1.27864L24.7934 2.41499L24.6447 2.73015L22.787 2.66135L21.6795 1.54053L21.8193 1.27864ZM17.0453 8.52288C17.6801 8.52288 18.8319 8.80253 19.9217 9.41066C21.0092 10.0166 22.0501 10.9376 22.6316 12.1739C22.7137 12.3647 22.8935 12.4957 23.0999 12.5157C23.3085 12.5356 23.5083 12.4402 23.6259 12.2693C23.7413 12.0962 23.7547 11.8742 23.6592 11.69C23.2841 10.891 22.7603 10.2208 22.1678 9.65924H24.1098L26.8375 14.2046H1.57136L4.29905 9.65924H7.19764C7.02674 9.8035 6.85363 9.94333 6.69161 10.0898C5.56191 11.1108 4.68302 12.1273 4.68302 12.1273C4.54541 12.2804 4.4988 12.4979 4.56539 12.6932C4.62975 12.8885 4.79843 13.0328 5.0004 13.0705C5.20458 13.1082 5.41321 13.0328 5.54416 12.873C5.54416 12.873 6.38533 11.9009 7.4551 10.9332C7.98776 10.4494 8.57813 9.96996 9.12633 9.62373C9.67232 9.27971 10.1828 9.09106 10.4602 9.09106C10.64 9.09106 11.4812 9.33964 12.2291 9.62373C12.6042 9.76355 12.9748 9.90781 13.3033 10.021C13.6318 10.132 13.8759 10.2274 14.2044 10.2274C14.6239 10.2274 14.8503 10.0343 15.1011 9.85233C15.3496 9.66811 15.5982 9.45283 15.8468 9.2442C16.3484 8.82917 16.8922 8.52288 17.0453 8.52288ZM17.7555 10.2452C17.4404 10.2452 17.1873 10.4982 17.1873 10.8133C17.1873 11.1263 17.4404 11.3815 17.7555 11.3815C18.0685 11.3815 18.3237 11.1263 18.3237 10.8133C18.3237 10.4982 18.0685 10.2452 17.7555 10.2452ZM10.3692 10.8133C10.0541 10.8133 9.80104 11.0664 9.80104 11.3815C9.80104 11.6945 10.0541 11.9497 10.3692 11.9497C10.6822 11.9497 10.9374 11.6945 10.9374 11.3815C10.9374 11.0664 10.6822 10.8133 10.3692 10.8133ZM15.4828 11.3815C15.1676 11.3815 14.9146 11.6345 14.9146 11.9497C14.9146 12.2626 15.1676 12.5179 15.4828 12.5179C15.7957 12.5179 16.051 12.2626 16.051 11.9497C16.051 11.6345 15.7957 11.3815 15.4828 11.3815ZM19.46 11.3815C19.1449 11.3815 18.8919 11.6345 18.8919 11.9497C18.8919 12.2626 19.1449 12.5179 19.46 12.5179C19.773 12.5179 20.0282 12.2626 20.0282 11.9497C20.0282 11.6345 19.773 11.3815 19.46 11.3815ZM1.13635 15.341H27.2725V17.0455H1.13635V15.341ZM2.27271 18.1819H26.1361V23.8636H2.27271V18.1819Z" fill="#422FD8"/>
</svg>
