<svg width="37" height="25" viewBox="0 0 37 25" fill="none" xmlns="http://www.w3.org/2000/svg">
<path d="M30.0003 0C28.3837 0 27.06 1.32371 27.06 2.94031C27.06 4.5569 28.3837 5.88062 30.0003 5.88062C31.6169 5.88062 32.9406 4.5569 32.9406 2.94031C32.9406 1.32371 31.6169 0 30.0003 0ZM30.0003 1.47015C30.8216 1.47015 31.4705 2.11909 31.4705 2.94031C31.4705 3.76153 30.8216 4.41046 30.0003 4.41046C29.1791 4.41046 28.5302 3.76153 28.5302 2.94031C28.5302 2.11909 29.1791 1.47015 30.0003 1.47015ZM3.53756 5.14554C1.92096 5.14554 0.59725 6.46925 0.59725 8.08585C0.59725 9.70245 1.92096 11.0262 3.53756 11.0262C5.15415 11.0262 6.47787 9.70245 6.47787 8.08585C6.47787 6.46925 5.15415 5.14554 3.53756 5.14554ZM31.5624 6.27113C31.393 6.26826 31.2293 6.28548 31.057 6.31707C29.6759 6.5755 28.7312 7.92218 28.9896 9.30332L29.5639 12.3815L21.0646 13.9435C20.7286 12.6916 19.5944 11.7612 18.2391 11.7612C16.6225 11.7612 15.2988 13.0849 15.2988 14.7015C15.2988 14.802 15.3131 14.9025 15.3218 15.0002L8.10882 16.3095L7.58048 13.507C7.35651 12.2982 6.28548 11.4396 5.0996 11.4167C4.93019 11.4138 4.76652 11.431 4.59423 11.4626C3.21309 11.721 2.2684 13.0677 2.52683 14.4489L3.05516 17.2513L0 17.8027L0.252683 19.2498L15.8501 16.4014C16.0052 16.6168 16.1975 16.8091 16.4014 16.9757C16.0827 17.1307 15.919 17.4868 16.008 17.8285C16.0999 18.1673 16.4158 18.3999 16.7689 18.3769H19.7093C20.0596 18.3942 20.3754 18.1587 20.4587 17.817C20.542 17.4753 20.3725 17.125 20.0538 16.9757C20.542 16.5823 20.9038 16.0597 21.0646 15.4366L30.4368 13.7138L30.5746 13.6908C30.6062 13.6851 30.6378 13.6765 30.6665 13.6678L33.7676 13.1165C34.026 13.217 34.3189 13.1653 34.5257 12.9787L36.5012 12.6112L36.2485 11.164L34.5946 11.4626L34.0433 8.3615C33.8193 7.15265 32.7483 6.2941 31.5624 6.27113ZM3.53756 6.61569C4.35878 6.61569 5.00771 7.26463 5.00771 8.08585C5.00771 8.90707 4.35878 9.556 3.53756 9.556C2.71634 9.556 2.0674 8.90707 2.0674 8.08585C2.0674 7.26463 2.71634 6.61569 3.53756 6.61569ZM31.5394 7.74128C32.0534 7.74703 32.4985 8.11169 32.5961 8.63716L33.1704 11.7153L31.0111 12.1288L30.4368 9.02767C30.3248 8.42755 30.7096 7.87624 31.3097 7.76425C31.3843 7.7499 31.4647 7.74128 31.5394 7.74128ZM5.07663 12.8868C5.59061 12.8926 6.03567 13.2572 6.1333 13.7827L6.66164 16.5852L4.50235 16.9757L3.97401 14.1732C3.86203 13.5731 4.24679 13.0218 4.84691 12.9098C4.92157 12.8954 5.00197 12.8868 5.07663 12.8868ZM18.2391 13.2314C19.0603 13.2314 19.7093 13.8803 19.7093 14.7015C19.7093 15.5228 19.0603 16.1717 18.2391 16.1717C17.4179 16.1717 16.7689 15.5228 16.7689 14.7015C16.7689 13.8803 17.4179 13.2314 18.2391 13.2314ZM30.8503 15.0691L29.3112 15.3677L30.8962 18.0553C31.034 18.2879 31.2867 18.4229 31.5394 18.4229C31.6657 18.4229 31.7892 18.3999 31.9069 18.331C32.2573 18.1242 32.3664 17.6706 32.1596 17.3203L30.8503 15.0691ZM9.30332 19.0201L7.78722 19.3187L7.37374 21.9604C7.31057 22.3624 7.569 22.7242 7.97099 22.7874C8.00832 22.7931 8.04852 22.8104 8.08585 22.8104C8.4419 22.8104 8.76637 22.529 8.82093 22.1672L9.30332 19.0201ZM16.5622 19.112C16.1573 19.1694 15.8731 19.5456 15.9305 19.9505C15.9879 20.3553 16.3641 20.6396 16.7689 20.5822H19.7093C19.9734 20.585 20.2204 20.4472 20.3553 20.2175C20.4874 19.9878 20.4874 19.7064 20.3553 19.4767C20.2204 19.247 19.9734 19.1091 19.7093 19.112H16.7689C16.746 19.112 16.723 19.112 16.7 19.112C16.6771 19.112 16.6541 19.112 16.6311 19.112C16.6081 19.112 16.5852 19.112 16.5622 19.112ZM16.5622 21.3172C16.1573 21.3747 15.8731 21.7508 15.9305 22.1557C15.9879 22.5606 16.3641 22.8448 16.7689 22.7874H19.7093C19.9734 22.7903 20.2204 22.6524 20.3553 22.4227C20.4874 22.193 20.4874 21.9116 20.3553 21.6819C20.2204 21.4522 19.9734 21.3144 19.7093 21.3172H16.7689C16.746 21.3172 16.723 21.3172 16.7 21.3172C16.6771 21.3172 16.6541 21.3172 16.6311 21.3172C16.6081 21.3172 16.5852 21.3172 16.5622 21.3172ZM15.0921 23.5225C14.6872 23.5799 14.4029 23.9561 14.4603 24.3609C14.5178 24.7658 14.8939 25.0501 15.2988 24.9926H21.1794C21.4436 24.9955 21.6905 24.8577 21.8255 24.628C21.9576 24.3982 21.9576 24.1168 21.8255 23.8871C21.6905 23.6574 21.4436 23.5196 21.1794 23.5225H15.2988C15.2758 23.5225 15.2529 23.5225 15.2299 23.5225C15.2069 23.5225 15.1839 23.5225 15.161 23.5225C15.138 23.5225 15.115 23.5225 15.0921 23.5225Z" fill="#422FD8"/>
</svg>
