<svg width="30" height="30" viewBox="0 0 30 30" fill="none" xmlns="http://www.w3.org/2000/svg">
<path d="M6.52728 0.00566185C6.39372 0.0197217 6.26718 0.0806477 6.1711 0.17438L0.265965 6.09826C0.233159 6.11935 0.200353 6.14513 0.172233 6.17325C0.158174 6.18496 0.146457 6.19668 0.13474 6.21074C0.120681 6.22949 0.108964 6.24823 0.0972473 6.26698C0.0738145 6.30213 0.0550677 6.33962 0.0410079 6.37946C0.0199181 6.43336 0.00820158 6.48959 0.00351496 6.54818C-0.00117165 6.5927 -0.00117165 6.63488 0.00351496 6.6794C0.00351496 6.69815 0.00351496 6.7169 0.00351496 6.73564V18.6022C0.00351496 18.6209 0.00351496 18.6396 0.00351496 18.6584V29.4001C0.00351496 29.7305 0.272996 30 0.603402 30H2.40306C2.73347 30 3.00295 29.7305 3.00295 29.4001V19.202H10.2016V20.4018H3.60284V21.6016H10.2016V22.8014H3.60284V24.0011H10.2016V25.2009H3.60284V26.4007H10.2016V27.6005H3.60284V28.8002H10.2016V29.4001C10.2016 29.7305 10.4711 30 10.8015 30H12.6011C12.9315 30 13.201 29.7305 13.201 29.4001V18.6959C13.2034 18.6654 13.2034 18.6326 13.201 18.6022V6.69815C13.2034 6.66769 13.2034 6.63488 13.201 6.60442C13.201 6.59739 13.201 6.5927 13.201 6.58567C13.201 6.57395 13.201 6.55989 13.201 6.54818C13.201 6.53646 13.201 6.5224 13.201 6.51068C13.1963 6.48491 13.1893 6.45913 13.1823 6.4357C13.1729 6.40289 13.1588 6.37243 13.1448 6.34197C13.1378 6.33494 13.1331 6.33025 13.126 6.32322C13.1049 6.28338 13.0792 6.24589 13.0511 6.21074C13.0511 6.20371 13.0511 6.19902 13.0511 6.19199C13.044 6.18496 13.0393 6.18028 13.0323 6.17325H13.0136C13.0018 6.15919 12.9901 6.14747 12.9761 6.13576L7.03344 0.17438C6.89987 0.0431548 6.71241 -0.0201146 6.52728 0.00566185ZM6.60227 1.46789L11.1389 6.00453H2.06563L6.60227 1.46789ZM1.20329 7.2043H12.0013V18.0023H1.20329V7.2043ZM6.60227 8.40408C4.29645 8.40408 2.40306 10.2975 2.40306 12.6033C2.40306 14.9091 4.29645 16.8025 6.60227 16.8025C8.90808 16.8025 10.8015 14.9091 10.8015 12.6033C10.8015 10.2975 8.90808 8.40408 6.60227 8.40408ZM6.60227 9.60385C8.2543 9.60385 9.6017 10.9513 9.6017 12.6033C9.6017 14.2553 8.2543 15.6027 6.60227 15.6027C4.95024 15.6027 3.60284 14.2553 3.60284 12.6033C3.60284 10.9513 4.95024 9.60385 6.60227 9.60385ZM13.8009 12.0034V13.2032C16.0435 13.2032 17.3206 13.9507 18.2813 15.0966C19.2421 16.2424 19.8396 17.8453 20.4184 19.5207C20.9972 21.1962 21.5643 22.9256 22.6117 24.3011C23.6592 25.6766 25.255 26.6444 27.5983 26.6444C28.2427 26.6444 28.7981 27.2982 28.7981 28.0129V28.744C25.4893 28.6643 23.2046 28.0691 21.7119 27.188C20.1138 26.246 19.2678 25.0252 18.6562 23.7387C18.0446 22.4522 17.7119 21.1236 17.1003 20.0081C16.4887 18.8927 15.4412 18.0023 13.8009 18.0023V19.202C15.071 19.202 15.535 19.6613 16.0317 20.5705C16.5285 21.4797 16.8988 22.8506 17.5689 24.2636C18.2391 25.6766 19.2585 27.1552 21.0933 28.2378C22.9281 29.3204 25.5479 30 29.398 30C29.7284 30 29.9979 29.7305 29.9979 29.4001V28.0129C29.9979 26.6866 28.9949 25.4446 27.5983 25.4446C25.562 25.4446 24.4395 24.7135 23.5678 23.57C22.6961 22.4264 22.1454 20.8119 21.5619 19.1271C20.9785 17.4422 20.3528 15.6847 19.1999 14.3092C18.047 12.9337 16.327 12.0034 13.8009 12.0034ZM1.20329 19.202H1.80318V28.8002H1.20329V19.202ZM11.4014 19.202H12.0013V28.8002H11.4014V19.202Z" fill="#422FD8"/>
</svg>
