<svg width="32" height="30" viewBox="0 0 32 30" fill="none" xmlns="http://www.w3.org/2000/svg">
<path d="M3.29216 0C1.85792 0 0.683532 1.17439 0.683532 2.60863V28.6949C0.663152 28.6949 0.642773 28.6949 0.622393 28.6949C0.263197 28.7127 -0.0170264 29.0184 0.000806149 29.3776C0.0186387 29.7368 0.324337 30.017 0.683532 29.9992H4.59647C4.83084 30.0017 5.04992 29.8795 5.16966 29.6757C5.28684 29.4719 5.28684 29.2222 5.16966 29.0184C5.04992 28.8146 4.83084 28.6923 4.59647 28.6949V3.91294H7.85725C7.85725 4.39441 8.11964 4.80711 8.50941 5.03383V21.4396C8.50941 21.46 8.50941 21.4804 8.50941 21.5008V24.1298C8.50686 24.3387 8.60621 24.5348 8.77435 24.6597C8.77435 24.6597 11.6403 26.7384 15.6831 26.7384C19.726 26.7384 22.5919 24.6597 22.5919 24.6597C22.76 24.5348 22.8594 24.3387 22.8568 24.1298V21.5212C22.8568 21.5008 22.8568 21.4804 22.8568 21.46V5.03383C23.2466 4.80711 23.509 4.39441 23.509 3.91294H26.7698V28.6949C26.7494 28.6949 26.729 28.6949 26.7086 28.6949C26.3495 28.7127 26.0692 29.0184 26.0871 29.3776C26.1049 29.7368 26.4106 30.017 26.7698 29.9992H30.6827C30.9171 30.0017 31.1362 29.8795 31.2559 29.6757C31.3731 29.4719 31.3731 29.2222 31.2559 29.0184C31.1362 28.8146 30.9171 28.6923 30.6827 28.6949V2.60863C30.6827 1.17439 29.5083 0 28.0741 0H3.29216ZM3.29216 1.30431H28.0741C28.8027 1.30431 29.3784 1.88004 29.3784 2.60863V28.6949H28.0741V2.60863H3.29216V28.6949H1.98785V2.60863C1.98785 1.88004 2.56358 1.30431 3.29216 1.30431ZM10.4659 3.91294H20.9004C20.9004 4.39441 21.1628 4.80711 21.5525 5.03383V21.1339C20.8138 21.5314 18.2408 22.8255 15.6831 22.8255C13.1255 22.8255 10.5525 21.5314 9.81372 21.1339V5.03383C10.2035 4.80711 10.4659 4.39441 10.4659 3.91294ZM9.81372 22.5605C10.876 23.1235 12.9828 24.1298 15.6831 24.1298C18.3835 24.1298 20.4902 23.1235 21.5525 22.5605V23.7426C21.1984 23.9846 19.0025 25.4341 15.6831 25.4341C12.3638 25.4341 10.1678 23.9846 9.81372 23.7426V22.5605Z" fill="#422FD8"/>
</svg>
