<svg width="14" height="18" viewBox="0 0 14 18" fill="none" xmlns="http://www.w3.org/2000/svg">
  <path
    d="M1.55527 16.966C1.57533 17.4465 1.96951 17.8257 2.44889 17.8257H10.7986C11.278 17.8257 11.6722 17.4465 11.6923 16.966L12.2885 4.33984H0.958984L1.55527 16.966ZM8.51258 7.47597C8.51258 7.27478 8.67521 7.1116 8.87587 7.1116H9.45693C9.65746 7.1116 9.82023 7.27474 9.82023 7.47597V14.6896C9.82023 14.8908 9.65759 15.054 9.45693 15.054H8.87587C8.6753 15.054 8.51258 14.8909 8.51258 14.6896V7.47597ZM5.96999 7.47597C5.96999 7.27478 6.13262 7.1116 6.33324 7.1116H6.91429C7.11483 7.1116 7.27755 7.27474 7.27755 7.47597V14.6896C7.27755 14.8908 7.11496 15.054 6.91429 15.054H6.33324C6.13267 15.054 5.96999 14.8909 5.96999 14.6896V7.47597ZM3.42731 7.47597C3.42731 7.27478 3.58994 7.1116 3.79056 7.1116H4.37166C4.57223 7.1116 4.73491 7.27474 4.73491 7.47597V14.6896C4.73491 14.8908 4.57228 15.054 4.37166 15.054H3.79056C3.58999 15.054 3.42731 14.8909 3.42731 14.6896V7.47597Z"
    fill="white" />
  <path
    d="M12.6849 0.918348H8.83292V0.187877C8.83292 0.0841408 8.74908 0 8.64561 0H4.60059C4.49717 0 4.41333 0.0841408 4.41333 0.187877V0.918305H0.561259C0.251262 0.918305 0 1.17038 0 1.48132V3.24998H13.2462V1.48137C13.2462 1.17042 12.9949 0.918348 12.6849 0.918348Z"
    fill="white" />
</svg>