<svg width="23" height="23" viewBox="0 0 20 20" fill="none" xmlns="http://www.w3.org/2000/svg">
<path d="M5.62104 0.00498457C5.49684 0.0267199 5.39126 0.105898 5.33382 0.219233C5.27793 0.331015 5.27793 0.464531 5.33537 0.576313L6.20479 2.32756C6.26534 2.45952 6.39419 2.54957 6.54013 2.55889C6.68452 2.5682 6.82424 2.49678 6.90187 2.37414C6.9795 2.24993 6.98415 2.09468 6.91274 1.96737L6.04332 0.228548C5.9688 0.0686379 5.79647 -0.0229608 5.62104 0.00498457ZM14.2158 0.00498457C14.0854 0.0251674 13.9736 0.109004 13.9177 0.228548L13.0483 1.96737C12.9769 2.09468 12.9816 2.24993 13.0592 2.37414C13.1368 2.49678 13.2765 2.5682 13.4209 2.55889C13.5669 2.54957 13.6957 2.45952 13.7563 2.32756L14.6257 0.576313C14.6909 0.444349 14.6785 0.287544 14.5931 0.166447C14.5077 0.0469028 14.3617 -0.0151982 14.2158 0.00498457ZM8.39074 4.33963C6.80251 4.33963 5.48597 5.51955 5.26085 7.09691C5.2562 7.10157 5.25309 7.10467 5.24843 7.10933L4.03125 16.3003H2.8265C2.81408 16.3003 2.80166 16.3003 2.78924 16.3003C2.5843 16.3189 2.4275 16.4912 2.42905 16.6977V19.4798C2.42905 19.6987 2.60759 19.8773 2.8265 19.8773H17.1346C17.3535 19.8773 17.532 19.6987 17.532 19.4798V16.6977C17.532 16.4788 17.3535 16.3003 17.1346 16.3003H15.8553L14.6257 7.10933C14.6257 7.10467 14.6257 7.10157 14.6257 7.09691C14.399 5.51178 13.0297 4.38465 11.4213 4.33963C11.4166 4.33963 11.4135 4.33963 11.4088 4.33963H8.39074ZM19.5441 4.35205C19.5099 4.35671 19.4773 4.36447 19.4447 4.37689C19.4105 4.38465 19.3764 4.39707 19.3453 4.41415L17.5941 5.29598C17.4621 5.35653 17.3721 5.48539 17.3628 5.63133C17.3535 5.77571 17.4249 5.91544 17.5475 5.99307C17.6717 6.07069 17.827 6.07535 17.9543 6.00393L19.6931 5.13452C19.9011 5.08484 20.0331 4.88146 19.9927 4.67187C19.9524 4.46228 19.7552 4.321 19.5441 4.35205ZM0.354879 4.37689C0.180997 4.40639 0.0474796 4.54767 0.0272968 4.7231C0.00866651 4.89854 0.104923 5.06621 0.267938 5.13452L2.00676 6.00393C2.13407 6.07535 2.28932 6.07069 2.41353 5.99307C2.53617 5.91544 2.60759 5.77571 2.59828 5.63133C2.58896 5.48539 2.49891 5.35653 2.36695 5.29598L0.615703 4.41415C0.54584 4.38 0.468213 4.36758 0.39214 4.37689C0.37972 4.37689 0.367299 4.37689 0.354879 4.37689ZM8.39074 5.13452H11.4088C12.6524 5.17489 13.6678 6.02256 13.8432 7.20869V7.22111L15.048 16.3003H4.83857L6.04332 7.22111V7.20869C6.22031 6.01014 7.19995 5.13452 8.39074 5.13452ZM17.7183 10.4876C17.7059 10.4907 17.6935 10.4954 17.681 10.5C17.5165 10.5373 17.3923 10.6739 17.3736 10.8416C17.3535 11.0093 17.4419 11.1707 17.5941 11.2453L19.3453 12.1271C19.4742 12.2109 19.6403 12.214 19.7707 12.1348C19.9027 12.0541 19.9757 11.9051 19.9586 11.7514C19.9415 11.5992 19.839 11.4688 19.6931 11.4191L17.9543 10.5373C17.8829 10.4969 17.8006 10.4799 17.7183 10.4876ZM2.11855 10.5C2.07973 10.5063 2.04247 10.5187 2.00676 10.5373L0.267938 11.4191C0.122001 11.4688 0.0195342 11.5992 0.00245633 11.7514C-0.0146215 11.9051 0.0583473 12.0541 0.190312 12.1348C0.320724 12.214 0.486844 12.2109 0.615703 12.1271L2.36695 11.2453C2.54083 11.1552 2.62312 10.9518 2.56257 10.7655C2.50047 10.5808 2.31106 10.4674 2.11855 10.5ZM3.22394 17.0952H16.7371V19.0824H3.22394V17.0952Z" fill="#393940"/>
</svg>
