<svg width="18" height="18" viewBox="-66 3 18 18" xmlns="http://www.w3.org/2000/svg"
  xmlns:xlink="http://www.w3.org/1999/xlink">
  <path
    d="M-60.7538 3.98096C-59.7226 3.55379 -58.6173 3.33386 -57.501 3.33386C-56.3848 3.33386 -55.2795 3.55379 -54.2482 3.98096C-53.217 4.40812 -52.2799 5.03419 -51.4906 5.82349C-50.7013 6.61278 -50.0752 7.54979 -49.6481 8.58105C-49.2209 9.61232 -49.001 10.7176 -49.001 11.8339C-49.001 12.9501 -49.2209 14.0554 -49.6481 15.0867C-50.0752 16.1179 -50.7013 17.0551 -51.4906 17.8444C-52.2799 18.6337 -53.217 19.2597 -54.2482 19.6869C-55.2795 20.1141 -56.3848 20.3339 -57.501 20.3339C-58.6173 20.3339 -59.7226 20.1141 -60.7538 19.6869C-61.7851 19.2597 -62.7222 18.6337 -63.5115 17.8444C-64.3008 17.0551 -64.9268 16.1179 -65.354 15.0867C-65.7812 14.0554 -66.001 12.9501 -66.001 11.8339C-66.001 10.7176 -65.7812 9.61232 -65.354 8.58105C-64.9268 7.54979 -64.3008 6.61278 -63.5115 5.82349C-62.7222 5.03419 -61.7851 4.40812 -60.7538 3.98096ZM-57.501 5.33386C-58.3546 5.33386 -59.1998 5.50208 -59.9885 5.82874C-60.7771 6.15539 -61.4936 6.63409 -62.0972 7.23767C-62.7008 7.84125 -63.1796 8.55782 -63.5062 9.34644C-63.8329 10.1351 -64.001 10.9803 -64.001 11.8339C-64.001 12.6875 -63.8329 13.5327 -63.5062 14.3213C-63.1796 15.1099 -62.7008 15.8265 -62.0972 16.4301C-61.4936 17.0336 -60.7771 17.5125 -59.9885 17.8391C-59.1998 18.1658 -58.3546 18.3339 -57.501 18.3339C-56.6474 18.3339 -55.8022 18.1658 -55.0136 17.8391C-54.225 17.5125 -53.5084 17.0336 -52.9048 16.4301C-52.3013 15.8265 -51.8225 15.1099 -51.4958 14.3213C-51.1692 13.5327 -51.001 12.6875 -51.001 11.8339C-51.001 10.9803 -51.1692 10.1351 -51.4958 9.34644C-51.8225 8.55782 -52.3013 7.84125 -52.9048 7.23767C-53.5084 6.63409 -54.225 6.15539 -55.0136 5.82874C-55.8022 5.50208 -56.6474 5.33386 -57.501 5.33386Z"
    fill="#650D97" />
  <path
    d="M-60.7719 6.12451C-60.113 4.64204 -59.0185 3.33386 -57.501 3.33386C-55.9835 3.33386 -54.8891 4.64204 -54.2302 6.12451C-53.5343 7.69044 -53.1677 9.74404 -53.1677 11.8339C-53.1677 13.9237 -53.5343 15.9774 -54.2302 17.5433C-54.8891 19.0258 -55.9835 20.3339 -57.501 20.3339C-59.0185 20.3339 -60.113 19.0258 -60.7719 17.5433C-61.4678 15.9774 -61.8344 13.9237 -61.8344 11.8339C-61.8344 9.74404 -61.4678 7.69044 -60.7719 6.12451ZM-57.501 5.33386C-57.7517 5.33386 -58.3529 5.60619 -58.9443 6.93677C-59.4985 8.18388 -59.8344 9.94543 -59.8344 11.8339C-59.8344 13.7223 -59.4985 15.484 -58.9443 16.7311C-58.3529 18.0617 -57.7516 18.3339 -57.501 18.3339C-57.2504 18.3339 -56.6492 18.0617 -56.0578 16.7311C-55.5035 15.484 -55.1677 13.7223 -55.1677 11.8339C-55.1677 9.94543 -55.5035 8.18388 -56.0578 6.93677C-56.6492 5.60619 -57.2504 5.33386 -57.501 5.33386Z"
    fill="#650D97" />
  <path
    d="M-63.2103 8.56274C-61.6977 7.89062 -59.6782 7.50061 -57.501 7.50061C-55.3238 7.50061 -53.3044 7.89062 -51.7919 8.56274C-51.0368 8.89825 -50.3638 9.32367 -49.8661 9.84668C-49.3634 10.3749 -49.001 11.0481 -49.001 11.8339C-49.001 12.6196 -49.3634 13.2929 -49.8661 13.821C-50.3638 14.3441 -51.0368 14.7695 -51.7919 15.105C-53.3044 15.7771 -55.3238 16.1672 -57.501 16.1672C-59.6782 16.1672 -61.6977 15.7771 -63.2103 15.105C-63.9653 14.7695 -64.6382 14.3441 -65.136 13.821C-65.6387 13.2929 -66.001 12.6196 -66.001 11.8339C-66.001 11.0481 -65.6387 10.3749 -65.136 9.84668C-64.6382 9.32367 -63.9653 8.89825 -63.2103 8.56274ZM-63.6872 11.2255C-63.9436 11.4949 -64.001 11.6988 -64.001 11.8339C-64.001 11.9689 -63.9436 12.1728 -63.6872 12.4423C-63.4258 12.7169 -63.0003 13.0097 -62.3981 13.2773C-61.1961 13.8115 -59.4655 14.1672 -57.501 14.1672C-55.5366 14.1672 -53.806 13.8115 -52.604 13.2773C-52.0017 13.0097 -51.5763 12.7169 -51.3149 12.4423C-51.0584 12.1728 -51.001 11.9689 -51.001 11.8339C-51.001 11.6988 -51.0584 11.4949 -51.3149 11.2255C-51.5763 10.9508 -52.0017 10.6581 -52.604 10.3905C-53.806 9.85638 -55.5366 9.50061 -57.501 9.50061C-59.4655 9.50061 -61.1961 9.85638 -62.3981 10.3905C-63.0003 10.6581 -63.4258 10.9508 -63.6872 11.2255Z"
    fill="#650D97" />
</svg>