<svg width="20" height="20" viewBox="0 0 20 20" fill="none" xmlns="http://www.w3.org/2000/svg">
<path d="M9.93781 0C4.45443 0 0 4.4823 0 10C0 15.5177 4.45443 20 9.93781 20C15.4212 20 19.8756 15.5177 19.8756 10C19.8756 4.4823 15.4212 0 9.93781 0ZM9.50723 0.917323V5.22129C8.40172 5.19504 7.35065 5.07065 6.38132 4.86672C6.552 4.34642 6.74597 3.86291 6.9616 3.42896C7.67332 1.99661 8.57601 1.12483 9.50723 0.917323ZM10.3684 0.917323C11.2996 1.12483 12.2023 1.99661 12.914 3.42896C13.1303 3.8643 13.3249 4.34959 13.496 4.87179C12.5279 5.07369 11.4754 5.19559 10.3684 5.22129V0.917323ZM7.42834 1.22197C6.96099 1.71462 6.54426 2.33098 6.19126 3.04138C5.94526 3.53646 5.72948 4.08265 5.54119 4.66531C4.69591 4.43601 3.93148 4.14749 3.2714 3.8123C4.38226 2.60085 5.80901 1.68894 7.42834 1.22197ZM12.4473 1.22197C14.065 1.68849 15.4905 2.59923 16.6009 3.80892C15.9505 4.15022 15.1869 4.442 14.337 4.67208C14.1482 4.08685 13.9313 3.53838 13.6844 3.04138C13.3314 2.33098 12.9146 1.71462 12.4473 1.22197ZM17.1643 4.48591C18.2395 5.9113 18.9152 7.65882 19.0035 9.56673H15.1107C15.0792 8.11209 14.8945 6.73868 14.5783 5.50817C15.5445 5.24516 16.4153 4.90052 17.1643 4.48591ZM2.70626 4.49268C3.46342 4.89722 4.33567 5.23779 5.29899 5.50055C4.98168 6.73297 4.79646 8.10915 4.76497 9.56673H0.872092C0.960263 7.66183 1.63403 5.91686 2.70626 4.49268ZM6.13828 5.70449C7.1856 5.92873 8.3176 6.06227 9.50723 6.08869V9.56673H5.62613C5.65816 8.17478 5.83901 6.86408 6.13828 5.70449ZM13.739 5.71042C14.0374 6.86856 14.2175 8.17713 14.2495 9.56673H10.3684V6.08869C11.5587 6.06301 12.692 5.93254 13.739 5.71042ZM0.872092 10.4333H4.76497C4.7964 11.8879 4.98116 13.2613 5.29731 14.4918C4.33116 14.7548 3.46036 15.0995 2.71131 15.5141C1.6361 14.0887 0.960402 12.3412 0.872092 10.4333ZM5.62613 10.4333H9.50723V13.9113C8.31691 13.937 7.18362 14.0675 6.1366 14.2896C5.83822 13.1314 5.65811 11.8229 5.62613 10.4333ZM10.3684 10.4333H14.2495C14.2175 11.8252 14.0366 13.1359 13.7373 14.2955C12.69 14.0713 11.558 13.9377 10.3684 13.9113V10.4333ZM15.1107 10.4333H19.0035C18.9154 12.3382 18.2416 14.0831 17.1694 15.5073C16.4122 15.1028 15.54 14.7622 14.5766 14.4994C14.8939 13.267 15.0792 11.8908 15.1107 10.4333ZM9.50723 14.7787V19.0827C8.57601 18.8752 7.67332 18.0034 6.9616 16.571C6.74528 16.1357 6.55071 15.6504 6.37964 15.1282C7.34776 14.9263 8.40025 14.8044 9.50723 14.7787ZM10.3684 14.7787C11.4739 14.805 12.525 14.9293 13.4943 15.1333C13.3236 15.6536 13.1297 16.1371 12.914 16.571C12.2023 18.0034 11.2996 18.8752 10.3684 19.0827V14.7787ZM5.53867 15.3279C5.72745 15.9131 5.94431 16.4616 6.19126 16.9586C6.54426 17.669 6.96099 18.2854 7.42834 18.778C5.81058 18.3115 4.38517 17.4008 3.27476 16.1911C3.92509 15.8498 4.68867 15.558 5.53867 15.3279ZM14.3344 15.3347C15.1797 15.564 15.9441 15.8525 16.6042 16.1877C15.4934 17.3991 14.0666 18.3111 12.4473 18.778C12.9146 18.2854 13.3314 17.669 13.6844 16.9586C13.9304 16.4635 14.1461 15.9173 14.3344 15.3347Z" fill="#393940"/>
</svg>
