<?xml version="1.0" standalone="no"?>
<!DOCTYPE svg PUBLIC "-//W3C//DTD SVG 20010904//EN"
 "http://www.w3.org/TR/2001/REC-SVG-20010904/DTD/svg10.dtd">
<svg version="1.0" xmlns="http://www.w3.org/2000/svg"
 width="1120.000000pt" height="1120.000000pt" viewBox="0 0 1120.000000 1120.000000"
 preserveAspectRatio="xMidYMid meet">
<metadata>
Created by potrace 1.11, written by Peter Selinger 2001-2013
</metadata>
<g transform="translate(0.000000,1120.000000) scale(0.100000,-0.100000)"
fill="#000000" stroke="none">
<path d="M3839 11178 c-2 -58 0 -119 6 -128 3 -6 3 -10 -2 -10 -7 0 -9 -64 -3
-80 2 -3 1 -9 0 -15 -5 -22 -2 -124 5 -134 3 -6 3 -11 -2 -11 -4 0 -7 -19 -5
-42 1 -24 3 -50 2 -58 -2 -88 -1 -121 5 -130 3 -5 3 -10 -2 -10 -7 0 -9 -64
-3 -80 2 -3 1 -9 0 -15 -5 -22 -2 -124 5 -134 3 -6 3 -11 -2 -11 -4 0 -7 -19
-5 -42 1 -24 3 -50 2 -58 -1 -71 -1 -117 0 -125 1 -6 2 -14 0 -20 -1 -8 -1
-142 1 -230 0 -5 -2 -29 -3 -53 -2 -23 1 -42 5 -42 5 0 5 -5 2 -10 -4 -6 -6
-34 -6 -63 1 -72 1 -74 1 -192 0 -58 0 -111 1 -117 0 -7 -2 -32 -3 -56 -2 -23
1 -42 5 -42 5 0 5 -5 2 -10 -4 -6 -6 -34 -6 -63 1 -29 1 -60 1 -69 0 -30 0
-227 0 -245 0 -10 0 -34 1 -53 1 -19 1 -42 0 -50 -3 -49 -2 -121 3 -128 3 -5
2 -23 -3 -39 -5 -16 -5 -36 0 -44 4 -8 4 -21 -1 -28 -4 -8 -4 -26 0 -42 5 -15
6 -30 3 -33 -8 -8 -9 -146 -1 -146 4 0 3 -13 -2 -28 -4 -16 -4 -35 1 -43 4 -8
4 -21 -1 -28 -4 -8 -4 -26 0 -42 5 -15 6 -30 3 -33 -8 -8 -9 -146 -1 -146 4 0
3 -13 -2 -28 -4 -16 -4 -35 1 -43 4 -8 4 -21 -1 -28 -4 -8 -4 -26 0 -42 5 -15
6 -30 3 -33 -8 -8 -9 -146 -1 -146 4 0 3 -13 -2 -28 -4 -16 -4 -35 1 -43 4 -8
4 -21 -1 -28 -4 -8 -4 -26 0 -42 5 -15 6 -30 3 -33 -8 -8 -9 -296 -1 -296 4 0
3 -12 -1 -27 -5 -16 -5 -37 -1 -48 4 -11 5 -24 2 -30 -3 -5 -5 -28 -3 -52 2
-39 0 -43 -21 -44 -68 -2 -163 -13 -213 -25 -5 -1 -27 -5 -48 -8 -21 -3 -47
-11 -58 -16 -10 -6 -19 -8 -19 -6 0 8 -169 -53 -194 -69 -12 -8 -23 -14 -26
-13 -11 2 -187 -95 -225 -124 -107 -82 -173 -139 -230 -200 -78 -83 -125 -138
-119 -138 2 0 -12 -21 -31 -47 -50 -68 -48 -65 -69 -103 -33 -59 -96 -192 -96
-203 0 -3 -5 -18 -12 -34 -6 -15 -12 -32 -14 -38 -1 -5 -11 -44 -23 -85 -20
-75 -28 -110 -38 -185 -9 -60 -8 -484 0 -530 23 -121 30 -155 44 -200 55 -187
131 -339 247 -495 48 -65 214 -234 271 -276 22 -16 42 -31 45 -34 7 -7 60 -42
85 -56 40 -22 70 -39 85 -50 24 -17 155 -73 233 -99 81 -27 152 -44 257 -61
48 -8 306 -15 610 -17 l305 -2 0 -330 0 -330 -518 0 -517 0 0 -476 0 -477 515
2 c336 1 516 -2 518 -9 3 -9 1 -1303 -2 -1316 0 -3 -297 -5 -658 -5 l-658 0
-2 -34 c-2 -19 -3 -65 -3 -102 1 -38 1 -75 1 -83 0 -8 0 -44 0 -80 0 -36 0
-72 0 -80 0 -69 0 -153 0 -165 0 -8 0 -20 -1 -25 -1 -6 -2 -94 -1 -197 l1
-188 1139 0 1138 0 1 1938 c0 1065 1 1943 1 1950 1 8 25 12 84 12 l82 0 0
-1947 0 -1948 1138 -3 1137 -2 1 22 c0 13 1 226 2 475 2 395 0 452 -13 455 -8
2 -306 3 -662 3 -443 -1 -648 2 -651 10 -1 5 -2 304 -2 664 l1 654 518 1 518
1 0 420 c0 231 -1 445 -1 475 l-1 55 -511 0 c-281 0 -514 2 -517 5 -4 3 -7
152 -7 333 l0 327 370 1 c204 0 386 2 405 3 60 5 165 18 171 22 3 2 21 6 40 9
111 18 356 118 455 184 25 17 47 31 50 31 6 0 62 41 109 80 51 42 199 193 236
240 48 62 110 157 134 205 11 22 23 42 28 43 4 2 7 8 7 14 0 6 11 35 25 63 24
53 70 186 81 234 38 185 42 229 39 441 -1 118 -5 231 -8 250 -6 47 -27 149
-37 180 -4 14 -18 59 -31 100 -32 103 -134 301 -204 396 -67 90 -205 235 -264
279 -23 17 -53 40 -68 51 -107 89 -392 220 -538 247 -11 2 -31 7 -45 10 -35 9
-156 23 -226 26 -25 1 -33 24 -24 61 4 14 3 32 -1 41 -4 8 -4 21 1 28 4 8 4
26 0 42 -5 15 -6 30 -3 33 9 9 9 236 0 236 -5 0 -5 5 -2 10 6 9 7 42 5 130 -1
8 1 34 2 58 2 23 0 42 -4 42 -4 0 -3 12 1 28 4 15 4 39 0 55 -4 15 -4 27 -1
27 8 0 6 85 -2 106 -3 8 -2 14 3 14 4 0 5 19 1 43 -3 23 -3 53 0 67 4 14 3 32
-1 41 -4 8 -4 21 1 28 4 8 4 26 0 42 -5 15 -6 30 -3 33 8 8 9 296 1 296 -4 0
-3 12 1 28 5 15 5 36 1 47 -4 11 -5 24 -2 29 3 5 4 59 3 120 -2 120 -2 117 0
193 1 28 -2 56 -5 61 -3 5 -2 23 3 39 5 16 5 36 0 44 -4 8 -4 21 1 28 4 8 4
26 0 42 -5 15 -6 30 -3 33 9 9 9 236 0 236 -5 0 -5 5 -2 10 6 9 7 42 5 130 -1
8 1 34 2 58 2 23 0 42 -4 42 -4 0 -3 12 1 28 4 15 4 39 0 55 -4 15 -4 27 -1
27 8 0 6 85 -2 106 -3 8 -2 14 3 14 4 0 5 19 1 43 -3 23 -3 53 0 67 4 14 3 32
-1 41 -4 8 -4 21 1 28 4 8 4 26 0 42 -5 15 -6 30 -3 33 8 8 9 296 1 296 -4 0
-3 12 1 28 5 15 5 36 1 47 -4 11 -5 24 -2 29 3 5 4 59 3 120 -2 120 -2 117 0
193 1 28 -2 56 -5 61 -3 5 -2 23 3 39 5 16 5 36 0 44 -4 8 -4 21 1 28 4 8 4
26 0 42 -5 15 -6 30 -3 33 3 3 6 37 7 76 l1 70 -582 0 c-321 0 -583 -3 -584
-7 0 -5 -2 -15 -4 -24 -1 -9 -17 -96 -35 -195 -17 -98 -33 -190 -36 -204 -5
-26 -7 -39 -18 -105 -3 -23 -9 -52 -12 -65 -3 -14 -7 -39 -9 -57 -2 -18 -6
-40 -9 -50 -2 -10 -7 -34 -10 -53 -3 -19 -8 -47 -11 -62 -5 -29 -8 -44 -25
-138 -5 -30 -12 -68 -15 -85 -3 -16 -8 -41 -10 -55 -4 -27 -12 -70 -20 -110
-2 -13 -8 -42 -11 -65 -9 -53 -14 -86 -19 -110 -2 -11 -6 -33 -9 -50 -6 -36
-35 -199 -42 -235 -2 -14 -13 -74 -24 -135 -11 -60 -22 -119 -24 -130 -2 -11
-10 -54 -17 -95 -7 -41 -13 -77 -14 -80 -1 -3 -5 -32 -10 -65 -5 -33 -10 -62
-10 -65 -10 -38 -15 -61 -20 -90 -2 -19 -6 -44 -9 -55 -2 -11 -7 -40 -11 -65
-4 -25 -9 -54 -11 -65 -5 -22 -5 -24 -40 -220 -13 -77 -30 -170 -36 -207 -7
-37 -14 -65 -17 -63 -2 3 -8 28 -13 57 -5 29 -11 62 -13 73 -3 11 -6 31 -8 45
-3 14 -7 41 -11 60 -3 19 -8 46 -10 60 -2 14 -7 36 -10 50 -3 14 -8 41 -11 60
-2 19 -7 45 -9 56 -2 12 -7 37 -10 55 -3 19 -8 45 -10 59 -3 14 -10 52 -15 85
-6 33 -13 71 -16 85 -3 14 -7 36 -9 50 -3 14 -8 43 -11 65 -3 22 -7 47 -10 55
-2 8 -6 31 -9 50 -3 19 -10 61 -16 93 -5 31 -14 81 -19 110 -5 28 -12 63 -15
77 -3 14 -8 41 -11 60 -2 19 -7 49 -10 65 -21 111 -36 195 -41 229 -3 21 -8
48 -10 60 -10 42 -26 134 -39 216 -3 19 -8 49 -12 65 -3 17 -7 37 -8 45 -3 17
-42 241 -51 285 -3 17 -7 39 -8 50 -3 18 -6 36 -22 120 -3 17 -7 44 -10 60 -2
17 -7 41 -10 55 -3 14 -8 39 -11 55 -3 25 -20 120 -48 270 -3 17 -8 46 -11 65
-3 19 -7 41 -9 48 -3 9 -141 12 -645 12 l-640 0 -1 -22z m886 -2621 c1 -18 5
-46 9 -62 3 -17 8 -43 11 -60 3 -16 7 -41 10 -55 5 -25 8 -41 25 -140 17 -98
20 -115 25 -140 3 -14 7 -38 10 -55 6 -44 93 -531 104 -590 9 -46 22 -116 36
-205 3 -19 8 -42 10 -50 3 -8 7 -31 9 -50 3 -20 7 -47 10 -60 3 -14 8 -37 10
-52 l5 -28 -145 0 -144 0 0 797 c0 438 3 793 7 790 3 -4 7 -22 8 -40z m1765
-1097 l0 -450 -81 0 -81 0 5 38 c5 34 40 233 52 292 2 13 7 42 10 65 3 22 8
48 11 58 4 11 7 29 9 40 3 26 16 104 22 132 2 11 6 34 8 50 3 17 7 41 11 55 6
29 7 36 18 113 5 31 10 57 12 57 2 0 4 -202 4 -450z m-2654 -1630 c0 -33 2
-60 5 -60 3 0 5 -10 5 -22 l-1 -23 430 0 430 0 3 83 3 82 248 0 247 0 0 -82 0
-83 435 0 434 0 1 65 c1 36 2 73 3 83 1 16 18 17 206 17 l204 0 3 -82 3 -83
433 0 434 0 -4 42 c-2 24 -1 43 2 43 3 0 4 18 4 39 -2 32 1 39 15 36 146 -29
256 -126 296 -261 16 -55 22 -234 10 -299 -24 -130 -142 -260 -265 -293 -33
-8 -252 -16 -265 -9 -8 4 -16 4 -18 0 -3 -5 -31 -7 -64 -5 -73 3 -50 3 -240 2
-89 -1 -166 1 -170 3 -4 3 -8 85 -8 182 1 100 -3 179 -8 182 -8 5 -813 8 -922
4 -20 -1 -21 -7 -21 -181 0 -98 -3 -182 -6 -186 -8 -7 -149 -7 -156 1 -3 2 -5
85 -5 185 l0 180 -46 1 c-25 0 -238 1 -473 2 -374 2 -428 0 -429 -13 -1 -8 -2
-91 -3 -183 -1 -177 -7 -198 -47 -177 -9 5 -19 7 -22 4 -7 -7 -234 -7 -246 0
-5 4 -12 3 -14 -1 -3 -5 -31 -7 -64 -5 -32 1 -65 3 -73 3 -8 0 -73 -1 -144 -1
-152 -1 -183 4 -256 38 -94 44 -162 126 -199 241 -17 51 -14 266 4 326 41 136
164 241 306 264 4 1 6 -26 5 -59z"/>
</g>
</svg>
