<?xml version="1.0" standalone="no"?>
<!DOCTYPE svg PUBLIC "-//W3C//DTD SVG 20010904//EN"
 "http://www.w3.org/TR/2001/REC-SVG-20010904/DTD/svg10.dtd">
<svg version="1.0" xmlns="http://www.w3.org/2000/svg"
 width="383.000000pt" height="383.000000pt" viewBox="0 0 383.000000 383.000000"
 preserveAspectRatio="xMidYMid meet">
<metadata>
Created by potrace 1.14, written by Peter Selinger 2001-2017
</metadata>
<g transform="translate(0.000000,383.000000) scale(0.100000,-0.100000)"
fill="#000000" stroke="none">
<path d="M1143 3245 c-3 -9 -3 -18 -1 -21 3 -3 8 4 11 16 6 23 -1 27 -10 5z"/>
<path d="M1333 3245 c-3 -9 -3 -18 -1 -21 3 -3 8 4 11 16 6 23 -1 27 -10 5z"/>
<path d="M1482 3235 c0 -16 2 -22 5 -12 2 9 2 23 0 30 -3 6 -5 -1 -5 -18z"/>
<path d="M1512 3235 c0 -16 2 -22 5 -12 2 9 2 23 0 30 -3 6 -5 -1 -5 -18z"/>
<path d="M1732 3235 c0 -16 2 -22 5 -12 2 9 2 23 0 30 -3 6 -5 -1 -5 -18z"/>
<path d="M1802 3235 c0 -16 2 -22 5 -12 2 9 2 23 0 30 -3 6 -5 -1 -5 -18z"/>
<path d="M3378 3143 c7 -3 16 -2 19 1 4 3 -2 6 -13 5 -11 0 -14 -3 -6 -6z"/>
<path d="M3351 3115 c-1 -25 17 -45 39 -44 10 0 9 3 -5 8 -11 4 -23 19 -26 32
-6 21 -7 21 -8 4z"/>
<path d="M3424 3115 c-3 -8 -4 -20 -2 -27 3 -7 7 -1 10 15 6 29 1 36 -8 12z"/>
<path d="M3642 2955 c0 -16 2 -22 5 -12 2 9 2 23 0 30 -3 6 -5 -1 -5 -18z"/>
<path d="M3742 2955 c0 -16 2 -22 5 -12 2 9 2 23 0 30 -3 6 -5 -1 -5 -18z"/>
<path d="M3570 2956 c0 -8 4 -17 9 -20 5 -4 7 3 4 14 -6 23 -13 26 -13 6z"/>
<path d="M3677 2951 c-4 -17 -3 -21 5 -13 5 5 8 16 6 23 -3 8 -7 3 -11 -10z"/>
<path d="M3 2790 c0 -25 2 -35 4 -22 2 12 2 32 0 45 -2 12 -4 2 -4 -23z"/>
<path d="M38 2803 c5 -21 7 -23 10 -9 2 10 0 22 -6 28 -6 6 -7 0 -4 -19z"/>
<path d="M122 2805 c0 -16 2 -24 5 -17 2 6 10 9 16 5 7 -3 9 -3 5 2 -4 4 -2
15 5 24 10 14 10 14 -5 3 -13 -10 -17 -10 -21 0 -3 7 -5 0 -5 -17z"/>
<path d="M242 2810 c0 -14 2 -19 5 -12 2 6 2 18 0 25 -3 6 -5 1 -5 -13z"/>
<path d="M1530 2741 c-15 -28 -9 4 -170 -916 -39 -220 -72 -406 -75 -412 -3
-10 -93 -13 -401 -13 l-396 0 5 23 c3 12 16 79 28 149 l22 128 191 2 191 3 30
175 31 175 -188 3 c-141 2 -188 6 -188 15 0 6 11 73 25 147 14 74 25 136 25
138 0 1 168 2 373 2 l374 0 28 158 c15 86 30 169 33 185 l4 27 -554 0 -555 0
-21 -122 c-44 -247 -91 -516 -108 -618 -13 -76 -23 -109 -36 -118 -20 -15 -24
-42 -7 -59 8 -8 6 -42 -10 -130 -12 -65 -39 -224 -61 -353 -22 -129 -43 -247
-46 -263 l-6 -27 421 0 c330 0 421 -3 421 -12 0 -10 2 -10 8 -1 6 10 279 13
1288 15 l1279 3 31 175 30 175 -368 3 -368 2 1 28 c0 15 10 81 22 147 l22 120
191 3 190 2 32 177 c17 97 29 179 27 182 -3 2 -83 4 -178 3 -94 -1 -177 1
-184 6 -9 5 -8 24 2 77 7 39 18 103 25 143 l12 72 374 0 c206 0 374 4 374 8 0
4 13 84 30 177 16 94 30 173 30 178 0 4 -250 7 -555 7 -522 0 -555 -1 -556
-17 0 -10 -2 -29 -5 -43 -2 -14 -16 -90 -29 -170 -14 -80 -34 -190 -45 -245
-11 -55 -26 -140 -34 -190 -8 -49 -36 -207 -62 -350 -25 -143 -49 -273 -52
-288 l-4 -28 -394 3 c-217 1 -394 5 -394 8 0 3 11 69 25 146 14 76 25 140 25
142 0 1 85 2 189 2 172 0 190 2 195 18 3 9 17 87 32 172 14 85 28 158 30 162
3 5 -78 8 -181 8 -148 0 -187 3 -191 14 -3 7 5 74 18 147 l24 134 374 5 374 5
32 175 c17 96 29 178 25 182 -4 4 -248 8 -544 9 -476 1 -582 6 -519 22 16 4
16 5 0 6 -10 0 -22 -8 -28 -18z m-1320 -896 c0 -14 -4 -25 -10 -25 -11 0 -14
33 -3 43 11 11 13 8 13 -18z"/>
<path d="M3007 2189 c4 -13 8 -18 11 -10 2 7 -1 18 -6 23 -8 8 -9 4 -5 -13z"/>
<path d="M3066 2193 c-6 -14 -5 -15 5 -6 7 7 10 15 7 18 -3 3 -9 -2 -12 -12z"/>
<path d="M3137 2189 c4 -13 8 -18 11 -10 2 7 -1 18 -6 23 -8 8 -9 4 -5 -13z"/>
<path d="M51 1848 c1 -55 5 -50 11 15 2 20 0 37 -4 37 -4 0 -7 -24 -7 -52z"/>
<path d="M130 1889 c0 -5 5 -7 10 -4 6 3 10 8 10 11 0 2 -4 4 -10 4 -5 0 -10
-5 -10 -11z"/>
<path d="M70 1875 c0 -5 5 -17 10 -25 5 -8 10 -10 10 -5 0 6 -5 17 -10 25 -5
8 -10 11 -10 5z"/>
<path d="M90 1821 c0 -5 5 -13 10 -16 6 -3 10 -2 10 4 0 5 -4 13 -10 16 -5 3
-10 2 -10 -4z"/>
<path d="M2946 785 c-3 -8 -1 -15 4 -15 6 0 10 7 10 15 0 8 -2 15 -4 15 -2 0
-6 -7 -10 -15z"/>
<path d="M3183 760 c0 -25 2 -35 4 -22 2 12 2 32 0 45 -2 12 -4 2 -4 -23z"/>
<path d="M3432 775 c0 -16 2 -22 5 -12 2 9 2 23 0 30 -3 6 -5 -1 -5 -18z"/>
<path d="M3532 775 c0 -16 2 -22 5 -12 2 9 2 23 0 30 -3 6 -5 -1 -5 -18z"/>
<path d="M3560 775 c0 -14 4 -25 9 -25 4 0 6 11 3 25 -2 14 -6 25 -8 25 -2 0
-4 -11 -4 -25z"/>
<path d="M2793 783 c9 -2 23 -2 30 0 6 3 -1 5 -18 5 -16 0 -22 -2 -12 -5z"/>
<path d="M3222 770 c0 -14 2 -19 5 -12 2 6 2 18 0 25 -3 6 -5 1 -5 -13z"/>
<path d="M1656 11 c-4 -5 3 -7 14 -4 23 6 26 13 6 13 -8 0 -17 -4 -20 -9z"/>
</g>
</svg>
