<?xml version="1.0" standalone="no"?>
<!DOCTYPE svg PUBLIC "-//W3C//DTD SVG 20010904//EN"
 "http://www.w3.org/TR/2001/REC-SVG-20010904/DTD/svg10.dtd">
<svg version="1.0" xmlns="http://www.w3.org/2000/svg"
 width="383.000000pt" height="383.000000pt" viewBox="0 0 383.000000 383.000000"
 preserveAspectRatio="xMidYMid meet">
<metadata>
Created by potrace 1.14, written by Peter Selinger 2001-2017
</metadata>
<g transform="translate(0.000000,383.000000) scale(0.100000,-0.100000)"
fill="#000000" stroke="none">
<path d="M360 2711 c0 -10 -278 -1616 -285 -1648 l-5 -23 1705 0 1705 0 5 23
c10 43 55 302 55 320 0 16 -24 17 -371 17 l-371 0 6 28 c8 34 46 255 46 264 0
4 87 9 193 10 l192 3 31 175 30 175 -188 3 c-141 2 -188 6 -188 15 0 26 47
274 54 286 5 8 103 11 373 11 201 -1 367 0 368 2 1 2 15 73 29 158 15 85 29
163 32 173 5 16 -26 17 -548 17 l-553 0 -116 -658 -115 -657 -397 -3 c-354 -2
-397 -1 -397 13 0 18 39 241 46 268 5 15 23 17 195 17 104 0 189 3 189 8 0 4
14 81 30 172 17 91 30 168 30 173 0 4 -85 7 -190 7 l-190 0 6 28 c3 15 15 83
27 152 l22 125 375 5 374 5 27 155 c16 85 28 163 28 173 1 16 -32 17 -548 17
l-549 0 -6 -27 c-9 -45 -226 -1277 -226 -1285 0 -5 -180 -8 -400 -8 -220 0
-400 4 -400 8 0 4 11 71 25 148 14 76 25 140 25 142 0 1 85 2 190 2 188 0 190
0 195 23 9 41 55 311 55 324 0 10 -41 13 -185 13 -172 0 -185 1 -185 18 0 17
34 221 45 270 l5 22 374 0 373 0 7 48 c4 26 17 104 30 175 l23 127 -554 0
c-310 0 -553 -4 -553 -9z"/>
</g>
</svg>
