<svg xmlns="http://www.w3.org/2000/svg" width="18" height="18" fill="none"><path fill="#432fd8" d="M16.773 1.46 16.16.916a3.65 3.65 0 0 0-5.149.31L9.257 3.205a1.26 1.26 0 0 0-.318.921c.02.34.171.65.426.876l.164.146c.233.207.534.32.845.32l.076-.001c.34-.02.65-.172.877-.427l1.755-1.98a.91.91 0 0 1 1.243-.074l.613.543c.175.156.28.37.294.606a.87.87 0 0 1-.22.637l-3.837 4.329a.905.905 0 0 1-1.063.197 1.39 1.39 0 0 0-1.643.306l-.03.034a1.35 1.35 0 0 0-.32 1.15c.076.415.334.77.708.966.518.27 1.101.42 1.688.42 1.044 0 2.04-.453 2.731-1.233l3.837-4.33a3.656 3.656 0 0 0-.31-5.153z"/><path fill="#432fd8" d="M8.469 12.849c-.506-.448-1.348-.398-1.798.108l-1.753 1.98a.91.91 0 0 1-1.243.075l-.613-.544a.88.88 0 0 1-.295-.606.87.87 0 0 1 .22-.636l3.837-4.329a.905.905 0 0 1 1.047-.206c.56.276 1.271.142 1.704-.348.275-.31.39-.721.317-1.127a1.34 1.34 0 0 0-.688-.95 3.655 3.655 0 0 0-4.45.797L.917 11.39a3.65 3.65 0 0 0 .309 5.149l.613.535a3.63 3.63 0 0 0 2.418.91c1.044 0 2.04-.44 2.731-1.22l1.754-1.975c.226-.254.34-.58.319-.918a1.28 1.28 0 0 0-.427-.877z"/></svg>