<svg xmlns="http://www.w3.org/2000/svg" width="27" height="27" fill="none"><path fill="#432fd8" d="M18.913 6.174V1.622c0-.726-.594-1.32-1.32-1.32H1.32A1.325 1.325 0 0 0 0 1.623v18.649c0 .484.286.945.704 1.165l10.028 5.19c.44.22.967-.087.967-.593v-5.058h5.894c.726 0 1.32-.594 1.32-1.32v-7.213h-2.64v5.234c0 .374-.285.66-.66.66h-3.892V7.142c0-.484-.285-.945-.703-1.165L5.102 2.942h10.512c.374 0 .66.286.66.66v2.595h2.639z"/><path fill="#432fd8" d="m22.3 4.018 4.288 4.288c.55.55.55 1.364 0 1.914L22.3 14.508c-.55.55-1.386.572-1.936.022-.527-.527-.462-1.407.044-1.935l1.935-1.913h-7.498c-.374 0-.748-.154-.99-.44-.616-.66-.462-1.825.33-2.265.198-.11.44-.176.66-.176h7.499s-1.913-1.913-1.935-1.913c-.506-.506-.572-1.408-.045-1.914.528-.527 1.386-.506 1.936.044"/></svg>