<svg xmlns="http://www.w3.org/2000/svg" width="14" height="18" fill="none"><path fill="#fff" d="M1.555 16.966c.02.48.415.86.894.86h8.35c.479 0 .873-.38.893-.86L12.29 4.34H.959zm6.958-9.49c0-.201.162-.364.363-.364h.58c.201 0 .364.163.364.364v7.214a.364.364 0 0 1-.363.364h-.581a.364.364 0 0 1-.363-.364zm-2.543 0c0-.201.163-.364.363-.364h.581c.2 0 .364.163.364.364v7.214a.364.364 0 0 1-.364.364h-.58a.364.364 0 0 1-.364-.364zm-2.543 0c0-.201.163-.364.364-.364h.58c.201 0 .364.163.364.364v7.214a.364.364 0 0 1-.363.364H3.79a.364.364 0 0 1-.364-.364zM12.685.918H8.833v-.73A.19.19 0 0 0 8.646 0H4.6a.19.19 0 0 0-.188.188v.73H.561A.56.56 0 0 0 0 1.481V3.25h13.246V1.481a.56.56 0 0 0-.561-.563"/></svg>